<svg width="16" height="16" viewBox="0 0 16 16" fill="none" xmlns="http://www.w3.org/2000/svg">
<path fill-rule="evenodd" clip-rule="evenodd" d="M0.583344 8.00001C0.583344 3.91913 3.91913 0.583344 8.00001 0.583344C12.0809 0.583344 15.4167 3.91913 15.4167 8.00001C15.4167 12.0809 12.0809 15.4167 8.00001 15.4167C3.91913 15.4167 0.583344 12.0809 0.583344 8.00001ZM8.00001 2.08334C4.74756 2.08334 2.08334 4.74756 2.08334 8.00001C2.08334 11.2525 4.74756 13.9167 8.00001 13.9167C11.2525 13.9167 13.9167 11.2525 13.9167 8.00001C13.9167 4.74756 11.2525 2.08334 8.00001 2.08334Z" fill="#121C25"/>
<path fill-rule="evenodd" clip-rule="evenodd" d="M4.58334 8.00002C4.58334 7.5858 4.91913 7.25002 5.33334 7.25002H10.6667C11.0809 7.25002 11.4167 7.5858 11.4167 8.00002C11.4167 8.41423 11.0809 8.75002 10.6667 8.75002H5.33334C4.91913 8.75002 4.58334 8.41423 4.58334 8.00002Z" fill="#121C25"/>
<path fill-rule="evenodd" clip-rule="evenodd" d="M8 4.58334C8.41421 4.58334 8.75 4.91913 8.75 5.33334V10.6667C8.75 11.0809 8.41421 11.4167 8 11.4167C7.58579 11.4167 7.25 11.0809 7.25 10.6667V5.33334C7.25 4.91913 7.58579 4.58334 8 4.58334Z" fill="#121C25"/>
</svg>
