<svg width="16" height="16" viewBox="0 0 16 16" fill="none" xmlns="http://www.w3.org/2000/svg">
<path fill-rule="evenodd" clip-rule="evenodd" d="M14.6636 1.33636C14.9565 1.62925 14.9565 2.10413 14.6636 2.39702L9.19698 7.86369C8.90408 8.15658 8.42921 8.15658 8.13631 7.86369C7.84342 7.5708 7.84342 7.09592 8.13631 6.80303L13.603 1.33636C13.8959 1.04347 14.3707 1.04347 14.6636 1.33636Z" fill="#8E9BA8"/>
<path fill-rule="evenodd" clip-rule="evenodd" d="M10.7167 1.33333C10.7167 0.919115 11.0524 0.583328 11.4667 0.583328H14.6667C15.0809 0.583328 15.4167 0.919115 15.4167 1.33333V4.53333C15.4167 4.94754 15.0809 5.28333 14.6667 5.28333C14.2524 5.28333 13.9167 4.94754 13.9167 4.53333V2.08333H11.4667C11.0524 2.08333 10.7167 1.74754 10.7167 1.33333Z" fill="#8E9BA8"/>
<path fill-rule="evenodd" clip-rule="evenodd" d="M1.88632 1.88633C2.84579 0.926863 4.25934 0.583328 5.99998 0.583328H7.33331C7.74753 0.583328 8.08331 0.919115 8.08331 1.33333C8.08331 1.74754 7.74753 2.08333 7.33331 2.08333H5.99998C4.40729 2.08333 3.48751 2.40646 2.94698 2.94699C2.40645 3.48752 2.08331 4.4073 2.08331 6V10C2.08331 11.5927 2.40645 12.5125 2.94698 13.053C3.48751 13.5935 4.40729 13.9167 5.99998 13.9167H9.99998C11.5927 13.9167 12.5125 13.5935 13.053 13.053C13.5935 12.5125 13.9166 11.5927 13.9166 10V8.66666C13.9166 8.25245 14.2524 7.91666 14.6666 7.91666C15.0809 7.91666 15.4166 8.25245 15.4166 8.66666V10C15.4166 11.7406 15.0731 13.1542 14.1136 14.1137C13.1542 15.0731 11.7406 15.4167 9.99998 15.4167H5.99998C4.25934 15.4167 2.84579 15.0731 1.88632 14.1137C0.926848 13.1542 0.583313 11.7406 0.583313 10V6C0.583313 4.25936 0.926848 2.8458 1.88632 1.88633Z" fill="#8E9BA8"/>
</svg>
