<svg width="32" height="32" viewBox="0 0 32 32" fill="none" xmlns="http://www.w3.org/2000/svg">
<path d="M27.6735 17.6589C28.5902 17.6589 29.3333 18.4019 29.3333 19.3186C29.3333 20.2353 28.5902 20.9784 27.6735 20.9784H25.9585C24.1252 20.9784 24.4723 22.6381 22.639 22.6381C20.8057 22.6381 21.1528 20.9784 19.3195 20.9784C17.4862 20.9784 17.8333 22.6381 16 22.6381C14.1667 22.6381 14.5138 20.9784 12.6805 20.9784C10.8472 20.9784 11.1943 22.6381 9.36096 22.6381C7.52765 22.6381 7.81943 20.9784 5.98613 20.9784H4.32638C3.40975 20.9784 2.66663 20.2353 2.66663 19.3186C2.66663 18.4019 3.40975 17.6589 4.32638 17.6589" stroke="white" stroke-width="2" stroke-miterlimit="10" stroke-linecap="round" stroke-linejoin="round"/>
<path d="M27.6735 17.6583H4.32638C3.40975 17.6583 2.66663 16.9152 2.66663 15.9985C2.66663 15.0818 3.40975 14.3388 4.32638 14.3388H27.6735C28.5902 14.3388 29.3333 15.0818 29.3333 15.9985C29.3333 16.9152 28.5902 17.6583 27.6735 17.6583Z" stroke="white" stroke-width="2" stroke-miterlimit="10" stroke-linecap="round" stroke-linejoin="round"/>
<path d="M4.32739 14.3391C4.32739 7.00589 9.58443 4.38061 16.001 4.38061C22.4175 4.38061 27.6746 7.00589 27.6746 14.3391" stroke="white" stroke-width="2" stroke-miterlimit="10" stroke-linecap="round" stroke-linejoin="round"/>
<path d="M27.6746 20.9778C27.6746 24.6444 24.6468 27.6168 20.9802 27.6168H11.0217C7.35511 27.6168 4.32739 24.6444 4.32739 20.9778" stroke="white" stroke-width="2" stroke-miterlimit="10" stroke-linecap="round" stroke-linejoin="round"/>
</svg>
