<svg width="16" height="16" viewBox="0 0 16 16" fill="none" xmlns="http://www.w3.org/2000/svg">
<path d="M14.6476 12.2204C14.6476 12.4604 14.5943 12.7071 14.481 12.9471C14.3676 13.1871 14.221 13.4137 14.0276 13.6271C13.701 13.9871 13.341 14.2471 12.9343 14.4137C12.5343 14.5804 12.101 14.6671 11.6343 14.6671C10.9543 14.6671 10.2276 14.5071 9.46096 14.1804C8.69429 13.8537 7.92762 13.4137 7.16762 12.8604C6.40096 12.3004 5.67429 11.6804 4.98096 10.9937C4.29429 10.3004 3.67429 9.57374 3.12096 8.81374C2.57429 8.05374 2.13429 7.29374 1.81429 6.54041C1.49429 5.78041 1.33429 5.05374 1.33429 4.36041C1.33429 3.90707 1.41429 3.47374 1.57429 3.07374C1.73429 2.66707 1.98762 2.29374 2.34096 1.96041C2.76762 1.54041 3.23429 1.33374 3.72762 1.33374C3.91429 1.33374 4.10096 1.37374 4.26762 1.45374C4.44096 1.53374 4.59429 1.65374 4.71429 1.82707L6.26096 4.00707C6.38096 4.17374 6.46762 4.32707 6.52762 4.47374C6.58762 4.61374 6.62096 4.75374 6.62096 4.88041C6.62096 5.04041 6.57429 5.20041 6.48096 5.35374C6.39429 5.50707 6.26762 5.66707 6.10762 5.82707L5.60096 6.35374C5.52762 6.42707 5.49429 6.51374 5.49429 6.62041C5.49429 6.67374 5.50096 6.72041 5.51429 6.77374C5.53429 6.82707 5.55429 6.86707 5.56762 6.90707C5.68762 7.12707 5.89429 7.41374 6.18762 7.76041C6.48762 8.10707 6.80762 8.46041 7.15429 8.81374C7.51429 9.16707 7.86096 9.49374 8.21429 9.79374C8.56096 10.0871 8.84762 10.2871 9.07429 10.4071C9.10762 10.4204 9.14762 10.4404 9.19429 10.4604C9.24762 10.4804 9.30096 10.4871 9.36096 10.4871C9.47429 10.4871 9.56096 10.4471 9.63429 10.3737L10.141 9.87374C10.3076 9.70707 10.4676 9.58041 10.621 9.50041C10.7743 9.40707 10.9276 9.36041 11.0943 9.36041C11.221 9.36041 11.3543 9.38707 11.501 9.44707C11.6476 9.50707 11.801 9.59374 11.9676 9.70707L14.1743 11.2737C14.3476 11.3937 14.4676 11.5337 14.541 11.7004C14.6076 11.8671 14.6476 12.0337 14.6476 12.2204Z" fill="#121C25"/>
</svg>
