<svg width="24" height="24" viewBox="0 0 24 24" fill="none" xmlns="http://www.w3.org/2000/svg">
<path d="M12 2C6.49 2 2 6.49 2 12C2 17.51 6.49 22 12 22C17.51 22 22 17.51 22 12C22 6.49 17.51 2 12 2ZM16.35 15.57C16.21 15.81 15.96 15.94 15.7 15.94C15.57 15.94 15.44 15.91 15.32 15.83L12.22 13.98C11.45 13.52 10.88 12.51 10.88 11.62V7.52C10.88 7.11 11.22 6.77 11.63 6.77C12.04 6.77 12.38 7.11 12.38 7.52V11.62C12.38 11.98 12.68 12.51 12.99 12.69L16.09 14.54C16.45 14.75 16.57 15.21 16.35 15.57Z" fill="#101010"/>
<path fill-rule="evenodd" clip-rule="evenodd" d="M12.99 12.69C12.68 12.51 12.38 11.98 12.38 11.62V7.52C12.38 7.11 12.04 6.77 11.63 6.77C11.22 6.77 10.88 7.11 10.88 7.52V11.62C10.88 12.51 11.45 13.52 12.22 13.98L15.32 15.83C15.44 15.91 15.57 15.94 15.7 15.94C15.96 15.94 16.21 15.81 16.35 15.57C16.57 15.21 16.45 14.75 16.09 14.54L12.99 12.69ZM16.599 13.6792C17.4318 14.1687 17.715 15.2434 17.2086 16.0827C16.8775 16.6429 16.2904 16.94 15.7 16.94C15.4184 16.94 15.0965 16.8746 14.7909 16.6788L11.7075 14.8387C10.6347 14.1978 9.88 12.8611 9.88 11.62V7.52C9.88 6.55772 10.6677 5.77 11.63 5.77C12.5923 5.77 13.38 6.55772 13.38 7.52V11.5949C13.381 11.5986 13.3823 11.6034 13.3842 11.6092C13.3941 11.6401 13.4119 11.6823 13.438 11.7281C13.4641 11.774 13.4908 11.81 13.5111 11.8329C13.5139 11.836 13.5163 11.8386 13.5183 11.8408L16.599 13.6792ZM13.5259 11.8481C13.5258 11.8481 13.5255 11.8478 13.5248 11.8472ZM12 3C7.04228 3 3 7.04228 3 12C3 16.9577 7.04228 21 12 21C16.9577 21 21 16.9577 21 12C21 7.04228 16.9577 3 12 3ZM2 12C2 6.49 6.49 2 12 2C17.51 2 22 6.49 22 12C22 17.51 17.51 22 12 22C6.49 22 2 17.51 2 12Z" fill="#121C25"/>
</svg>
