<svg width="24" height="24" viewBox="0 0 24 24" fill="none" xmlns="http://www.w3.org/2000/svg">
<path fill-rule="evenodd" clip-rule="evenodd" d="M4.29387 4.29289C4.68439 3.90237 5.31756 3.90237 5.70808 4.29289L19.7071 18.292C20.0977 18.6825 20.0977 19.3156 19.7071 19.7062C19.3166 20.0967 18.6835 20.0967 18.2929 19.7062L4.29387 5.70711C3.90335 5.31658 3.90335 4.68342 4.29387 4.29289Z" fill="#121C25"/>
<path fill-rule="evenodd" clip-rule="evenodd" d="M19.7062 4.29289C20.0967 4.68342 20.0967 5.31658 19.7062 5.70711L5.70716 19.7062C5.31664 20.0967 4.68347 20.0967 4.29295 19.7062C3.90243 19.3156 3.90242 18.6825 4.29295 18.292L18.292 4.29289C18.6825 3.90237 19.3157 3.90237 19.7062 4.29289Z" fill="#121C25"/>
</svg>
