<svg width="130" height="130" viewBox="0 0 130 130" fill="none" xmlns="http://www.w3.org/2000/svg">
<path d="M0 28.8889C0 12.934 12.934 0 28.8889 0H101.111C117.066 0 130 12.934 130 28.8889V101.111C130 117.066 117.066 130 101.111 130H28.8889C12.934 130 0 117.066 0 101.111V28.8889Z" fill="#FFE033"/>
<path d="M71.3644 30.0304C70.6906 29.91 70.2939 29.1755 70.409 28.4904C70.4592 28.1917 70.4856 27.8849 70.4856 27.5719C70.4856 24.4999 68.025 22 65.0011 22C61.9773 22 59.5167 24.4999 59.5167 27.5719C59.5167 27.8849 59.5431 28.1916 59.5933 28.4902C59.7083 29.1754 59.3116 29.91 58.6377 30.0303C43.6954 32.6983 31.8365 44.5549 29.0838 59.8148C28.7915 61.4352 30.0676 62.8606 31.6891 62.8606L98.3095 62.8606C99.931 62.8606 101.207 61.4351 100.915 59.8147C98.1612 44.5608 86.3001 32.6987 71.3644 30.0304Z" fill="black"/>
<g opacity="0.6">
<path d="M73.8919 102.131L100.957 102.131L100.957 74.3455L73.8919 74.3455L73.8919 102.131ZM78.4027 78.9763L96.4458 78.9763L96.4458 97.4998L78.4027 97.4998L78.4027 78.9763Z" fill="black"/>
<path d="M92.0639 93.0013L83.1712 93.0013L83.1712 83.4749L92.0639 83.4749L92.0639 93.0013Z" fill="black"/>
<path d="M56.1066 102.131L56.1066 74.3455L29.0419 74.3455L29.0419 102.131L56.1066 102.131ZM33.5527 78.9763L51.5958 78.9763L51.5958 97.4998L33.5527 97.4998L33.5527 78.9763Z" fill="black"/>
<path d="M46.8272 93.0013L37.9346 93.0013L37.9346 83.4749L46.8272 83.4749L46.8272 93.0013Z" fill="black"/>
<path d="M64.9992 83.6072L60.3596 83.6072L60.3596 74.3455L64.9992 74.3455L64.9992 83.6072L69.6389 83.6072L69.6389 102.131L64.9992 102.131L64.9992 97.4998L60.3596 97.4998L60.3596 88.2381L64.9992 88.2381L64.9992 83.6072Z" fill="black"/>
</g>
<path fill-rule="evenodd" clip-rule="evenodd" d="M22.282 69.0112C22.282 68.0675 23.047 67.3025 23.9907 67.3025L106.009 67.3025C106.953 67.3025 107.718 68.0675 107.718 69.0112C107.718 69.9549 106.953 70.7199 106.009 70.7199L23.9907 70.7199C23.047 70.7199 22.282 69.9549 22.282 69.0112Z" fill="#121C25"/>
<path fill-rule="evenodd" clip-rule="evenodd" d="M11.736 28.8885C11.736 19.4153 19.4155 11.7357 28.8887 11.7357L36.111 11.7357C37.6067 11.7357 38.8193 12.9483 38.8193 14.4441C38.8193 15.9398 37.6067 17.1524 36.111 17.1524L28.8887 17.1524C22.4071 17.1524 17.1526 22.4068 17.1526 28.8885L17.1526 36.1107C17.1526 37.6065 15.9401 38.8191 14.4443 38.8191C12.9485 38.8191 11.736 37.6065 11.736 36.1107L11.736 28.8885ZM91.1804 14.4441C91.1804 12.9483 92.393 11.7357 93.8887 11.7357L101.111 11.7357C110.584 11.7357 118.264 19.4153 118.264 28.8885L118.264 36.1107C118.264 37.6065 117.051 38.8191 115.555 38.8191C114.06 38.8191 112.847 37.6065 112.847 36.1107L112.847 28.8885C112.847 22.4068 107.593 17.1524 101.111 17.1524L93.8887 17.1524C92.393 17.1524 91.1804 15.9398 91.1804 14.4441ZM14.4443 91.1802C15.9401 91.1802 17.1526 92.3927 17.1526 93.8885L17.1526 101.111C17.1526 107.592 22.4071 112.847 28.8887 112.847L36.111 112.847C37.6067 112.847 38.8193 114.059 38.8193 115.555C38.8193 117.051 37.6067 118.263 36.111 118.263L28.8887 118.263C19.4155 118.263 11.736 110.584 11.736 101.111L11.736 93.8885C11.736 92.3927 12.9485 91.1802 14.4443 91.1802ZM115.555 91.1802C117.051 91.1802 118.264 92.3927 118.264 93.8885L118.264 101.111C118.264 110.584 110.584 118.263 101.111 118.263L93.8887 118.263C92.393 118.263 91.1804 117.051 91.1804 115.555C91.1804 114.059 92.393 112.847 93.8887 112.847L101.111 112.847C107.593 112.847 112.847 107.592 112.847 101.111L112.847 93.8885C112.847 92.3927 114.06 91.1802 115.555 91.1802Z" fill="#121C25"/>
</svg>
