<svg width="20" height="20" viewBox="0 0 20 20" fill="none" xmlns="http://www.w3.org/2000/svg">
<path fill-rule="evenodd" clip-rule="evenodd" d="M12.5833 5.41666C12.5833 5.00245 12.9191 4.66666 13.3333 4.66666H18.3333C18.7475 4.66666 19.0833 5.00245 19.0833 5.41666C19.0833 5.83088 18.7475 6.16666 18.3333 6.16666H13.3333C12.9191 6.16666 12.5833 5.83088 12.5833 5.41666Z" fill="black"/>
<path fill-rule="evenodd" clip-rule="evenodd" d="M0.916668 5.41666C0.916668 5.00245 1.25245 4.66666 1.66667 4.66666H5C5.41421 4.66666 5.75 5.00245 5.75 5.41666C5.75 5.83088 5.41421 6.16666 5 6.16666H1.66667C1.25245 6.16666 0.916668 5.83088 0.916668 5.41666Z" fill="black"/>
<path fill-rule="evenodd" clip-rule="evenodd" d="M8.33333 3.25C7.13672 3.25 6.16667 4.22005 6.16667 5.41667C6.16667 6.61328 7.13672 7.58333 8.33333 7.58333C9.52995 7.58333 10.5 6.61328 10.5 5.41667C10.5 4.22005 9.52995 3.25 8.33333 3.25ZM4.66667 5.41667C4.66667 3.39162 6.30829 1.75 8.33333 1.75C10.3584 1.75 12 3.39162 12 5.41667C12 7.44171 10.3584 9.08333 8.33333 9.08333C6.30829 9.08333 4.66667 7.44171 4.66667 5.41667Z" fill="black"/>
<path fill-rule="evenodd" clip-rule="evenodd" d="M14.25 14.5833C14.25 14.1691 14.5858 13.8333 15 13.8333H18.3333C18.7475 13.8333 19.0833 14.1691 19.0833 14.5833C19.0833 14.9975 18.7475 15.3333 18.3333 15.3333H15C14.5858 15.3333 14.25 14.9975 14.25 14.5833Z" fill="black"/>
<path fill-rule="evenodd" clip-rule="evenodd" d="M0.916668 14.5833C0.916668 14.1691 1.25245 13.8333 1.66667 13.8333H6.66667C7.08088 13.8333 7.41667 14.1691 7.41667 14.5833C7.41667 14.9975 7.08088 15.3333 6.66667 15.3333H1.66667C1.25245 15.3333 0.916668 14.9975 0.916668 14.5833Z" fill="black"/>
<path fill-rule="evenodd" clip-rule="evenodd" d="M11.6667 12.4167C10.47 12.4167 9.5 13.3867 9.5 14.5833C9.5 15.7799 10.47 16.75 11.6667 16.75C12.8633 16.75 13.8333 15.7799 13.8333 14.5833C13.8333 13.3867 12.8633 12.4167 11.6667 12.4167ZM8 14.5833C8 12.5583 9.64162 10.9167 11.6667 10.9167C13.6917 10.9167 15.3333 12.5583 15.3333 14.5833C15.3333 16.6084 13.6917 18.25 11.6667 18.25C9.64162 18.25 8 16.6084 8 14.5833Z" fill="black"/>
</svg>
