<svg width="24" height="24" viewBox="0 0 24 24" fill="none" xmlns="http://www.w3.org/2000/svg">
<path fill-rule="evenodd" clip-rule="evenodd" d="M7.00001 3C7.00001 2.44772 7.44772 2 8.00001 2H9.00001C9.32154 2 9.62346 2.15461 9.8114 2.4155C9.99934 2.67639 10.0504 3.01173 9.94853 3.31672C8.06717 8.95115 8.06717 15.0489 9.94853 20.6833C10.0504 20.9883 9.99934 21.3236 9.8114 21.5845C9.62346 21.8454 9.32154 22 9.00001 22H8.00001C7.44772 22 7.00001 21.5523 7.00001 21C7.00001 20.5662 7.27625 20.1969 7.66243 20.0584C6.16253 14.7922 6.16253 9.20781 7.66243 3.94159C7.27625 3.80312 7.00001 3.43382 7.00001 3Z" fill="#8E9BA8"/>
<path fill-rule="evenodd" clip-rule="evenodd" d="M14.6833 2.05151C15.2071 1.87659 15.7736 2.15946 15.9485 2.68331C17.9672 8.72888 17.9672 15.2712 15.9485 21.3167C15.7736 21.8406 15.2071 22.1235 14.6833 21.9485C14.1594 21.7736 13.8766 21.2072 14.0515 20.6833C15.9328 15.0489 15.9328 8.95118 14.0515 3.31674C13.8766 2.79289 14.1594 2.22642 14.6833 2.05151Z" fill="#8E9BA8"/>
<path fill-rule="evenodd" clip-rule="evenodd" d="M2.4155 14.1886C2.67639 14.0007 3.01173 13.9497 3.31672 14.0515C8.95115 15.9328 15.0489 15.9328 20.6833 14.0515C20.9883 13.9497 21.3236 14.0007 21.5845 14.1886C21.8454 14.3766 22 14.6785 22 15V16C22 16.5523 21.5523 17 21 17C20.5662 17 20.1969 16.7238 20.0584 16.3376C14.7922 17.8375 9.20781 17.8375 3.94159 16.3376C3.80312 16.7238 3.43382 17 3 17C2.44772 17 2 16.5523 2 16V15C2 14.6785 2.15461 14.3766 2.4155 14.1886Z" fill="#8E9BA8"/>
<path fill-rule="evenodd" clip-rule="evenodd" d="M20.6833 9.9485C15.0488 8.06714 8.95115 8.06714 3.31671 9.9485C2.79286 10.1234 2.22639 9.84054 2.05148 9.31669C1.87656 8.79284 2.15943 8.22637 2.68328 8.05145C8.72885 6.03282 15.2711 6.03282 21.3167 8.05145C21.8406 8.22637 22.1234 8.79284 21.9485 9.31669C21.7736 9.84054 21.2071 10.1234 20.6833 9.9485Z" fill="#8E9BA8"/>
<path fill-rule="evenodd" clip-rule="evenodd" d="M12 3C7.02944 3 3 7.02944 3 12C3 16.9706 7.02944 21 12 21C16.9706 21 21 16.9706 21 12C21 7.02944 16.9706 3 12 3ZM1 12C1 5.92487 5.92487 1 12 1C18.0751 1 23 5.92487 23 12C23 18.0751 18.0751 23 12 23C5.92487 23 1 18.0751 1 12Z" fill="#8E9BA8"/>
</svg>
