<svg width="19" height="19" viewBox="0 0 19 19" fill="none" xmlns="http://www.w3.org/2000/svg">
<path fill-rule="evenodd" clip-rule="evenodd" d="M8.79661 0.00135281C9.70685 -0.0199907 10.6646 0.210439 11.4328 0.748172L16.5813 4.35546C16.5817 4.35573 16.5821 4.356 16.5825 4.35628C17.1443 4.74823 17.605 5.34153 17.9239 5.95234C18.243 6.56364 18.4667 7.282 18.4667 7.96881V14.0355C18.4667 16.4561 16.4901 18.4438 14.0583 18.4438H4.40833C1.97517 18.4438 0 16.4548 0 14.0271V7.85215C0 7.20675 0.20237 6.52409 0.489931 5.938C0.77755 5.3518 1.19397 4.77336 1.70515 4.37556L6.19682 0.87556C6.939 0.29831 7.8864 0.0226957 8.79661 0.00135281ZM7.30255 2.2959C7.30246 2.29596 7.30263 2.29583 7.30255 2.2959L2.81152 5.7954C2.57299 5.98092 2.30983 6.31524 2.1059 6.73087C1.9018 7.14687 1.8 7.55588 1.8 7.85215V14.0271C1.8 15.4662 2.97483 16.6438 4.40833 16.6438H14.0583C15.4932 16.6438 16.6667 15.4648 16.6667 14.0355V7.96881C16.6667 7.64729 16.5529 7.21566 16.3282 6.78529C16.1035 6.35486 15.8147 6.01523 15.5521 5.83217L15.5502 5.8309L10.4006 2.22279C10.4004 2.22271 10.4007 2.22286 10.4006 2.22279C10.0021 1.944 9.43882 1.78679 8.83881 1.80086C8.23874 1.81493 7.68536 1.99826 7.30255 2.2959ZM9.23333 10.8105C9.73039 10.8105 10.1333 11.2134 10.1333 11.7105V14.2105C10.1333 14.7075 9.73039 15.1105 9.23333 15.1105C8.73628 15.1105 8.33333 14.7075 8.33333 14.2105V11.7105C8.33333 11.2134 8.73628 10.8105 9.23333 10.8105Z" fill="black"/>
</svg>
