<svg width="22" height="22" viewBox="0 0 22 22" fill="none" xmlns="http://www.w3.org/2000/svg">
<path fill-rule="evenodd" clip-rule="evenodd" d="M0 11C0 4.94772 4.94772 0 11 0C17.0523 0 22 4.94772 22 11C22 17.0523 17.0523 22 11 22C4.94772 22 0 17.0523 0 11ZM11 2C6.05228 2 2 6.05228 2 11C2 15.9477 6.05228 20 11 20C15.9477 20 20 15.9477 20 11C20 6.05228 15.9477 2 11 2Z" fill="white"/>
<path fill-rule="evenodd" clip-rule="evenodd" d="M11 16C11.5523 16 12 15.5523 12 15V10C12 9.44772 11.5523 9 11 9C10.4477 9 10 9.44772 10 10V15C10 15.5523 10.4477 16 11 16Z" fill="white"/>
<path fill-rule="evenodd" clip-rule="evenodd" d="M9.99451 7C9.99451 7.55228 10.4422 8 10.9945 8H11.0035C11.5558 8 12.0035 7.55228 12.0035 7C12.0035 6.44772 11.5558 6 11.0035 6H10.9945C10.4422 6 9.99451 6.44772 9.99451 7Z" fill="white"/>
</svg>
