<svg width="24" height="24" viewBox="0 0 24 24" fill="none" xmlns="http://www.w3.org/2000/svg">
<path d="M20.982 8.29205C20.9399 7.33564 20.7852 6.67812 20.5636 6.10836C20.3351 5.50359 19.9834 4.96213 19.5228 4.51201C19.0726 4.05489 18.5276 3.69969 17.9298 3.4747C17.3568 3.25315 16.7027 3.09848 15.7463 3.05632C14.7827 3.01058 14.4768 3 12.033 3C9.58917 3 9.28328 3.01058 8.3233 3.05274C7.36689 3.09491 6.70937 3.24971 6.13975 3.47113C5.53484 3.69969 4.99338 4.05132 4.54326 4.51201C4.08614 4.96213 3.73108 5.50716 3.50595 6.10493C3.2844 6.67812 3.12973 7.33207 3.08757 8.28848C3.04183 9.25203 3.03125 9.55792 3.03125 12.0018C3.03125 14.4456 3.04183 14.7515 3.08399 15.7115C3.12616 16.6679 3.28096 17.3254 3.50252 17.8952C3.73108 18.4999 4.08614 19.0414 4.54326 19.4915C4.99338 19.9486 5.53841 20.3038 6.13618 20.5288C6.70937 20.7504 7.36332 20.905 8.31987 20.9472C9.27971 20.9895 9.58574 20.9999 12.0296 20.9999C14.4734 20.9999 14.7793 20.9895 15.7393 20.9472C16.6957 20.905 17.3532 20.7504 17.9228 20.5288C19.1325 20.0611 20.0889 19.1047 20.5566 17.8952C20.7781 17.322 20.9329 16.6679 20.975 15.7115C21.0172 14.7515 21.0278 14.4456 21.0278 12.0018C21.0278 9.55792 21.0242 9.25203 20.982 8.29205ZM19.3611 15.6411C19.3224 16.5202 19.1747 16.9949 19.0516 17.3114C18.7492 18.0956 18.1268 18.7179 17.3426 19.0204C17.0262 19.1434 16.548 19.2911 15.6724 19.3297C14.723 19.372 14.4382 19.3824 12.0366 19.3824C9.63491 19.3824 9.3466 19.372 8.40063 19.3297C7.52155 19.2911 7.04685 19.1434 6.73038 19.0204C6.34015 18.8761 5.98495 18.6476 5.69664 18.3487C5.39776 18.0568 5.1692 17.7052 5.02497 17.315C4.9019 16.9985 4.75424 16.5202 4.71565 15.6447C4.67334 14.6953 4.6629 14.4104 4.6629 12.0088C4.6629 9.6071 4.67334 9.31879 4.71565 8.37295C4.75424 7.49387 4.9019 7.01917 5.02497 6.7027C5.1692 6.31234 5.39776 5.95727 5.70021 5.66883C5.99196 5.36994 6.34359 5.14138 6.73395 4.99729C7.05042 4.87422 7.5287 4.72656 8.4042 4.68783C9.35361 4.64566 9.63848 4.63509 12.04 4.63509C14.4453 4.63509 14.73 4.64566 15.676 4.68783C16.555 4.72656 17.0297 4.87422 17.3462 4.99729C17.7364 5.14138 18.0916 5.36994 18.38 5.66883C18.6788 5.96071 18.9074 6.31234 19.0516 6.7027C19.1747 7.01917 19.3224 7.49731 19.3611 8.37295C19.4033 9.32236 19.4138 9.6071 19.4138 12.0088C19.4138 14.4104 19.4033 14.6917 19.3611 15.6411Z" fill="#4489F7"/>
<path d="M12.0341 7.37781C9.48135 7.37781 7.41016 9.44886 7.41016 12.0018C7.41016 14.5547 9.48135 16.6257 12.0341 16.6257C14.587 16.6257 16.6581 14.5547 16.6581 12.0018C16.6581 9.44886 14.587 7.37781 12.0341 7.37781ZM12.0341 15.0012C10.378 15.0012 9.03467 13.658 9.03467 12.0018C9.03467 10.3455 10.378 9.00232 12.0341 9.00232C13.6903 9.00232 15.0335 10.3455 15.0335 12.0018C15.0335 13.658 13.6903 15.0012 12.0341 15.0012Z" fill="#4489F7"/>
<path d="M17.9189 7.19496C17.9189 7.79108 17.4355 8.27444 16.8392 8.27444C16.2431 8.27444 15.7598 7.79108 15.7598 7.19496C15.7598 6.5987 16.2431 6.11548 16.8392 6.11548C17.4355 6.11548 17.9189 6.5987 17.9189 7.19496Z" fill="#4489F7"/>
</svg>
