<svg width="16" height="14" viewBox="0 0 16 14" fill="none" xmlns="http://www.w3.org/2000/svg">
<path fill-rule="evenodd" clip-rule="evenodd" d="M0.75 2.5C0.75 2.08579 1.08579 1.75 1.5 1.75H10.5C10.9142 1.75 11.25 2.08579 11.25 2.5C11.25 2.91421 10.9142 3.25 10.5 3.25H1.5C1.08579 3.25 0.75 2.91421 0.75 2.5Z" fill="#FFE033"/>
<path fill-rule="evenodd" clip-rule="evenodd" d="M6 0.25C6.41421 0.25 6.75 0.585786 6.75 1V2.5C6.75 2.91421 6.41421 3.25 6 3.25C5.58579 3.25 5.25 2.91421 5.25 2.5V1C5.25 0.585786 5.58579 0.25 6 0.25Z" fill="#FFE033"/>
<path fill-rule="evenodd" clip-rule="evenodd" d="M11.5 5.25C11.8 5.25 12.0712 5.4288 12.1894 5.70456L15.1894 12.7046C15.3525 13.0853 15.1762 13.5262 14.7954 13.6894C14.4147 13.8525 13.9738 13.6762 13.8106 13.2954L11.5 7.90394L9.18936 13.2954C9.02619 13.6762 8.58528 13.8525 8.20456 13.6894C7.82384 13.5262 7.64747 13.0853 7.81064 12.7046L10.8106 5.70456C10.9288 5.4288 11.2 5.25 11.5 5.25Z" fill="#FFE033"/>
<path fill-rule="evenodd" clip-rule="evenodd" d="M8.67188 11C8.67188 10.5858 9.00766 10.25 9.42188 10.25H13.5781C13.9923 10.25 14.3281 10.5858 14.3281 11C14.3281 11.4142 13.9923 11.75 13.5781 11.75H9.42188C9.00766 11.75 8.67188 11.4142 8.67188 11Z" fill="#FFE033"/>
<path fill-rule="evenodd" clip-rule="evenodd" d="M8.97834 1.77387C9.37937 1.87754 9.62042 2.28668 9.51675 2.68771L8.79062 2.5C9.51675 2.68771 9.51675 2.68771 9.51675 2.68771L9.51632 2.68937L9.51561 2.69211L9.51333 2.70077L9.50532 2.73053C9.49844 2.75579 9.48847 2.79175 9.47534 2.83751C9.44907 2.92902 9.41008 3.05987 9.35777 3.22285C9.25327 3.54847 9.095 4.00414 8.87793 4.53155C8.4466 5.57953 7.77022 6.94254 6.79958 8.13073C5.8521 9.29059 4.88128 10.1634 4.14622 10.7474C3.77815 11.0398 3.46767 11.261 3.24658 11.4106C3.13599 11.4855 3.04763 11.5426 2.98545 11.5818C2.95435 11.6014 2.92979 11.6165 2.91225 11.6272L2.89127 11.6399L2.88485 11.6437L2.88267 11.645L2.88149 11.6457C2.88149 11.6457 2.88119 11.6459 2.5 11L2.88149 11.6457C2.52477 11.8563 2.06462 11.7379 1.85409 11.3812C1.64374 11.0247 1.7619 10.5654 2.11796 10.3546V10.3546L2.13145 10.3464C2.14272 10.3396 2.16088 10.3284 2.18545 10.3129C2.2346 10.2819 2.30932 10.2337 2.40576 10.1685C2.59874 10.0378 2.8781 9.8391 3.21316 9.57292C3.88434 9.0397 4.7729 8.24066 5.63792 7.18177C6.47978 6.15121 7.08934 4.93609 7.49082 3.96064C7.69016 3.47633 7.83501 3.05895 7.92953 2.76446C7.97674 2.61737 8.01124 2.5014 8.03358 2.42359C8.04474 2.3847 8.05286 2.35539 8.05799 2.33653L8.06346 2.31622L8.0645 2.31229V2.31229C8.16833 1.91149 8.57744 1.67023 8.97834 1.77387Z" fill="#FFE033"/>
<path fill-rule="evenodd" clip-rule="evenodd" d="M3.6574 3.83282C4.0257 3.6437 4.47755 3.78879 4.66692 4.15689V4.15689L4 4.5C4.66718 4.1574 4.66692 4.15689 4.66692 4.15689L4.66748 4.15798L4.67122 4.16515L4.68899 4.19864C4.70539 4.22928 4.73089 4.27626 4.76543 4.33802C4.83452 4.46156 4.93966 4.64402 5.08033 4.87284C5.36188 5.33084 5.78456 5.9726 6.34401 6.69837C6.89443 7.41243 7.42999 7.97017 7.82609 8.34776C8.02385 8.53629 8.18604 8.67913 8.29684 8.77333C8.35221 8.82041 8.39467 8.85527 8.42223 8.87755L8.45212 8.90145L8.4581 8.90616C8.7859 9.1592 8.84679 9.6302 8.59384 9.9581C8.34083 10.2861 7.86986 10.3468 7.5419 10.0938L8 9.5C7.5419 10.0938 7.5419 10.0938 7.5419 10.0938L7.53948 10.092L7.53546 10.0888L7.52275 10.0789C7.51223 10.0706 7.49765 10.0589 7.47926 10.0441C7.44249 10.0144 7.39046 9.97159 7.32523 9.91612C7.19482 9.80524 7.0113 9.6434 6.7911 9.43349C6.35126 9.0142 5.76182 8.40007 5.15599 7.61413C4.55919 6.8399 4.10687 6.15354 3.80248 5.65841C3.65019 5.41067 3.53463 5.21032 3.45625 5.07018C3.41706 5.0001 3.38714 4.94504 3.36656 4.90658L3.34268 4.86155L3.336 4.84874L3.33397 4.84483L3.33329 4.8435C3.33329 4.8435 3.33282 4.8426 4 4.5L3.33282 4.8426C3.14361 4.47413 3.28893 4.02204 3.6574 3.83282Z" fill="#FFE033"/>
</svg>
