<svg width="17" height="17" viewBox="0 0 17 17" fill="none" xmlns="http://www.w3.org/2000/svg">
<path fill-rule="evenodd" clip-rule="evenodd" d="M16.875 5.875C16.875 5.46079 16.5392 5.125 16.125 5.125H11.125C10.7108 5.125 10.375 5.46079 10.375 5.875V15.875C10.375 16.2892 10.7108 16.625 11.125 16.625H16.125C16.5392 16.625 16.875 16.2892 16.875 15.875V5.875ZM15.375 6.625V15.125H11.875V6.625H15.375Z" fill="black"/>
<path fill-rule="evenodd" clip-rule="evenodd" d="M7.16395 1.28417C6.82186 1.74385 6.625 2.33545 6.625 3.0625V5.12443L2.3875 5.125C1.12746 5.125 0.131077 6.25373 0.387856 7.51491L1.38535 14.9867C1.38818 15.0079 1.39191 15.029 1.39654 15.0499C1.60325 15.9821 2.44405 16.625 3.38875 16.625H11.125C11.5392 16.625 11.875 16.2892 11.875 15.875C11.875 15.4608 11.5392 15.125 11.125 15.125H3.38875C3.12832 15.125 2.92461 14.956 2.86689 14.7488L1.8709 7.28825C1.86808 7.26712 1.86436 7.24611 1.85975 7.2253C1.7972 6.94293 2.01661 6.625 2.3875 6.625H7.375C7.78921 6.625 8.125 6.28921 8.125 5.875V3.0625C8.125 2.61767 8.24064 2.34989 8.3673 2.17969C8.49933 2.00227 8.68579 1.87467 8.90728 1.78469C8.97931 1.75543 9.05254 1.73121 9.125 1.71123V1.96875C9.125 3.41487 9.46517 4.60593 9.80612 5.43701C9.97679 5.853 10.1486 6.18118 10.2804 6.40916C10.3464 6.52325 10.4026 6.61259 10.4439 6.67564C10.4645 6.70717 10.4815 6.73216 10.4941 6.75042L10.5098 6.77276L10.515 6.7801L10.517 6.78281L10.5178 6.78392C10.5179 6.78415 10.5184 6.78487 11.125 6.34375L10.5184 6.78487C10.7621 7.11986 11.2311 7.19393 11.5661 6.9503C11.9004 6.70721 11.9749 6.23968 11.7332 5.90484L11.7278 5.89716C11.7221 5.88895 11.7122 5.87442 11.6987 5.85377C11.6716 5.81245 11.6301 5.74676 11.5789 5.65822C11.4764 5.48092 11.3357 5.2134 11.1939 4.86767C10.9098 4.17532 10.625 3.17887 10.625 1.96875V0.874996C10.625 0.478948 10.3171 0.151161 9.92178 0.126456L9.875 0.874996C9.92178 0.126456 9.92215 0.126479 9.92178 0.126456L9.9203 0.126365L9.91858 0.126262L9.91442 0.126026L9.90332 0.12546C9.89471 0.125051 9.88366 0.124595 9.87035 0.124179C9.84375 0.123348 9.80795 0.122672 9.76423 0.122867C9.67707 0.123256 9.55691 0.127114 9.41437 0.140477C9.13358 0.166801 8.74396 0.231986 8.34272 0.39499C7.93921 0.558914 7.50067 0.831706 7.16395 1.28417Z" fill="black"/>
</svg>
