<svg width="18" height="20" viewBox="0 0 18 20" fill="none" xmlns="http://www.w3.org/2000/svg">
<path fill-rule="evenodd" clip-rule="evenodd" d="M9.00001 6.84881C8.03745 6.84881 7.25715 7.62912 7.25715 8.59167C7.25715 9.55422 8.03745 10.3345 9.00001 10.3345C9.96256 10.3345 10.7429 9.55422 10.7429 8.59167C10.7429 7.62912 9.96256 6.84881 9.00001 6.84881ZM5.54286 8.59167C5.54286 6.68234 7.09068 5.13453 9.00001 5.13453C10.9093 5.13453 12.4571 6.68234 12.4571 8.59167C12.4571 10.501 10.9093 12.0488 9.00001 12.0488C7.09068 12.0488 5.54286 10.501 5.54286 8.59167Z" fill="#4489F7"/>
<path fill-rule="evenodd" clip-rule="evenodd" d="M9.00255 2.52381C6.24254 2.52195 3.56848 4.11849 2.85256 7.26469C2.00054 11.0295 4.32924 14.3238 6.58579 16.4988C7.93825 17.7973 10.0628 17.7951 11.4047 16.4999L11.4063 16.4984C13.6712 14.3235 15.9996 11.0372 15.1473 7.27259C14.4352 4.12613 11.7628 2.52568 9.00255 2.52381ZM16.8193 6.89413C15.8981 2.82391 12.4081 0.811828 9.00371 0.809527C5.59927 0.807225 2.10678 2.8147 1.18088 6.88487C0.116603 11.5862 3.05372 15.4756 5.39686 17.7338L5.39795 17.7349C7.41196 19.6691 10.5867 19.6714 12.5946 17.734C14.9463 15.4755 17.8836 11.5956 16.8193 6.89413Z" fill="#4489F7"/>
</svg>
