<svg width="32" height="32" viewBox="0 0 32 32" fill="none" xmlns="http://www.w3.org/2000/svg">
<path d="M28.1082 15.3623C28.1082 16.421 27.25 17.2792 26.1913 17.2792H5.80715C4.74848 17.2792 3.89026 16.421 3.89026 15.3623V15.3623C3.89026 14.3036 4.74848 13.4454 5.80715 13.4454H26.1913C27.25 13.4454 28.1082 14.3036 28.1082 15.3623V15.3623Z" stroke="white" stroke-width="2" stroke-miterlimit="10" stroke-linecap="round" stroke-linejoin="round"/>
<path d="M22.9861 28.5714H9.01412L7.13635 17.2793H24.8638L22.9861 28.5714Z" stroke="white" stroke-width="2" stroke-miterlimit="10" stroke-linejoin="round"/>
<path d="M7.6355 12.9359C7.6355 10.5372 9.58004 8.5927 11.9787 8.5927C14.3774 8.5927 16.3219 10.5372 16.3219 12.9359" stroke="white" stroke-width="2" stroke-miterlimit="10" stroke-linejoin="round"/>
<path d="M13.6176 8.8017V6.84469C14.3284 6.62315 14.8444 5.95995 14.8444 5.17625C14.8444 4.21118 14.0621 3.42889 13.097 3.42889C12.6709 3.42889 12.2805 3.58163 11.9773 3.83509C11.674 3.58163 11.2836 3.42889 10.8575 3.42889C9.89245 3.42889 9.11011 4.21118 9.11011 5.17625C9.11011 5.95995 9.62611 6.62315 10.3369 6.84469V8.8017" stroke="white" stroke-width="2" stroke-miterlimit="10" stroke-linecap="round" stroke-linejoin="round"/>
<path d="M15.6113 11.1434C16.5175 8.92248 19.0525 7.85663 21.2734 8.76281C23.2529 9.57051 24.3148 11.6721 23.8807 13.692" stroke="white" stroke-width="2" stroke-miterlimit="10" stroke-linejoin="round"/>
<path d="M22.7127 9.57582L23.452 7.76383C24.1938 7.82726 24.922 7.40808 25.2181 6.68243C25.5827 5.78893 25.1539 4.76909 24.2604 4.40447C23.8658 4.24344 23.4467 4.23739 23.0701 4.35757C22.8851 4.00829 22.5814 3.71941 22.1868 3.55843C21.2933 3.19381 20.2734 3.62265 19.9088 4.51615C19.6127 5.24179 19.8399 6.05079 20.4144 6.52443L19.675 8.33637" stroke="white" stroke-width="2" stroke-miterlimit="10" stroke-linecap="round" stroke-linejoin="round"/>
<path d="M16.0001 17.2793V28.5714" stroke="white" stroke-width="2" stroke-miterlimit="10" stroke-linejoin="round"/>
<path d="M11.5737 17.2524L12.617 28.5196" stroke="white" stroke-width="2" stroke-miterlimit="10" stroke-linejoin="round"/>
<path d="M20.425 17.2524L19.3817 28.5196" stroke="white" stroke-width="2" stroke-miterlimit="10" stroke-linejoin="round"/>
</svg>
