<svg width="20" height="20" viewBox="0 0 20 20" fill="none" xmlns="http://www.w3.org/2000/svg">
<path fill-rule="evenodd" clip-rule="evenodd" d="M12.5685 1.37905C13.1628 1.18301 13.8182 1.28471 14.3251 1.65128C14.8321 2.0179 15.1338 2.60849 15.1338 3.23415V4.74586H15.2428C15.7518 4.74586 16.1653 5.15876 16.1653 5.66778V17.5988C16.1653 18.1078 15.7524 18.5207 15.2434 18.5207H4.75633C4.24733 18.5207 3.83441 18.1078 3.83441 17.5988V14.2751H5.33441V17.0207H14.6653V6.24586H5.33441V14.2751H3.83441V5.49586C3.83441 5.19251 4.01714 4.91904 4.29739 4.80295L12.5155 1.39877C12.5326 1.39169 12.5509 1.38486 12.5685 1.37905ZM13.0585 2.79743L8.35479 4.74586H13.6338V3.23415C13.6338 3.08983 13.5631 2.95134 13.4461 2.86677C13.3348 2.78628 13.1903 2.76082 13.0585 2.79743Z" fill="#8E9BA8"/>
<path fill-rule="evenodd" clip-rule="evenodd" d="M5.91668 10.9513C5.91668 10.5371 6.25247 10.2013 6.66668 10.2013H13.2829C13.6971 10.2013 14.0329 10.5371 14.0329 10.9513C14.0329 11.3655 13.6971 11.7013 13.2829 11.7013H6.66668C6.25247 11.7013 5.91668 11.3655 5.91668 10.9513Z" fill="#8E9BA8"/>
<path fill-rule="evenodd" clip-rule="evenodd" d="M5.91668 13.3333C5.91668 12.9191 6.25247 12.5833 6.66668 12.5833H10C10.4142 12.5833 10.75 12.9191 10.75 13.3333C10.75 13.7475 10.4142 14.0833 10 14.0833H6.66668C6.25247 14.0833 5.91668 13.7475 5.91668 13.3333Z" fill="#8E9BA8"/>
<path fill-rule="evenodd" clip-rule="evenodd" d="M5.91668 15.4327C5.91668 15.0185 6.25247 14.6827 6.66668 14.6827H13.3533C13.7675 14.6827 14.1033 15.0185 14.1033 15.4327C14.1033 15.847 13.7675 16.1827 13.3533 16.1827H6.66668C6.25247 16.1827 5.91668 15.847 5.91668 15.4327Z" fill="#8E9BA8"/>
<path fill-rule="evenodd" clip-rule="evenodd" d="M10.6463 9.28568C10.3057 9.16713 9.93534 9.16539 9.59367 9.28075L9.56175 9.29152C9.11712 9.44163 8.75599 9.76559 8.5573 10.1844H11.6067C11.4288 9.76512 11.0813 9.4371 10.6463 9.28568ZM9.11386 7.85956C9.77133 7.63759 10.484 7.64092 11.1394 7.86904C12.0782 8.19585 12.8054 8.95016 13.0976 9.90037L13.3479 10.714C13.4178 10.9415 13.3757 11.1886 13.2343 11.3801C13.0928 11.5715 12.869 11.6844 12.631 11.6844H7.50001C7.25842 11.6844 7.03162 11.5681 6.89074 11.3718C6.74985 11.1755 6.71214 10.9234 6.78942 10.6945L7.06041 9.89186C7.38194 8.93951 8.12959 8.19186 9.08194 7.87033L9.11386 7.85956Z" fill="#8E9BA8"/>
<path fill-rule="evenodd" clip-rule="evenodd" d="M9.99999 6.93493C10.4142 6.93493 10.75 7.27072 10.75 7.68493V7.96203C10.75 8.37625 10.4142 8.71203 9.99999 8.71203C9.58578 8.71203 9.24999 8.37625 9.24999 7.96203V7.68493C9.24999 7.27072 9.58578 6.93493 9.99999 6.93493Z" fill="#8E9BA8"/>
</svg>
