<svg width="32" height="32" viewBox="0 0 32 32" fill="none" xmlns="http://www.w3.org/2000/svg">
<path d="M21.204 9.79876C20.9232 7.96766 19.3411 6.56522 17.4315 6.56522C15.8517 6.56522 14.496 7.52503 13.9159 8.89335" stroke="white" stroke-width="2" stroke-miterlimit="10" stroke-linecap="round" stroke-linejoin="round"/>
<path d="M3.61639 16.4554C3.60242 16.3398 3.59543 16.2236 3.59546 16.1072C3.59546 15.1113 4.10357 14.2346 4.87528 13.7217C4.10357 13.2088 3.59546 12.3322 3.59546 11.3362C3.59546 9.75523 4.87707 8.47362 6.45805 8.47362C6.47117 8.47362 6.48489 8.47362 6.49801 8.47422C6.47177 8.31916 6.45805 8.15933 6.45805 7.99652C6.45805 6.41553 7.73966 5.13393 9.32065 5.13393C10.9016 5.13393 12.1832 6.41553 12.1832 7.99652C12.1832 8.15933 12.1695 8.31916 12.1433 8.47422C12.1564 8.47362 12.1701 8.47362 12.1832 8.47362C13.7642 8.47362 15.0458 9.75523 15.0458 11.3362C15.0459 11.4591 15.0381 11.5818 15.0225 11.7036M28.4022 16.4554C28.3345 14.6706 26.8663 13.2446 25.0649 13.2446H25.0591C24.7342 13.2449 24.4428 13.0424 24.3323 12.7369C23.7345 11.0854 22.1517 9.90492 20.2939 9.90492C18.8653 9.90492 17.5995 10.6029 16.8189 11.6763" stroke="white" stroke-width="2" stroke-miterlimit="10" stroke-linecap="round" stroke-linejoin="round"/>
<path d="M20.2801 16.4554C20.2893 16.3405 20.2939 16.2244 20.2939 16.1072C20.2939 13.7358 18.3715 11.8133 16.0001 11.8133C13.6286 11.8133 11.7062 13.7358 11.7062 16.1072C11.7062 16.2244 11.7109 16.3405 11.7201 16.4554M28.8598 20.0042L28.7043 20.5746C28.2519 22.2335 27.5695 23.8132 26.6824 25.2699C25.287 27.5613 22.5995 28.5714 19.9167 28.5714H12.0834C9.40059 28.5714 6.71307 27.5613 5.31769 25.2699C4.43057 23.8132 3.74821 22.2335 3.2958 20.5746L3.16525 20.0961M9.32067 12.2904V16.5843M28.7028 19.924H3.29729C2.37506 19.924 1.62744 19.1764 1.62744 18.2542C1.62744 17.3319 2.37506 16.5843 3.29729 16.5843H28.7028C29.6251 16.5843 30.3727 17.3319 30.3727 18.2542C30.3727 19.1764 29.6251 19.924 28.7028 19.924Z" stroke="white" stroke-width="2" stroke-miterlimit="10" stroke-linecap="round" stroke-linejoin="round"/>
</svg>
