<svg width="19" height="18" viewBox="0 0 19 18" fill="none" xmlns="http://www.w3.org/2000/svg">
<path fill-rule="evenodd" clip-rule="evenodd" d="M4.91666 0.979164C3.01425 0.979164 1.47916 2.51425 1.47916 4.41666V6.5C1.47916 6.67259 1.33925 6.8125 1.16666 6.8125C0.994075 6.8125 0.854164 6.67259 0.854164 6.5V4.41666C0.854164 2.16908 2.66908 0.354164 4.91666 0.354164H7C7.17259 0.354164 7.3125 0.494075 7.3125 0.666664C7.3125 0.839253 7.17259 0.979164 7 0.979164H4.91666Z" fill="#121C25"/>
<path fill-rule="evenodd" clip-rule="evenodd" d="M11.6875 0.666664C11.6875 0.494075 11.8274 0.354164 12 0.354164H14.0833C16.3309 0.354164 18.1458 2.16908 18.1458 4.41666V6.5C18.1458 6.67259 18.0059 6.8125 17.8333 6.8125C17.6607 6.8125 17.5208 6.67259 17.5208 6.5V4.41666C17.5208 2.51425 15.9857 0.979164 14.0833 0.979164H12C11.8274 0.979164 11.6875 0.839253 11.6875 0.666664Z" fill="#121C25"/>
<path fill-rule="evenodd" clip-rule="evenodd" d="M17.8333 12.0208C18.0059 12.0208 18.1458 12.1607 18.1458 12.3333V13.5833C18.1458 15.8309 16.3309 17.6458 14.0833 17.6458H12.8333C12.6607 17.6458 12.5208 17.5059 12.5208 17.3333C12.5208 17.1607 12.6607 17.0208 12.8333 17.0208H14.0833C15.9857 17.0208 17.5208 15.4857 17.5208 13.5833V12.3333C17.5208 12.1607 17.6607 12.0208 17.8333 12.0208Z" fill="#101010"/>
<path fill-rule="evenodd" clip-rule="evenodd" d="M1.16666 11.1875C1.33925 11.1875 1.47916 11.3274 1.47916 11.5V13.5833C1.47916 15.4857 3.01425 17.0208 4.91666 17.0208H7C7.17259 17.0208 7.3125 17.1607 7.3125 17.3333C7.3125 17.5059 7.17259 17.6458 7 17.6458H4.91666C2.66908 17.6458 0.854164 15.8309 0.854164 13.5833V11.5C0.854164 11.3274 0.994075 11.1875 1.16666 11.1875Z" fill="#101010"/>
<path fill-rule="evenodd" clip-rule="evenodd" d="M4.61681 4.1168C4.48775 4.24586 4.39584 4.46484 4.39584 4.83333V6.5C4.39584 6.86849 4.48775 7.08747 4.61681 7.21653C4.74587 7.34559 4.96484 7.4375 5.33334 7.4375H7C7.3685 7.4375 7.58747 7.34559 7.71653 7.21653C7.84559 7.08747 7.9375 6.86849 7.9375 6.5V4.83333C7.9375 4.46484 7.84559 4.24586 7.71653 4.1168C7.58747 3.98774 7.3685 3.89583 7 3.89583H5.33334C4.96484 3.89583 4.74587 3.98774 4.61681 4.1168ZM4.17487 3.67486C4.46247 3.38725 4.8685 3.27083 5.33334 3.27083H7C7.46484 3.27083 7.87087 3.38725 8.15847 3.67486C8.44608 3.96247 8.5625 4.3685 8.5625 4.83333V6.5C8.5625 6.96484 8.44608 7.37086 8.15847 7.65847C7.87087 7.94608 7.46484 8.0625 7 8.0625H5.33334C4.8685 8.0625 4.46247 7.94608 4.17487 7.65847C3.88726 7.37086 3.77084 6.96484 3.77084 6.5V4.83333C3.77084 4.3685 3.88726 3.96247 4.17487 3.67486Z" fill="#101010"/>
<path fill-rule="evenodd" clip-rule="evenodd" d="M11.2835 4.1168C11.1544 4.24586 11.0625 4.46484 11.0625 4.83333V6.5C11.0625 6.86849 11.1544 7.08747 11.2835 7.21653C11.4125 7.34559 11.6315 7.4375 12 7.4375H13.6667C14.0352 7.4375 14.2541 7.34559 14.3832 7.21653C14.5123 7.08747 14.6042 6.86849 14.6042 6.5V4.83333C14.6042 4.46484 14.5123 4.24586 14.3832 4.1168C14.2541 3.98774 14.0352 3.89583 13.6667 3.89583H12C11.6315 3.89583 11.4125 3.98774 11.2835 4.1168ZM10.8415 3.67486C11.1291 3.38725 11.5352 3.27083 12 3.27083H13.6667C14.1315 3.27083 14.5375 3.38725 14.8251 3.67486C15.1127 3.96247 15.2292 4.3685 15.2292 4.83333V6.5C15.2292 6.96484 15.1127 7.37086 14.8251 7.65847C14.5375 7.94608 14.1315 8.0625 13.6667 8.0625H12C11.5352 8.0625 11.1291 7.94608 10.8415 7.65847C10.5539 7.37086 10.4375 6.96484 10.4375 6.5V4.83333C10.4375 4.3685 10.5539 3.96247 10.8415 3.67486Z" fill="#101010"/>
<path fill-rule="evenodd" clip-rule="evenodd" d="M4.61681 10.7835C4.48775 10.9125 4.39584 11.1315 4.39584 11.5V13.1667C4.39584 13.5352 4.48775 13.7541 4.61681 13.8832C4.74587 14.0123 4.96484 14.1042 5.33334 14.1042H7C7.3685 14.1042 7.58747 14.0123 7.71653 13.8832C7.84559 13.7541 7.9375 13.5352 7.9375 13.1667V11.5C7.9375 11.1315 7.84559 10.9125 7.71653 10.7835C7.58747 10.6544 7.3685 10.5625 7 10.5625H5.33334C4.96484 10.5625 4.74587 10.6544 4.61681 10.7835ZM4.17486 10.3415C4.46247 10.0539 4.8685 9.9375 5.33334 9.9375H7C7.46484 9.9375 7.87087 10.0539 8.15847 10.3415C8.44608 10.6291 8.5625 11.0352 8.5625 11.5V13.1667C8.5625 13.6315 8.44608 14.0375 8.15847 14.3251C7.87087 14.6127 7.46484 14.7292 7 14.7292H5.33334C4.8685 14.7292 4.46247 14.6127 4.17486 14.3251C3.88726 14.0375 3.77084 13.6315 3.77084 13.1667V11.5C3.77084 11.0352 3.88726 10.6291 4.17486 10.3415Z" fill="#101010"/>
<path fill-rule="evenodd" clip-rule="evenodd" d="M11.2835 10.7835C11.1544 10.9125 11.0625 11.1315 11.0625 11.5V13.1667C11.0625 13.5352 11.1544 13.7541 11.2835 13.8832C11.4125 14.0123 11.6315 14.1042 12 14.1042H13.6667C14.0352 14.1042 14.2541 14.0123 14.3832 13.8832C14.5123 13.7541 14.6042 13.5352 14.6042 13.1667V11.5C14.6042 11.1315 14.5123 10.9125 14.3832 10.7835C14.2541 10.6544 14.0352 10.5625 13.6667 10.5625H12C11.6315 10.5625 11.4125 10.6544 11.2835 10.7835ZM10.8415 10.3415C11.1291 10.0539 11.5352 9.9375 12 9.9375H13.6667C14.1315 9.9375 14.5375 10.0539 14.8251 10.3415C15.1127 10.6291 15.2292 11.0352 15.2292 11.5V13.1667C15.2292 13.6315 15.1127 14.0375 14.8251 14.3251C14.5375 14.6127 14.1315 14.7292 13.6667 14.7292H12C11.5352 14.7292 11.1291 14.6127 10.8415 14.3251C10.5539 14.0375 10.4375 13.6315 10.4375 13.1667V11.5C10.4375 11.0352 10.5539 10.6291 10.8415 10.3415Z" fill="#101010"/>
</svg>
