<svg width="15" height="15" viewBox="0 0 15 15" fill="none" xmlns="http://www.w3.org/2000/svg">
<path fill-rule="evenodd" clip-rule="evenodd" d="M7.08333 1.5C3.99974 1.5 1.5 3.99974 1.5 7.08333C1.5 10.1669 3.99974 12.6667 7.08333 12.6667C10.1669 12.6667 12.6667 10.1669 12.6667 7.08333C12.6667 3.99974 10.1669 1.5 7.08333 1.5ZM0 7.08333C0 3.17132 3.17132 0 7.08333 0C10.9954 0 14.1667 3.17132 14.1667 7.08333C14.1667 10.9954 10.9954 14.1667 7.08333 14.1667C3.17132 14.1667 0 10.9954 0 7.08333Z" fill="#8E9BA8"/>
<path fill-rule="evenodd" clip-rule="evenodd" d="M12.2196 12.2197C12.5125 11.9268 12.9873 11.9268 13.2802 12.2197L14.6136 13.553C14.9065 13.8459 14.9065 14.3208 14.6136 14.6137C14.3207 14.9066 13.8458 14.9066 13.5529 14.6137L12.2196 13.2803C11.9267 12.9874 11.9267 12.5126 12.2196 12.2197Z" fill="#8E9BA8"/>
</svg>
