<svg width="19" height="20" viewBox="0 0 19 20" fill="none" xmlns="http://www.w3.org/2000/svg">
<path fill-rule="evenodd" clip-rule="evenodd" d="M0.916656 1.66667C0.916656 1.25246 1.25244 0.916672 1.66666 0.916672H3.11666C4.13174 0.916672 4.98171 1.57734 5.28573 2.475H15.6083C17.433 2.475 18.8296 3.96723 18.698 5.78742L18.2481 12.0372L18.2478 12.0409C18.1263 13.6195 16.754 14.9083 15.1583 14.9083H6.28332C4.48001 14.9083 3.0571 13.3685 3.21099 11.5701C3.21102 11.5698 3.21096 11.5705 3.21099 11.5701L3.90258 3.27105C3.94088 2.81579 3.57658 2.41667 3.11666 2.41667H1.66666C1.25244 2.41667 0.916656 2.08089 0.916656 1.66667ZM5.34912 3.975L4.70573 11.6956L4.70557 11.6975C4.62674 12.6154 5.35362 13.4083 6.28332 13.4083H15.1583C15.9621 13.4083 16.6893 12.7314 16.7521 11.9275C16.7521 11.9269 16.7522 11.9264 16.7522 11.9258L17.2019 5.67948C17.2703 4.733 16.567 3.975 15.6083 3.975H5.34912Z" fill="#8E9BA8"/>
<path fill-rule="evenodd" clip-rule="evenodd" d="M13.5417 17C13.3806 17 13.25 17.1306 13.25 17.2917C13.25 17.4528 13.3806 17.5833 13.5417 17.5833C13.7027 17.5833 13.8333 17.4528 13.8333 17.2917C13.8333 17.1306 13.7027 17 13.5417 17ZM11.75 17.2917C11.75 16.3022 12.5522 15.5 13.5417 15.5C14.5312 15.5 15.3333 16.3022 15.3333 17.2917C15.3333 18.2812 14.5312 19.0833 13.5417 19.0833C12.5522 19.0833 11.75 18.2812 11.75 17.2917Z" fill="#8E9BA8"/>
<path fill-rule="evenodd" clip-rule="evenodd" d="M6.87498 17C6.7139 17 6.58331 17.1306 6.58331 17.2917C6.58331 17.4528 6.7139 17.5833 6.87498 17.5833C7.03606 17.5833 7.16665 17.4528 7.16665 17.2917C7.16665 17.1306 7.03606 17 6.87498 17ZM5.08331 17.2917C5.08331 16.3022 5.88547 15.5 6.87498 15.5C7.86449 15.5 8.66665 16.3022 8.66665 17.2917C8.66665 18.2812 7.86449 19.0833 6.87498 19.0833C5.88547 19.0833 5.08331 18.2812 5.08331 17.2917Z" fill="#8E9BA8"/>
<path fill-rule="evenodd" clip-rule="evenodd" d="M6.75 6.66667C6.75 6.25246 7.08579 5.91667 7.5 5.91667H17.5C17.9142 5.91667 18.25 6.25246 18.25 6.66667C18.25 7.08089 17.9142 7.41667 17.5 7.41667H7.5C7.08579 7.41667 6.75 7.08089 6.75 6.66667Z" fill="#8E9BA8"/>
</svg>
