<svg width="32" height="32" viewBox="0 0 32 32" fill="none" xmlns="http://www.w3.org/2000/svg">
<path d="M25.1429 15.8367C25.1429 14.021 23.671 12.5492 21.8554 12.5492C21.437 12.5492 21.0374 12.6281 20.6693 12.7706C19.9281 10.9052 18.108 9.58577 15.9786 9.58577C13.8492 9.58577 12.0291 10.9052 11.2879 12.7706C10.9198 12.6281 10.5202 12.5492 10.1018 12.5492C8.28622 12.5492 6.81433 14.021 6.81433 15.8367C6.81433 16.125 6.85173 16.4046 6.9215 16.6711L8.66655 30.262H23.2906L25.0357 16.6711C25.1055 16.4046 25.1429 16.125 25.1429 15.8367Z" stroke="white" stroke-width="2" stroke-miterlimit="10" stroke-linecap="round" stroke-linejoin="round"/>
<path d="M8.05823 13.5345V6.2747C8.05823 5.18122 8.94467 4.29477 10.0382 4.29477V4.29477C11.1316 4.29477 12.0181 5.18122 12.0181 6.2747V11.6967" stroke="white" stroke-width="2" stroke-miterlimit="10" stroke-linejoin="round"/>
<path d="M12.0201 11.2158V6.27437C12.0201 5.18088 12.9066 4.29444 14.0001 4.29444V4.29444C15.0936 4.29444 15.98 5.18089 15.98 6.27437V9.58569" stroke="white" stroke-width="2" stroke-miterlimit="10" stroke-linejoin="round"/>
<path d="M15.9788 9.58561V3.71785C15.9788 2.62436 16.8652 1.73792 17.9587 1.73792V1.73792C19.0522 1.73792 19.9386 2.62436 19.9386 3.71785V11.6963" stroke="white" stroke-width="2" stroke-miterlimit="10" stroke-linejoin="round"/>
<path d="M19.9386 11.2161V6.27464C19.9386 5.18116 20.825 4.29471 21.9185 4.29471V4.29471C23.012 4.29471 23.8985 5.18116 23.8985 6.27465V13.5345" stroke="white" stroke-width="2" stroke-miterlimit="10" stroke-linejoin="round"/>
<path d="M18.6122 19.4029C18.6122 20.8573 17.4332 22.0363 15.9788 22.0363C14.5243 22.0363 13.3453 20.8573 13.3453 19.4029C13.3453 17.9485 14.5243 16.7695 15.9788 16.7695C17.4332 16.7695 18.6122 17.9485 18.6122 19.4029Z" stroke="white" stroke-width="2" stroke-miterlimit="10" stroke-linecap="round" stroke-linejoin="round"/>
<path d="M18.6122 18.545H24.6182" stroke="white" stroke-width="2" stroke-miterlimit="10" stroke-linecap="round" stroke-linejoin="round"/>
<path d="M7.34033 18.545H13.3463" stroke="white" stroke-width="2" stroke-miterlimit="10" stroke-linecap="round" stroke-linejoin="round"/>
<path d="M13.9282 25.8239H18.0309" stroke="white" stroke-width="2" stroke-miterlimit="10" stroke-linecap="round" stroke-linejoin="round"/>
</svg>
