<svg width="10" height="10" viewBox="0 0 10 10" fill="none" xmlns="http://www.w3.org/2000/svg">
<path d="M5.80727 1.03817L6.62835 2.68033C6.74032 2.90893 7.03889 3.12819 7.29081 3.17018L8.77902 3.41744C9.73073 3.57606 9.95466 4.26651 9.26887 4.94764L8.1119 6.10461C7.91596 6.30055 7.80866 6.67844 7.8693 6.94902L8.20054 8.38125C8.46179 9.5149 7.85997 9.95343 6.85695 9.36095L5.46204 8.5352C5.21012 8.38591 4.79491 8.38591 4.53833 8.5352L3.14342 9.36095C2.14506 9.95343 1.53858 9.51024 1.79983 8.38125L2.13107 6.94902C2.19171 6.67844 2.08441 6.30055 1.88847 6.10461L0.731496 4.94764C0.0503719 4.26651 0.269638 3.57606 1.22135 3.41744L2.70956 3.17018C2.95681 3.12819 3.25539 2.90893 3.36735 2.68033L4.18843 1.03817C4.6363 0.147108 5.36407 0.147108 5.80727 1.03817Z" fill="white"/>
</svg>
