<svg width="19" height="15" viewBox="0 0 19 15" fill="none" xmlns="http://www.w3.org/2000/svg">
<path d="M2.13264 6.66652C6.86783 4.71057 10.0254 3.42109 11.6052 2.79807C16.1161 1.01924 17.0534 0.71024 17.6644 0.699928C17.7987 0.697793 18.0992 0.729364 18.2938 0.879081C18.4581 1.0055 18.5033 1.17627 18.525 1.29613C18.5466 1.41599 18.5736 1.68903 18.5521 1.90237C18.3077 4.33746 17.25 10.2468 16.7119 12.9741C16.4842 14.1281 16.0358 14.5151 15.6018 14.553C14.6585 14.6353 13.9423 13.9619 13.0287 13.3942C11.5991 12.5057 10.7914 11.9526 9.40375 11.0856C7.80005 10.0837 8.83966 9.53297 9.75361 8.63298C9.99279 8.39745 14.1488 4.81344 14.2293 4.48831C14.2393 4.44765 14.2487 4.29608 14.1537 4.21604C14.0587 4.13601 13.9186 4.16338 13.8174 4.18514C13.674 4.216 11.3902 5.64715 6.96597 8.4786C6.31772 8.90063 5.73055 9.10626 5.20447 9.09549C4.62451 9.08361 3.5089 8.78459 2.67955 8.529C1.66233 8.2155 0.853857 8.04976 0.924256 7.51735C0.960925 7.24003 1.36372 6.95643 2.13264 6.66652Z" fill="#4489F7"/>
</svg>
