<svg width="14" height="16" viewBox="0 0 14 16" fill="none" xmlns="http://www.w3.org/2000/svg">
<path fill-rule="evenodd" clip-rule="evenodd" d="M2.28573 3.10702C3.63028 2.97124 4.97507 2.90333 6.32 2.90333C8.57205 2.90333 10.8301 3.01795 13.074 3.24032C13.4862 3.28117 13.7872 3.64843 13.7463 4.06063C13.7055 4.47282 13.3382 4.77386 12.926 4.73301C10.7299 4.51538 8.52129 4.40333 6.32 4.40333C5.0253 4.40333 3.73046 4.46872 2.43537 4.59953L2.43318 4.59976L2.43318 4.59975L1.07318 4.73309C0.660942 4.7735 0.293995 4.47208 0.25358 4.05984C0.213164 3.64761 0.514585 3.28066 0.926822 3.24024L2.28573 3.10702Z" fill="#E52E30"/>
<path fill-rule="evenodd" clip-rule="evenodd" d="M5.55292 2.56456L5.40631 3.43755C5.33771 3.84604 4.95095 4.12158 4.54245 4.05297C4.13396 3.98437 3.85842 3.59761 3.92703 3.18912L4.07369 2.31578C4.07651 2.29906 4.07948 2.28088 4.08255 2.26206C4.12659 1.99205 4.20408 1.517 4.52498 1.15311C4.91196 0.714282 5.48443 0.583332 6.12667 0.583332H7.87333C8.52681 0.583332 9.09772 0.726231 9.48146 1.16844C9.80168 1.53746 9.87703 2.01225 9.91927 2.27836C9.9218 2.29428 9.92421 2.30946 9.92654 2.32382L10.0728 3.18819C10.1419 3.59659 9.86688 3.9837 9.45848 4.05282C9.05007 4.12193 8.66296 3.84688 8.59385 3.43848L8.44643 2.56736C8.41991 2.40473 8.40263 2.30739 8.37912 2.22875C8.36529 2.18246 8.3543 2.16122 8.34979 2.1537C8.32034 2.13531 8.20298 2.08333 7.87333 2.08333H6.12667C5.80323 2.08333 5.68198 2.13046 5.64862 2.14874C5.64376 2.15804 5.63465 2.17821 5.62337 2.21577C5.59936 2.29564 5.58142 2.39533 5.55292 2.56456ZM5.63816 2.15585C5.63793 2.15571 5.6397 2.15405 5.64414 2.15133C5.6406 2.15464 5.63838 2.156 5.63816 2.15585ZM8.35789 2.16004C8.35763 2.16022 8.35525 2.15865 8.35152 2.1548C8.35629 2.15794 8.35816 2.15986 8.35789 2.16004Z" fill="#E52E30"/>
<path fill-rule="evenodd" clip-rule="evenodd" d="M11.615 5.34489C12.0283 5.37157 12.3418 5.72829 12.3151 6.14164L11.8815 12.8591L11.8802 12.8781C11.8629 13.1245 11.8427 13.4142 11.7877 13.6869C11.7298 13.9744 11.6244 14.2958 11.4015 14.586C10.9286 15.2016 10.1456 15.4167 9.14 15.4167H4.86C3.85444 15.4167 3.07137 15.2016 2.59854 14.586C2.3756 14.2958 2.27016 13.9744 2.21226 13.6869C2.15734 13.4142 2.13707 13.1245 2.11983 12.8781L2.11821 12.855L1.68489 6.14164C1.65821 5.72829 1.97167 5.37157 2.38502 5.34489C2.79838 5.31821 3.1551 5.63167 3.18178 6.04502L3.61498 12.7563C3.63403 13.0281 3.64916 13.224 3.68274 13.3908C3.71485 13.5502 3.7544 13.6284 3.78813 13.6723C3.82863 13.725 4.00557 13.9167 4.86 13.9167H9.14C9.99444 13.9167 10.1714 13.725 10.2119 13.6723C10.2456 13.6284 10.2852 13.5502 10.3173 13.3908C10.3508 13.224 10.366 13.0281 10.385 12.7563C10.3851 12.7556 10.3851 12.7549 10.3852 12.7542L10.8182 6.04502C10.8449 5.63167 11.2016 5.31821 11.615 5.34489Z" fill="#E52E30"/>
<path fill-rule="evenodd" clip-rule="evenodd" d="M5.13667 11C5.13667 10.5858 5.47245 10.25 5.88667 10.25H8.10667C8.52088 10.25 8.85667 10.5858 8.85667 11C8.85667 11.4142 8.52088 11.75 8.10667 11.75H5.88667C5.47245 11.75 5.13667 11.4142 5.13667 11Z" fill="#E52E30"/>
<path fill-rule="evenodd" clip-rule="evenodd" d="M4.58334 8.33333C4.58334 7.91912 4.91912 7.58333 5.33334 7.58333H8.66667C9.08088 7.58333 9.41667 7.91912 9.41667 8.33333C9.41667 8.74755 9.08088 9.08333 8.66667 9.08333H5.33334C4.91912 9.08333 4.58334 8.74755 4.58334 8.33333Z" fill="#E52E30"/>
</svg>
