<svg width="18" height="14" viewBox="0 0 18 14" fill="none" xmlns="http://www.w3.org/2000/svg">
<path d="M17.3787 2.61233C17.1582 1.82483 16.6069 1.26233 15.8352 1.03733C14.5122 0.699829 8.88943 0.699829 8.88943 0.699829C8.88943 0.699829 3.37694 0.699829 1.94369 1.03733C1.17194 1.26233 0.620684 1.82483 0.400184 2.61233C0.179684 4.07483 0.179688 6.99983 0.179688 6.99983C0.179688 6.99983 0.179691 9.92483 0.510441 11.3873C0.730941 12.1748 1.28218 12.7373 2.05393 12.9623C3.37693 13.2998 8.99969 13.2998 8.99969 13.2998C8.99969 13.2998 14.5122 13.2998 15.9454 12.9623C16.7172 12.7373 17.2684 12.1748 17.4889 11.3873C17.8197 9.92483 17.8197 6.99983 17.8197 6.99983C17.8197 6.99983 17.8197 4.07483 17.3787 2.61233ZM7.23568 9.69983V4.29983L11.8662 6.99983L7.23568 9.69983Z" fill="#4489F7"/>
</svg>
