<svg width="476" height="411" viewBox="0 0 476 411" fill="none" xmlns="http://www.w3.org/2000/svg">
<path d="M423.022 224.932C416.933 209.769 410.844 194.605 404.734 179.442C402.994 175.137 401.318 170.789 399.515 166.505C399.282 165.932 398.603 165.529 397.988 165.572C397.521 165.423 397.012 165.551 396.63 166.06C387.359 178.699 378.088 191.339 368.838 204C366.271 207.5 363.682 210.999 361.2 214.562C360.776 215.092 359.8 216.98 361.306 217.149C376.984 218.994 392.62 221.327 408.15 224.169C412.584 224.975 417.018 225.823 421.452 226.735C422.47 226.947 423.425 225.908 423.022 224.932Z" fill="#4489F7"/>
<path d="M284.697 235.451C284.654 235.6 284.633 235.727 284.591 235.876C283.997 235.642 283.275 235.748 283 236.406C281.981 238.781 281.578 241.517 280.963 244.019C280.624 245.419 280.263 246.798 279.923 248.197C277.993 252.693 275.723 257.041 272.71 260.88C268.594 266.118 263.248 270.041 256.841 271.992C253.15 273.116 249.14 273.774 245.151 273.816C244.918 273.456 244.579 273.18 244.154 273.116C234.841 271.568 226.524 265.482 222.536 256.893C222.26 256.299 221.793 256.023 221.284 256.023C220.69 254.242 220.16 252.439 219.757 250.594C219.184 248.091 218.738 245.568 218.462 243.023C218.187 240.414 218.25 237.763 217.996 235.155C217.911 234.285 217.296 233.882 216.68 233.882C216.723 232.143 216.999 230.404 216.977 228.665C216.956 227.202 214.835 226.905 214.432 228.326C213.944 230.001 213.944 231.931 213.901 233.67C213.859 235.536 213.944 237.403 214.135 239.269C214.241 240.329 214.389 241.39 214.58 242.45C214.771 248.855 215.874 255.281 218.632 261.113C219.205 262.343 219.863 263.531 220.605 264.655C220.86 265.079 221.114 265.503 221.39 265.906C222.027 267.708 222.812 269.448 223.851 271.059C226.206 274.686 229.601 277.358 233.568 279.012C234.544 279.415 235.435 278.673 235.711 277.782C238.914 279.118 242.309 279.945 245.788 280.2C259.026 281.218 271.819 274.241 279.032 263.297C283 257.274 285.27 250.254 285.843 243.086C286.543 240.69 287.094 238.251 287.264 235.833C287.37 234.306 285.079 234.052 284.697 235.451Z" fill="#4489F7"/>
<path d="M424.273 268.048C407.916 280.03 393.744 295.236 382.245 311.884C379.084 316.465 376.008 321.173 373.356 326.094C365.697 323.846 359.057 318.48 355.429 311.269C353.541 307.516 352.586 303.529 352.374 299.414C355.408 294.112 358.654 288.98 362.112 284.06C366.016 278.503 370.301 273.074 374.799 267.942C377.069 265.355 379.424 262.81 381.8 260.371C383.052 259.077 384.219 257.911 385.385 256.787L385.513 256.659C386.595 255.599 387.846 254.411 389.331 254.03C390.18 253.817 391.071 253.945 391.686 254.348C392.132 254.645 392.408 255.069 392.493 255.599C392.726 257.02 392.047 258.653 391.432 260.074C391.326 260.349 391.22 260.604 391.114 260.837C389.459 264.994 387.231 268.79 385.491 271.632C385.046 272.353 385.343 273.032 385.831 273.35C386.382 273.732 387.274 273.732 387.804 273.011C389.947 270.105 391.814 266.733 393.49 262.704C393.575 262.513 393.638 262.322 393.723 262.131C394.932 259.268 396.608 255.344 394.211 252.672C391.941 250.149 388.101 250.848 385.47 252.863C383.052 254.708 380.888 257.041 378.787 259.289C378.342 259.756 377.918 260.222 377.493 260.689C373.356 265.079 369.41 269.681 365.676 274.453C364.722 266.881 359.078 260.625 353.647 255.535C350.422 252.503 347.007 249.576 344.355 246.013C342.042 242.895 340.409 239.396 339.369 235.664C335.062 220.352 339.496 203.831 334.171 188.688C331.583 181.308 326.64 175.667 320.424 171.043C314.441 166.59 307.758 163.175 301.86 158.594C298.996 156.368 296.281 153.823 294.18 150.854C291.762 147.439 290.107 143.558 288.707 139.635C285.906 131.682 283.912 123.22 278.757 116.349C273.877 109.859 267.003 104.96 259.217 102.648C250.837 100.167 241.609 100.803 233.589 104.218C231.85 104.96 230.174 105.829 228.561 106.826C228.455 106.784 228.349 106.741 228.243 106.72C221.603 105.469 215.089 108.247 210.316 112.807C205.097 117.791 202.36 124.768 200.578 131.639C198.711 138.85 197.799 146.294 195.38 153.356C193.301 159.443 189.843 164.617 185.367 169.177C177.178 177.554 166.909 183.747 159.738 193.121C155.962 198.062 153.841 203.597 152.356 209.599C150.913 215.389 149.873 221.9 145.948 226.629C141.324 232.228 133.898 233.437 127.364 235.6C120.893 237.742 114.041 241.538 112.343 248.706C112.131 249.618 112.025 250.509 112.046 251.421C110.667 249.915 109.267 248.431 107.888 246.946C107.485 246.522 107.082 246.077 106.658 245.589C104.303 242.98 101.63 240.011 98.0653 239.502C96.0075 239.205 93.992 239.757 92.6766 240.966C91.1916 242.323 90.6824 244.507 91.234 246.946C91.8068 249.406 93.207 251.782 94.2041 253.351C95.5831 255.535 97.1743 257.423 98.8927 258.992C99.5292 259.565 100.314 259.395 100.76 258.929C101.184 258.483 101.354 257.741 100.76 257.126C97.4501 253.69 95.3073 250.445 94.2041 247.201C93.4828 245.059 93.7162 243.553 94.883 242.789C96.1984 241.92 97.9381 242.196 99.02 242.705C100.675 243.468 101.969 244.825 103.221 246.14L103.327 246.246C104.748 247.731 106.254 249.321 107.909 251.103C110.837 254.242 113.765 257.444 116.629 260.668C126.876 272.141 136.762 284.145 146.076 296.424C145.418 302.362 144.782 308.321 144.188 314.26C143.424 321.852 142.893 329.678 140.114 336.867C138.863 340.133 136.932 343.548 134.386 346.199C131.713 340.176 128.425 334.386 125.051 328.723C121.593 322.891 117.902 317.208 113.998 311.672C106.212 300.644 97.5562 290.231 88.1365 280.561C82.8327 275.131 77.3167 269.787 71.4188 264.994C70.1035 263.934 68.2365 265.715 69.5306 266.881C74.5163 271.399 79.5019 275.874 84.2329 280.645C88.9639 285.417 93.504 290.38 97.832 295.512C103.199 301.853 108.249 308.47 112.98 315.32C112.704 315.469 112.471 315.723 112.343 316.105C109.734 323.634 107.485 331.905 109.288 339.879C109.861 342.381 110.922 344.799 112.386 346.898C115.653 353.918 134.874 372.157 151.401 372.624C157.129 372.793 162.539 371.457 167.503 369.103C167.97 368.87 168.479 368.743 169.01 368.721C169.073 368.721 169.158 368.7 169.222 368.7C172.913 368.021 175.968 369.803 179.002 371.669C181.93 373.472 184.9 375.041 188.294 375.741C191.583 376.42 194.935 376.42 198.223 375.784C199.708 375.508 201.151 375.041 202.551 374.49C203.4 374.15 204.461 373.769 205.352 373.239C205.479 376.292 205.585 379.346 205.733 382.4C205.818 384.139 208.385 384.161 208.449 382.4C208.746 373.281 208.067 364.098 207.134 355.021C206.221 346.177 204.906 337.397 203.188 328.702C202.148 323.485 201.045 318.247 199.602 313.114C199.539 312.902 199.454 312.733 199.348 312.605C200.281 311.863 201.342 311.248 202.572 310.739C204.121 310.124 203.548 307.728 201.872 308.194C198.138 309.233 194.68 312.351 193.407 316.041C192.919 317.462 195.105 318.374 195.826 317.059C196.25 316.253 196.717 315.532 197.226 314.854C197.947 318.013 198.648 321.173 199.305 324.355C199.263 324.418 199.242 324.482 199.199 324.545C192.919 338.118 186.279 352.625 173.995 361.892C168.416 366.092 161.796 369.209 154.753 369.76C147.115 370.376 139.584 368.021 133.113 364.056C128.318 361.129 124.16 357.354 120.426 353.176C121.339 353.473 122.272 353.706 123.248 353.833C130.779 354.767 137.123 348.956 140.623 342.89C144.697 335.849 145.842 327.684 146.67 319.71C147.349 313.114 148.006 306.519 148.622 299.902C148.94 300.326 149.279 300.772 149.598 301.196C152.271 304.78 154.817 308.385 157.829 312.648L159.611 315.172C161.924 318.459 164.3 321.852 166.697 325.139C166.994 325.542 167.397 325.712 167.8 325.712C168.097 325.712 168.373 325.627 168.607 325.457C169.094 325.139 169.391 324.482 168.946 323.761C166.718 320.155 164.151 316.338 161.139 312.075C163.091 306.243 164.427 300.157 165.721 294.261C166.612 290.168 167.546 285.947 168.67 281.854C171.662 271.017 175.586 263.297 181.06 257.614C186.173 252.291 192.941 249.449 199.475 246.692C201.703 245.759 203.994 244.783 206.2 243.744C214.559 239.757 220.881 233.882 225.018 226.247C229.283 218.358 230.874 209.324 229.495 200.713C231.34 201.922 233.292 202.919 235.329 203.682C240.972 205.782 246.997 205.845 252.28 203.894C256.099 202.473 259.663 200.119 262.739 196.981C262.548 206.927 262.888 217.276 267.491 226.311C269.613 230.468 272.668 234.009 276.466 236.745C280.093 239.333 284.294 241.072 288.495 242.535C292.801 244.019 297.214 245.207 301.521 246.713C305.87 248.219 308.395 250.042 312.298 252.481C320.169 257.402 323.797 264.973 328.634 272.883C334.087 281.833 343.506 304.865 344.906 307.261C344.906 307.282 341.618 314.175 341.618 314.175C340.939 315.659 340.303 317.165 339.666 318.671C339.369 319.392 339.836 320.028 340.451 320.283C340.642 320.368 340.875 320.41 341.066 320.41C341.512 320.41 341.957 320.198 342.148 319.71C344.503 314.238 347.092 308.915 349.871 303.741C351.335 312.054 356.151 319.753 363.109 324.63C367.925 328.002 373.738 329.996 379.594 330.356C383.264 330.59 387.38 330.166 390.71 328.426C381.1 341.257 370.704 354.851 355.047 360.365C347.473 363.038 339.157 363.631 331.562 360.726C324.37 357.99 318.451 352.391 314.144 346.135C308.437 337.822 305.212 328.172 301.966 318.713C301.924 318.607 301.882 318.522 301.839 318.438C302.37 315.935 302.942 313.454 303.558 310.951C303.939 311.418 304.3 311.927 304.64 312.457C305.552 313.878 307.652 312.648 306.888 311.142C305.552 308.47 302.773 305.819 299.802 305.119C298.423 304.801 297.469 306.752 298.805 307.473C299.633 307.94 300.481 308.322 301.266 308.83C298.699 317.462 297.257 326.539 296.429 335.467C295.644 344.014 295.602 352.582 296.26 361.129C296.62 365.964 297.087 370.906 298.169 375.635C298.508 377.141 301.118 376.844 300.927 375.253C300.757 373.832 300.566 372.411 300.375 370.991C304.788 367.088 310.707 367.428 316.287 367.767C322.121 368.127 328.825 368.403 333.641 364.459C333.683 364.416 333.726 364.395 333.768 364.353C339.857 365.943 346.307 365.752 352.48 364.119C360.903 361.892 368.413 357.227 374.82 351.416C382.373 344.544 394.975 324.758 395.463 323.909C397.224 320.877 397.224 317.059 396.12 313.793C394.975 310.442 392.832 307.706 390.498 305.119C391.092 304.356 391.686 303.592 392.302 302.829C398.581 294.982 405.476 287.644 412.902 280.879C417.06 277.104 421.388 273.52 425.801 270.041C427.074 269.236 425.504 267.157 424.273 268.048ZM169.731 195.072C166.909 197.596 164.851 200.713 163.472 204.212C160.714 211.147 160.269 218.719 158.062 225.823C156.217 231.804 152.78 238.187 146.903 241.05C145.354 241.793 144.06 239.651 145.545 238.739C148.6 236.872 150.977 234.306 152.737 231.189C156.323 224.805 157.023 217.361 158.656 210.363C160.142 204.106 162.603 197.341 167.843 193.227C169.158 192.188 171.025 193.927 169.731 195.072ZM183.181 180.523C181.081 182.877 178.811 185.083 176.626 187.352C175.395 188.625 173.486 186.695 174.695 185.422C176.881 183.153 179.002 180.799 181.272 178.615C182.545 177.406 184.327 179.23 183.181 180.523ZM190.777 172.358C190.246 172.973 189.673 173.525 189.122 174.076C188.591 174.606 187.743 174.564 187.212 174.076C186.682 173.588 186.703 172.655 187.212 172.167C187.785 171.595 188.337 171.022 188.931 170.513C189.482 170.025 190.225 170.004 190.777 170.513C191.307 171.001 191.222 171.828 190.777 172.358ZM250.307 104.324C253.914 103.263 258.114 104.409 260.809 106.975C262.06 108.184 260.236 109.901 258.942 108.841C256.65 106.975 253.892 106.36 251.028 106.869C249.352 107.144 248.652 104.812 250.307 104.324ZM259.493 132.615C259.154 133.251 258.305 133.421 257.69 133.082C256.969 132.679 256.29 132.212 255.611 131.745C255.017 131.321 254.783 130.621 255.144 129.964C255.484 129.349 256.332 129.158 256.926 129.497C257.648 129.922 258.348 130.324 259.005 130.833C259.599 131.236 259.854 131.915 259.493 132.615ZM238.999 119.827C240.315 121.269 241.63 122.626 243.242 123.708C244.855 124.789 246.594 125.574 248.419 126.231C250.031 126.804 249.395 129.243 247.719 128.798C243.539 127.695 239.445 124.938 236.899 121.438C236.008 120.208 238.002 118.745 238.999 119.827ZM208.194 123.474C209.404 120.399 211.249 117.642 213.583 115.288C215.832 113.04 218.696 110.898 221.751 109.859C223.194 109.371 224.085 111.577 222.769 112.298C220.139 113.719 217.699 115.097 215.556 117.26C213.477 119.36 211.865 121.82 210.613 124.492C209.955 125.828 207.664 124.853 208.194 123.474ZM281.6 169.368C281.154 171.765 280.518 174.437 278.587 175.73C276.869 176.854 275.129 176.324 273.792 175.667C273.877 175.285 273.941 174.903 274.005 174.543C274.153 173.588 273.538 172.91 272.859 172.74C272.222 172.57 271.416 172.825 271.119 173.758C270.737 174.882 270.398 176.027 270.059 177.151C269.549 178.827 269.04 180.545 268.404 182.199C267.343 184.892 266.07 187.437 264.606 189.728C261.657 194.308 257.796 197.893 253.404 200.056C242.882 205.252 231.637 200.225 225.167 192.909C221.496 188.773 218.696 183.471 216.638 176.748C216.447 176.155 215.959 175.794 215.365 175.794C214.771 175.794 214.262 176.133 214.05 176.621C213.753 176.727 213.52 176.939 213.329 177.194C213.244 177.3 213.18 177.406 213.116 177.512C212.756 178.084 212.48 178.487 211.759 178.551C210.74 178.657 209.786 177.957 209.17 177.363C207.876 176.112 206.815 174.182 206.03 171.616C205.245 168.986 205.012 166.866 205.352 165.126C205.479 164.49 205.818 163.324 206.794 162.857C207.176 162.666 207.579 162.645 207.919 162.794C208.067 163.663 208.258 164.405 208.534 165.042C208.873 165.848 209.828 166.166 210.507 166.017C211.165 165.869 211.525 165.339 211.462 164.617C211.398 163.812 211.271 163.006 211.143 162.242C211.016 161.436 210.868 160.609 210.825 159.803C210.719 158.213 210.761 156.58 210.931 154.968C211.271 151.787 212.204 148.584 213.626 145.721C215.62 141.734 218.781 138.68 221.857 135.732C223.724 133.93 225.655 132.085 227.309 130.028C229.176 127.716 230.449 125.489 231.213 123.22C232.019 124.471 232.995 125.638 234.077 126.74C237.981 130.6 242.988 132.7 246.913 134.121C248.567 134.715 250.265 135.245 252.047 135.817C259.854 138.277 267.937 140.844 272.116 148.075C273.326 150.175 274.153 152.55 274.471 154.968C274.768 157.237 274.514 159.358 274.238 161.627C274.196 161.967 274.153 162.327 274.111 162.688C274.068 163.133 274.238 163.536 274.599 163.833C275.023 164.172 275.659 164.299 276.147 164.13C276.656 164.151 277.102 163.918 277.314 163.472L277.335 163.409C277.823 162.412 278.396 161.309 279.415 160.864C279.881 160.652 280.327 160.63 280.709 160.8C281.091 160.97 281.409 161.309 281.6 161.818C282.003 162.815 282.003 163.96 282.003 165.063V165.169C281.96 166.632 281.833 168.032 281.6 169.368ZM328.613 216.852C326.704 204.234 329.928 188.858 319.215 179.336C317.92 178.169 319.787 176.388 321.103 177.448C326.004 181.435 328.486 187.713 329.589 193.778C330.947 201.265 330.565 208.942 331.244 216.492C331.392 218.019 328.846 218.358 328.613 216.852ZM331.519 234.709C330.735 231.507 330.034 228.177 329.631 224.911C329.44 223.406 331.817 223.193 332.198 224.572C333.026 227.626 333.62 230.871 334.087 234.009C334.32 235.642 331.944 236.406 331.519 234.709ZM344.673 254.432C343.506 253.139 345.225 251.527 346.54 252.566C348.98 254.475 351.038 257.126 352.841 259.628C354.687 262.195 356.257 264.952 357.402 267.899C357.954 269.32 355.641 270.254 354.984 268.917C353.647 266.245 352.247 263.637 350.528 261.198C348.789 258.716 346.688 256.659 344.673 254.432Z" fill="#121C25"/>
<path d="M246.169 176.939C242.201 178.212 242.541 172.634 242.71 170.238C242.986 166.293 243.729 162.454 244.429 158.573C244.683 157.152 242.647 156.537 242.244 157.979C241.565 160.397 241.183 162.921 240.843 165.402C240.504 167.905 240.207 170.45 240.207 172.952C240.207 174.967 240.631 177.151 242.286 178.466C243.686 179.59 245.787 180.057 247.229 178.806C248.078 178.063 247.187 176.6 246.169 176.939Z" fill="#121C25"/>
<path d="M256.139 180.926C253.996 180.969 251.896 181.902 250.22 183.217C248.671 184.426 246.974 186.419 246.677 188.434C246.507 189.579 248.056 190.512 248.714 189.282C249.562 187.67 250.199 186.249 251.663 185.062C253.084 183.938 254.696 183.45 256.457 183.196C257.751 183.026 257.412 180.905 256.139 180.926Z" fill="#121C25"/>
<path d="M227.903 159.782C226.927 159.019 225.421 159.337 224.827 160.418C224.53 160.991 224.53 161.691 224.806 162.285L224.848 162.56C224.933 162.878 225.103 163.154 225.336 163.387C225.464 163.493 225.591 163.578 225.718 163.684C226.015 163.854 226.333 163.939 226.652 163.939C226.906 163.939 227.14 163.896 227.373 163.769C227.606 163.684 227.797 163.557 227.967 163.387C228.158 163.218 228.285 163.027 228.349 162.794C228.412 162.666 228.455 162.539 228.476 162.412C228.943 161.542 228.688 160.376 227.903 159.782Z" fill="#121C25"/>
<path d="M261.762 158.51C260.701 158.192 259.64 158.828 259.322 159.846C259.173 160.312 259.195 160.821 259.364 161.288C259.386 161.479 259.428 161.67 259.513 161.839C259.555 162.009 259.64 162.136 259.746 162.263C259.874 162.476 260.065 162.624 260.277 162.751C260.425 162.815 260.574 162.878 260.722 162.942C260.892 162.963 261.062 162.984 261.231 163.006C261.486 163.006 261.741 162.963 261.953 162.836C262.186 162.751 262.398 162.624 262.568 162.454C262.632 162.391 262.674 162.327 262.738 162.242C262.801 162.179 262.865 162.115 262.886 162.03C263.013 161.839 263.077 161.648 263.098 161.436C263.204 161.203 263.268 160.949 263.289 160.694C263.374 159.718 262.674 158.785 261.762 158.51Z" fill="#121C25"/>
<path d="M280.261 246.755C275.064 256.893 267.32 266.372 256.033 269.851C250.56 271.526 244.62 271.759 239.125 270.105C233.545 268.43 228.899 264.718 225.696 259.883C221.58 253.648 220.01 246.204 219.713 238.845C219.649 237.106 216.934 237.084 216.997 238.845C217.188 245.907 218.546 253.075 222.025 259.31C225.101 264.824 229.748 269.384 235.603 271.844C247.42 276.807 260.913 273.074 270.29 264.909C275.53 260.349 279.795 254.454 282.574 248.091C283.232 246.564 281.068 245.207 280.261 246.755Z" fill="#121C25"/>
<path d="M241.035 277.506C236.261 277.528 231.572 276.213 227.711 273.35C224.062 270.635 221.792 266.903 220.222 262.703C219.628 261.113 217.252 261.707 217.655 263.403C218.801 268.217 222.153 272.607 226.035 275.555C230.278 278.758 235.731 280.497 241.035 280.136C242.732 280.051 242.753 277.485 241.035 277.506Z" fill="#121C25"/>
<path d="M432.824 259.374C432.357 256.617 429.684 254.835 427.032 254.56C423.871 254.22 420.88 255.938 418.355 257.656C413.306 261.113 408.766 265.842 406.008 271.356C405.265 272.841 407.365 274.113 408.256 272.671C410.972 268.239 414.176 264.23 418.355 261.07C420.37 259.544 422.683 257.868 425.229 257.402C427.287 257.02 429.705 257.868 430.193 260.095C430.554 261.855 433.121 261.092 432.824 259.374Z" fill="#121C25"/>
<path d="M424.184 251.124C422.911 248.367 419.495 247.625 416.801 248.388C413.809 249.237 411.094 251.421 408.802 253.415C406.469 255.429 404.411 257.741 402.629 260.265C400.868 262.767 399.171 265.609 398.301 268.578C397.876 269.978 400.04 270.953 400.698 269.596C401.865 267.221 402.905 264.867 404.368 262.64C405.811 260.455 407.508 258.441 409.418 256.638C411.285 254.857 413.342 253.202 415.613 251.951C417.522 250.891 420.598 250.106 421.85 252.524C422.656 254.072 424.905 252.693 424.184 251.124Z" fill="#121C25"/>
<path d="M409.061 242.556C406.006 242.577 404.139 245.377 402.548 247.603C398.963 252.63 396.141 258.165 393.977 263.955C393.362 265.566 395.929 266.224 396.544 264.655C398.22 260.413 400.236 256.299 402.654 252.418C403.821 250.551 405.031 248.643 406.473 246.988C407.11 246.246 407.895 245.462 408.913 245.355C409.422 245.313 410.504 245.695 410.165 246.437C409.465 247.985 411.565 249.3 412.477 247.794C413.962 245.313 411.692 242.535 409.061 242.556Z" fill="#121C25"/>
<path d="M400.787 276.382C394.189 275.895 387.039 279.882 383.793 285.587C382.945 287.092 385.13 288.323 386.085 286.923C389.5 281.875 394.719 279.203 400.787 279.097C402.569 279.076 402.527 276.51 400.787 276.382Z" fill="#121C25"/>
<path d="M231.17 143.749C226.99 142.795 222.153 145.382 220.074 148.945C219.204 150.451 221.411 151.681 222.365 150.281C223.299 148.945 224.55 147.842 226.057 147.163C227.627 146.442 229.112 146.485 230.788 146.506C232.379 146.57 232.761 144.11 231.17 143.749Z" fill="#121C25"/>
<path d="M265.833 148.945C264.051 149.348 262.311 149.39 260.677 148.457C259.171 147.588 258.492 146.315 257.707 144.831C256.965 143.431 255.034 144.449 255.289 145.849C255.692 148.012 257.622 150.048 259.532 151.044C261.802 152.232 264.517 152.423 266.872 151.384C268.315 150.769 267.233 148.627 265.833 148.945Z" fill="#121C25"/>
<path d="M78.5889 257.911C74.2609 253.817 68.4267 251.378 62.5076 250.954C59.686 250.742 56.5037 251.272 55.5702 254.39C54.7852 256.977 56.5461 260.095 59.3677 260.286C60.6194 260.371 61.1498 258.441 60.0254 257.889C59.2617 257.508 58.4979 257.189 58.2221 256.32C57.9675 255.535 58.3282 254.623 58.9859 254.157C59.8133 253.563 61.0225 253.669 61.9984 253.711C63.0804 253.775 64.1624 253.902 65.2232 254.114C69.5087 254.984 73.3911 256.977 76.6583 259.84C77.9736 260.986 79.8618 259.119 78.5889 257.911Z" fill="#121C25"/>
<path d="M81.9852 252.015C80.8183 249.449 78.5907 247.264 76.3843 245.589C74.1143 243.871 71.4835 242.599 68.7043 241.92C65.9039 241.22 62.2549 240.796 60.1333 243.235C58.2664 245.398 59.1574 249.046 62.1912 249.364C63.7187 249.534 63.9097 247.179 62.5519 246.755C61.8518 246.543 61.682 245.843 62.0639 245.25C62.5943 244.401 63.6975 244.168 64.631 244.147C66.7101 244.104 68.8953 244.719 70.7834 245.525C72.5867 246.31 74.3052 247.37 75.7903 248.685C77.3602 250.064 78.5058 251.675 79.6939 253.372C80.6698 254.772 82.6853 253.563 81.9852 252.015Z" fill="#121C25"/>
<path d="M89.3926 247.879C87.6529 242.853 84.3645 238.399 80.1427 235.176C78.106 233.628 75.4965 232.461 72.9719 233.585C70.6806 234.582 69.4926 237.657 71.3171 239.651C72.3566 240.796 73.8841 239.333 73.3113 238.102C72.5051 236.3 74.754 235.685 76.0905 236.067C77.8514 236.575 79.3789 238.039 80.6519 239.269C83.3674 241.899 85.4041 245.101 86.7831 248.6C87.3983 250.212 89.9654 249.576 89.3926 247.879Z" fill="#121C25"/>
<path d="M100.824 270.211C98.8508 267.772 95.7746 266.097 92.7408 265.376C90.2161 264.761 86.1428 264.294 84.7001 267.072C84.0637 268.302 85.7185 269.787 86.7368 268.642C88.1582 267.009 91.0223 267.73 92.8256 268.281C95.223 269.023 97.1536 270.423 98.9569 272.12C100.209 273.307 101.885 271.526 100.824 270.211Z" fill="#121C25"/>
<path d="M350.527 101.036C348.745 100.4 347.006 99.9761 345.351 98.9793C343.717 97.9826 342.508 96.6889 341.235 95.2892C340.471 94.4409 339.389 94.759 339.008 95.5013C338.859 95.5861 338.71 95.7345 338.562 95.9042C334.722 101.376 330.882 106.847 327.042 112.319C325.133 115.034 323.244 117.727 321.356 120.442C319.426 123.199 317.325 125.744 315.565 128.776C315.395 129.052 315.458 129.794 315.501 130.24C315.989 134.121 320.826 136.92 324.051 136.411C324.857 136.284 325.239 135.563 325.642 135.096C326.045 134.63 329.588 130.155 331.54 127.673C333.682 124.959 335.825 122.265 337.968 119.551C342.211 114.185 346.433 108.82 350.676 103.454C350.676 103.454 350.676 103.433 350.697 103.433C351.525 102.839 351.758 101.461 350.527 101.036ZM333.025 113.04C330.415 116.751 327.488 120.272 324.666 123.814C323.669 125.065 321.568 123.708 322.566 122.435C325.345 118.83 328.039 115.14 331.009 111.704C332.006 110.58 333.958 111.746 333.025 113.04ZM338.774 104.96C338.074 105.978 337.374 106.975 336.589 107.929C336.186 108.438 335.528 108.65 334.934 108.268C334.383 107.908 334.255 107.166 334.595 106.614C335.252 105.575 335.995 104.599 336.759 103.624C337.162 103.115 337.862 102.903 338.435 103.285C338.965 103.645 339.135 104.43 338.774 104.96Z" fill="#121C25"/>
<path d="M386.552 50.6468C376.39 38.5159 359.376 36.7345 345.479 42.7575C334.914 47.3384 329.504 63.6472 331.414 74.8237C333.493 87.0394 342.934 96.6041 354.963 99.3611C360.945 100.74 367.119 100.421 372.89 98.2371C378.469 96.1163 383.328 92.2141 386.892 87.4635C394.975 76.7112 395.357 61.1446 386.552 50.6468ZM334.172 58.6845C335.699 54.7187 337.842 50.8589 340.77 47.7413C341.703 46.7445 343.4 48.2291 342.573 49.3107C340.133 52.4919 337.99 55.7367 336.527 59.4904C335.975 60.9962 333.599 60.1903 334.172 58.6845ZM382.225 80.1468C377.769 87.9937 369.283 92.9563 360.203 92.1716C351.186 91.3869 343.018 85.5124 339.942 76.902C336.442 67.1252 339.879 54.2521 349.638 49.4591C349.913 49.3319 350.062 49.2683 350.444 49.0986C352.523 48.1655 359.991 46.8506 364.934 47.4868C369.623 48.1018 374.184 50.0105 377.79 53.0857C385.619 59.7237 387.231 71.3456 382.225 80.1468Z" fill="#121C25"/>
<path d="M412.711 212.208C409.444 204.318 405.795 196.599 402.549 188.688C399.303 180.778 396.248 172.804 393.405 164.766C393.066 163.812 391.751 163.515 391.072 164.321C381.695 175.603 372.339 186.907 363.004 198.211C360.373 201.413 357.721 204.594 355.09 207.796C354.454 208.56 354.772 209.96 355.875 210.108C371.681 211.974 387.338 214.965 402.761 218.952C404.353 219.355 404.819 216.873 403.249 216.449C388.696 212.462 373.845 209.536 358.867 207.648C367.671 197.002 376.454 186.377 385.259 175.73C387.401 173.143 389.523 170.556 391.645 167.968C394.296 175.306 397.076 182.602 400.025 189.812C403.271 197.723 406.517 205.761 410.441 213.353C411.12 214.604 413.263 213.523 412.711 212.208Z" fill="#121C25"/>
<path d="M392.769 184.871C392.939 183.301 393.087 181.647 392.451 180.226C391.899 178.996 390.796 178.148 389.502 178.254C388.144 178.36 387.062 179.442 386.341 180.672C384.898 183.174 384.113 186.292 384.113 189.176C384.113 192.463 384.686 195.814 385.004 197.447C385.28 198.847 387.38 199.25 388.165 198.041C388.929 196.811 390.987 192.591 391.836 189.621C392.281 188.073 392.599 186.483 392.769 184.871Z" fill="#121C25"/>
<path d="M386.696 202.261C386.102 201.986 385.444 201.964 384.85 202.176C384.744 202.176 384.617 202.198 384.511 202.219C382.835 202.685 382.262 204.933 383.238 206.27C384.277 207.691 386.399 207.839 387.566 206.482C388.754 205.167 388.33 203.046 386.696 202.261Z" fill="#121C25"/>
<path d="M271.885 151.999C271.736 151.087 270.909 150.832 270.187 151.044C266.666 151.023 263.123 151.32 259.601 151.426C255.952 151.532 252.303 151.596 248.654 151.617C245.578 151.638 230.918 151.49 227.184 151.363C223.047 151.235 218.91 151.044 214.773 150.832C213.712 150.79 213.309 151.744 213.521 152.55C211.718 159.231 214.815 166.59 221.031 169.771C227.247 172.973 235.415 171.298 239.001 165.02C240.847 161.797 240.889 158.001 240.571 154.395C242.31 154.417 244.05 154.417 245.79 154.395C245.196 161.182 248.06 168.711 254.509 171.765C257.543 173.185 261.15 173.44 264.29 172.167C267.535 170.853 269.721 168.159 270.972 164.957C272.521 161.033 272.564 156.134 271.885 151.999ZM236.243 164.151C234.312 167.12 230.833 168.711 227.354 168.605C223.683 168.499 220.204 166.569 218.082 163.6C216.003 160.694 215.367 157.089 216.109 153.653C223.323 154.077 230.536 154.311 237.749 154.395C238.025 157.725 238.152 161.224 236.243 164.151ZM268.702 162.497C268.045 165.042 266.687 167.544 264.353 168.901C259.368 171.849 253.342 168.901 250.648 164.321C248.866 161.309 248.42 157.831 248.569 154.395C251.688 154.374 254.806 154.332 257.925 154.247C261.616 154.162 265.393 154.183 269.084 153.886C269.127 156.771 269.445 159.612 268.702 162.497Z" fill="#4489F7"/>
<path d="M138.44 271.505C136.106 269.363 132.287 269.214 129.975 271.441C128.871 272.501 130.293 274.41 131.629 273.583C133.412 272.459 135.639 272.289 136.997 274.177C138.482 276.234 137.124 278.843 136.106 280.794C134.154 284.526 131.651 287.962 128.68 290.952C122.825 296.89 115.315 301.111 107.168 302.913C104.771 303.444 101.885 303.995 99.6154 302.723C97.9606 301.789 97.0271 299.605 98.1303 297.951C98.9577 296.721 97.0271 295.194 96.0512 296.36C94.4388 298.269 94.5661 300.92 95.9027 302.956C97.409 305.246 99.9761 306.201 102.649 306.285C105.344 306.37 108.123 305.692 110.69 304.971C113.236 304.228 115.739 303.253 118.115 302.086C127.28 297.59 135.406 289.765 139.522 280.327C140.816 277.337 141.028 273.859 138.44 271.505Z" fill="#5DC08D"/>
<path d="M387.57 313.963C386.339 317.42 381.205 315.893 378.765 315.087C375.689 314.048 372.782 312.542 370.131 310.654C364.954 306.964 360.775 301.705 358.504 295.745C357.083 292.013 355.959 287.389 359.056 284.166C360.265 282.914 358.462 281.154 357.168 282.278C353.667 285.269 353.88 290.422 355.068 294.452C356.171 298.142 357.932 301.662 360.202 304.78C364.721 310.972 371.085 315.829 378.426 318.183C380.781 318.947 383.348 319.54 385.809 318.947C387.994 318.416 389.776 316.911 390.54 314.79C391.197 312.902 388.227 312.096 387.57 313.963Z" fill="#5DC08D"/>
<path d="M369.072 58.2816C367.799 58.2392 366.802 59.4268 365.911 60.1903C364.957 60.9962 364.023 61.8233 363.111 62.6716C361.88 63.7744 360.692 64.8985 359.504 66.0649C358.486 65.0045 357.467 63.9653 356.449 62.9261C354.943 61.3992 353.33 59.6813 351.506 58.5573C350.191 57.7514 349.087 59.5117 349.703 60.6145C350.233 61.5688 351.039 62.3959 351.739 63.223C352.461 64.0926 353.224 64.9197 354.009 65.7468C354.943 66.7647 355.898 67.7615 356.852 68.7583C355.558 70.1156 354.285 71.4941 353.055 72.915C352.248 73.8269 351.506 74.7813 350.763 75.7568C350.042 76.7324 349.13 77.8352 348.875 79.044C348.684 79.9772 349.681 81.0376 350.636 80.571C351.739 80.062 352.524 79.1077 353.33 78.2381C354.115 77.3898 354.879 76.5415 355.643 75.672C356.895 74.2511 358.168 72.8514 359.483 71.4941C362.199 74.3147 364.893 77.1353 367.608 79.9348C368.33 80.677 369.666 80.4862 370.303 79.7439C371.024 78.9168 370.833 77.7928 370.112 77.0505C367.46 74.2935 364.808 71.5365 362.156 68.7795C363.323 67.6343 364.511 66.5102 365.72 65.4074C366.548 64.6652 367.375 63.9229 368.224 63.2018C369.2 62.3747 370.621 61.59 370.833 60.2327C370.982 59.1087 370.175 58.324 369.072 58.2816Z" fill="#EE5253"/>
<path d="M230.24 175.667C229.455 174.437 227.864 174.097 226.528 173.928C224.597 173.694 219.548 173.885 219.59 176.748C219.611 177.724 220.375 178.975 221.542 179.442C222.9 179.993 224.448 180.163 225.912 180.078C227.185 180.014 228.755 179.887 229.773 179.039C230.792 178.19 230.983 176.791 230.24 175.667Z" fill="#FD9459"/>
<path d="M266.814 175.667C266.029 174.437 264.438 174.097 263.102 173.928C261.171 173.694 256.122 173.885 256.164 176.748C256.186 177.724 256.949 178.975 258.116 179.442C259.474 179.993 261.023 180.163 262.486 180.078C263.759 180.014 265.329 179.887 266.348 179.039C267.345 178.19 267.536 176.791 266.814 175.667Z" fill="#FD9459"/>
<path d="M218.124 195.348C217.721 197.977 215.748 200.204 212.862 199.801C209.998 199.398 208.747 196.684 208.237 194.139C207.007 188.137 208.428 181.69 211.547 176.473C212.438 174.967 210.126 173.61 209.213 175.094C206.031 180.248 204.567 186.483 205.225 192.527C205.522 195.241 206.158 198.041 208.004 200.162C209.807 202.219 212.777 203.067 215.408 202.367C218.4 201.583 220.648 198.762 220.733 195.687C220.754 194.245 218.357 193.842 218.124 195.348Z" fill="#F3C63E"/>
<path d="M277.272 173.588C276.593 172.252 274.217 173.206 274.811 174.627C277.166 180.226 278.227 186.207 277.23 192.251C276.848 194.542 276.338 197.829 274.132 199.144C271.565 200.649 268.913 198.486 268.934 195.793C268.956 193.99 266.367 194.075 266.198 195.793C265.837 199.334 268.828 202.41 272.329 202.452C276.148 202.494 278.396 199.271 279.33 195.962C281.409 188.709 280.624 180.332 277.272 173.588Z" fill="#F3C63E"/>
<path d="M190.584 103.112C184.912 81.5143 179.24 59.9168 173.59 38.2978C171.988 32.1735 170.386 26.0275 168.784 19.9032C168.611 19.254 167.832 18.951 167.247 18.9943C153.219 20.0547 139.212 21.721 125.314 23.9717C111.416 26.2223 97.6257 29.0789 83.9655 32.5414C76.237 34.489 68.5518 36.6315 60.9099 38.947C60.3471 39.1201 59.8925 39.8992 60.0224 40.4835C63.8974 58.1639 67.7075 75.866 71.561 93.5465C72.665 98.6104 73.7691 103.653 74.8732 108.717C75.2629 110.426 77.9906 110.123 77.6225 108.37C73.8774 90.6683 69.9806 72.9878 66.1705 55.2857C66.0839 54.8529 65.9973 54.4417 65.8891 54.0089C92.4301 48.3391 118.906 42.4528 145.425 36.6531C153.002 34.9868 160.601 33.3204 168.178 31.6757C168.394 31.6325 168.589 31.5459 168.762 31.416C173.503 49.5726 178.223 67.7291 182.964 85.8857C184.393 91.3391 185.8 96.8142 187.229 102.268C173.828 103.133 160.449 104.388 147.136 106.012C133.237 107.721 119.382 109.842 105.592 112.374C97.8205 113.802 90.0487 115.339 82.3635 117.178C80.6533 117.589 80.9131 120.316 82.7099 119.97C96.4567 117.243 110.182 114.516 124.037 112.352C137.87 110.188 151.79 108.414 165.732 107.072C173.612 106.314 181.492 105.687 189.372 105.189C190.454 105.146 190.822 103.999 190.584 103.112ZM167.832 28.8192C141.009 34.7487 114.187 40.5917 87.3427 46.478C80.0039 48.101 72.6434 49.6808 65.3046 51.3471C64.5902 48.0145 63.8541 44.6602 63.1397 41.3275C76.1937 37.4322 89.3776 34.0346 102.713 31.1996C116.352 28.3214 130.12 26.0059 143.953 24.2963C151.379 23.3657 158.847 22.6299 166.316 22.0456C166.901 24.2963 167.485 26.5469 168.091 28.8192C168.005 28.7759 167.918 28.7975 167.832 28.8192Z" fill="#121C25"/>
<path d="M108.258 73.3557C107.11 73.3557 105.963 73.399 104.816 73.5072C104.707 72.858 104.578 72.1871 104.469 71.5379C104.123 69.5686 103.885 67.5344 103.344 65.63C102.867 63.9204 100.573 64.5047 100.724 66.1927C100.897 68.1836 101.352 70.1745 101.698 72.1438C101.807 72.7065 101.893 73.2908 102.001 73.8535C100.724 74.0482 99.4685 74.2863 98.2346 74.5892C96.5893 74.9788 94.9873 75.4982 93.407 76.0824C91.8916 76.6451 90.4628 77.4242 88.969 78.0085C89.034 77.857 89.0989 77.7271 89.1639 77.5757C89.5102 76.7966 89.8566 76.0175 90.203 75.2385C90.9607 73.5505 91.7184 71.8625 92.4761 70.1745C93.9265 66.9284 95.5285 63.7256 96.7841 60.3929C97.3253 58.9863 95.0955 57.861 94.3811 59.246C92.4761 62.8816 90.939 66.7337 89.2505 70.4559C88.4278 72.2737 87.6052 74.0915 86.7825 75.9093C86.1114 77.4242 85.1372 79.48 86.9557 80.6486C88.3196 81.5359 89.8566 80.7136 91.1339 80.1076C92.8657 79.2853 94.6409 78.5928 96.4594 78.0301C98.4294 77.4242 100.443 76.9697 102.478 76.6884C102.543 77.0996 102.629 77.4891 102.694 77.9003C103.365 81.774 103.842 85.7342 104.816 89.543C105.249 91.2742 107.652 90.6899 107.478 88.9803C107.089 85.085 106.158 81.168 105.465 77.316C105.4 77.013 105.357 76.6884 105.292 76.3854C106.223 76.3205 107.132 76.2772 108.063 76.2556C109.903 76.169 110.098 73.3557 108.258 73.3557Z" fill="#121C25"/>
<path d="M163.482 61.6265C162.335 61.6265 161.187 61.6698 160.04 61.778C159.932 61.1287 159.802 60.4579 159.694 59.8087C159.347 57.8394 159.109 55.8051 158.568 53.9007C158.092 52.1911 155.797 52.7754 155.949 54.4634C156.122 56.4544 156.576 58.4453 156.923 60.4146C157.031 60.9773 157.118 61.5616 157.226 62.1242C155.949 62.319 154.693 62.557 153.459 62.86C151.814 63.2495 150.212 63.7689 148.631 64.3532C147.116 64.9159 145.687 65.6949 144.193 66.2792C144.258 66.1277 144.323 65.9979 144.388 65.8464C144.735 65.0673 145.081 64.2883 145.427 63.5092C146.185 61.8212 146.943 60.1333 147.7 58.4453C149.151 55.1992 150.753 51.9964 152.009 48.6637C152.55 47.2571 150.32 46.1317 149.606 47.5167C147.7 51.1524 146.163 55.0044 144.475 58.7266C143.652 60.5444 142.83 62.3623 142.007 64.1801C141.336 65.6949 140.362 67.7508 142.18 68.9194C143.544 69.8067 145.081 68.9843 146.358 68.3784C148.09 67.556 149.865 66.8635 151.684 66.3009C153.654 65.6949 155.667 65.2405 157.702 64.9591C157.767 65.3703 157.854 65.7598 157.919 66.171C158.59 70.0447 159.066 74.0049 160.04 77.8137C160.473 79.545 162.876 78.9607 162.703 77.2511C162.313 73.3557 161.382 69.4388 160.69 65.5867C160.625 65.2838 160.581 64.9591 160.516 64.6562C161.447 64.5913 162.356 64.548 163.287 64.5263C165.127 64.4398 165.301 61.6265 163.482 61.6265Z" fill="#121C25"/>
<path d="M126.595 56.3029C121.009 55.7186 115.229 58.9214 112.913 64.0502C111.116 68.0321 111.657 72.8147 113.93 76.4936C116.052 81.0598 124.408 84.4791 131.076 81.0382C136.163 78.4197 139.129 72.7498 137.982 67.0583C136.856 61.5616 132.288 56.9088 126.595 56.3029ZM130.903 77.7488C128.933 79.1554 126.465 79.9129 124.04 79.7181C122.655 79.6099 121.313 79.3502 119.776 78.3764C116.009 75.9743 113.952 71.0185 115.099 66.6471C116.225 62.3839 120.338 59.4191 124.668 59.1811C129.258 58.9214 133.263 62.016 134.713 66.2792C136.207 70.6074 134.583 75.1303 130.903 77.7488Z" fill="#121C25"/>
<path d="M152.941 88.2013C145.753 89.4348 138.588 90.928 131.422 92.313C127.915 92.9839 124.386 93.6764 120.879 94.3472C117.242 95.0397 113.519 95.5808 109.925 96.5329C108.518 96.9008 108.756 99.3246 110.271 99.1298C113.93 98.6754 117.567 97.8314 121.182 97.1389C124.776 96.4464 128.348 95.7755 131.942 95.083C139.194 93.698 146.446 92.4212 153.677 90.8847C155.43 90.4952 154.651 87.8983 152.941 88.2013Z" fill="#5DC08D"/>
<path d="M140.837 95.6457C135.685 96.7493 130.576 98.1993 125.488 99.541C123.778 99.9954 124.514 102.592 126.224 102.181C131.333 100.926 136.529 99.7574 141.573 98.2858C143.24 97.7881 142.547 95.2778 140.837 95.6457Z" fill="#5DC08D"/>
<path d="M73.624 41.3492C72.3035 40.6134 70.5932 40.9813 69.7922 42.3014C69.0995 43.4483 69.2294 45.1363 70.3118 46.0019C70.4633 46.1101 70.6149 46.2183 70.7664 46.2832C70.8314 46.3482 70.8963 46.3914 70.9613 46.4564C72.2385 47.4302 74.1652 46.4131 74.8147 45.1796C75.5724 43.7729 74.9662 42.085 73.624 41.3492Z" fill="#4489F7"/>
<path d="M82.8467 39.1851C81.5262 38.4493 79.8159 38.8172 79.015 40.1373C78.3222 41.2843 78.4521 42.9722 79.5345 43.8379C79.6861 43.9461 79.8376 44.0543 79.9891 44.1192C80.0541 44.1841 80.119 44.2274 80.184 44.2923C81.4612 45.2661 83.3879 44.249 84.0374 43.0155C84.7951 41.6089 84.2106 39.9425 82.8467 39.1851Z" fill="#4489F7"/>
<path d="M91.9609 37.0426C90.6404 36.3069 88.9301 36.6748 88.1292 37.9948C87.4364 39.1418 87.5663 40.8298 88.6487 41.6954C88.8003 41.8036 88.9518 41.9118 89.1033 41.9767C89.1683 42.0417 89.2332 42.0849 89.2982 42.1499C90.5754 43.1237 92.5021 42.1066 93.1516 40.8731C93.9309 39.4664 93.3248 37.8001 91.9609 37.0426Z" fill="#4489F7"/>
<path d="M88.3359 60.3811C88.3359 60.4007 88.3556 60.4007 88.3359 60.3811C88.3556 60.4007 88.3556 60.4007 88.3359 60.3811C88.3359 60.4007 88.3556 60.4007 88.3359 60.3811Z" fill="#4489F7"/>
<path d="M276.989 54.0604C276.028 53.1748 274.549 53.5664 273.402 53.6708C272.053 53.7962 270.585 53.7015 269.805 52.4128C268.989 51.0672 269.106 49.3616 268.314 47.9984C267.98 47.4266 267.485 46.9171 266.869 46.6628C266.243 46.4046 265.573 46.4642 264.975 46.7742C263.611 47.4825 263.115 49.1063 262.706 50.4936C262.649 50.6865 262.589 50.8849 262.529 51.0883C262.12 52.3795 260.826 53.1816 259.485 52.9877C259.211 52.9454 258.943 52.9077 258.686 52.8738C257.321 52.6976 255.745 52.7354 254.767 53.8837C253.776 55.0486 254.266 56.6353 255.272 57.6072C255.898 58.2092 256.697 58.6112 257.429 59.0961C258.28 59.6545 258.758 60.6359 258.654 61.6425C258.655 61.6475 258.655 61.6525 258.651 61.658C258.571 62.4044 258.283 63.1016 257.983 63.78C257.419 65.0519 256.732 66.554 257.3 67.9558C257.531 68.5181 257.931 69.0325 258.481 69.2936C259.074 69.5705 259.722 69.503 260.297 69.2156C260.92 68.908 261.415 68.3864 261.885 67.8774C262.396 67.3187 262.889 66.7315 263.444 66.2136C263.745 65.9345 264.075 65.6828 264.429 65.474C265.023 65.129 265.728 65.0152 266.394 65.1682C266.436 65.179 266.477 65.1848 266.514 65.1962C268.029 65.5943 269.228 66.718 270.589 67.4456C271.832 68.1097 273.256 68.4618 274.571 67.8193C275.103 67.5617 275.591 67.1266 275.849 66.5791C276.153 65.9357 276.132 65.1999 275.881 64.5436C275.602 63.8145 275.117 63.2078 274.642 62.6002C274.174 62.007 273.676 61.3309 273.551 60.5655C273.281 58.9052 275.165 58.259 276.213 57.4876C276.774 57.0703 277.252 56.5402 277.439 55.8434C277.623 55.2226 277.484 54.5193 276.989 54.0604ZM272.57 55.1476C270.869 55.163 269.044 54.9084 267.742 53.7247C267.13 53.1667 266.655 52.458 266.395 51.6712C266.135 50.8794 266.005 49.8819 266.283 49.0796C266.395 48.7443 266.848 48.9499 266.833 49.2446C266.806 49.667 266.741 50.0631 266.78 50.4886C266.82 50.8737 266.905 51.249 267.049 51.6081C267.311 52.2683 267.742 52.8501 268.288 53.3039C269.511 54.3138 271.085 54.352 272.59 54.5592C272.915 54.6062 272.905 55.1431 272.57 55.1476ZM275.239 55.0666C274.86 54.8383 274.555 54.7892 274.124 54.8947C273.985 54.9294 273.85 54.8019 273.817 54.679C273.781 54.5311 273.86 54.4117 273.99 54.3475C274.462 54.0961 275.175 54.2039 275.549 54.5794C275.763 54.7845 275.548 55.2518 275.239 55.0666Z" fill="#F3C63E"/>
<path d="M122.457 186.571C121.631 185.81 120.36 186.147 119.374 186.237C118.215 186.344 116.954 186.263 116.284 185.156C115.583 183.999 115.683 182.533 115.002 181.362C114.715 180.871 114.29 180.433 113.76 180.214C113.222 179.992 112.647 180.044 112.133 180.31C110.961 180.919 110.534 182.314 110.183 183.506C110.134 183.672 110.082 183.843 110.031 184.017C109.679 185.127 108.568 185.816 107.415 185.65C107.18 185.613 106.95 185.581 106.728 185.552C105.555 185.4 104.201 185.433 103.361 186.42C102.509 187.421 102.93 188.784 103.794 189.619C104.333 190.137 105.02 190.482 105.648 190.899C106.379 191.379 106.79 192.222 106.701 193.087C106.702 193.091 106.702 193.096 106.698 193.1C106.63 193.742 106.382 194.341 106.124 194.924C105.64 196.017 105.05 197.308 105.538 198.512C105.736 198.996 106.079 199.438 106.552 199.662C107.062 199.9 107.619 199.842 108.113 199.595C108.649 199.331 109.073 198.882 109.478 198.445C109.917 197.965 110.34 197.46 110.817 197.015C111.076 196.775 111.359 196.559 111.664 196.38C112.174 196.083 112.78 195.985 113.352 196.117C113.388 196.126 113.424 196.131 113.455 196.141C114.757 196.483 115.788 197.449 116.957 198.074C118.026 198.645 119.249 198.947 120.379 198.395C120.836 198.174 121.256 197.8 121.478 197.329C121.739 196.776 121.721 196.144 121.505 195.58C121.265 194.953 120.848 194.432 120.44 193.91C120.038 193.4 119.61 192.819 119.503 192.161C119.271 190.735 120.89 190.179 121.79 189.517C122.272 189.158 122.683 188.702 122.843 188.104C123.002 187.57 122.882 186.966 122.457 186.571ZM118.659 187.506C117.198 187.519 115.63 187.3 114.511 186.283C113.985 185.803 113.576 185.194 113.353 184.518C113.129 183.838 113.018 182.981 113.256 182.291C113.353 182.003 113.743 182.18 113.73 182.433C113.706 182.796 113.65 183.136 113.684 183.502C113.718 183.833 113.791 184.155 113.915 184.464C114.14 185.031 114.511 185.531 114.98 185.921C116.031 186.789 117.383 186.822 118.677 187C118.956 187.04 118.947 187.502 118.659 187.506ZM120.953 187.436C120.627 187.24 120.365 187.198 119.995 187.288C119.876 187.318 119.759 187.209 119.731 187.103C119.7 186.976 119.768 186.873 119.88 186.818C120.286 186.602 120.898 186.695 121.22 187.017C121.404 187.194 121.219 187.595 120.953 187.436Z" fill="#FD9459"/>
<path d="M32.0006 9.50491C31.9631 10.1975 32.0082 10.8986 32.0958 11.581C32.1792 12.2539 32.3085 12.9798 32.5694 13.6081C32.7084 13.9353 33.1979 13.781 33.1588 13.4377C33.0884 12.7815 32.9281 12.1257 32.83 11.4705C32.7319 10.8153 32.6804 10.1508 32.6242 9.48837C32.5898 9.14302 32.0175 9.14815 32.0006 9.50491Z" fill="#00B67A"/>
<path d="M37.918 11.3961C36.8303 11.9558 35.8026 12.8551 35.0912 13.8456C34.8961 14.1178 35.2767 14.5072 35.533 14.2587C35.9633 13.8432 36.378 13.4176 36.8324 13.0309C37.2867 12.6441 37.7692 12.2956 38.2455 11.933C38.5279 11.718 38.2443 11.2293 37.918 11.3961Z" fill="#00B67A"/>
<path d="M20.1892 51.6439C19.5755 52.1637 19.0268 52.7946 18.5255 53.4243C18.0193 54.0553 17.5355 54.7125 17.133 55.4184C16.9329 55.7658 17.4352 56.0546 17.6577 55.7335C18.1078 55.09 18.564 54.4503 19.0603 53.8431C19.5565 53.2358 20.1015 52.6749 20.624 52.0877C20.884 51.7891 20.4917 51.3878 20.1892 51.6439Z" fill="#00B67A"/>
<path d="M23.0794 53.1155C22.9944 53.6466 23.0167 54.204 23.0028 54.7438C22.9915 55.2937 22.9963 55.8448 23.0225 56.3959C23.0411 56.7895 23.6085 56.8071 23.6373 56.4122C23.6749 55.8612 23.6913 55.3101 23.6926 54.7627C23.6965 54.2254 23.7266 53.6655 23.6568 53.1307C23.6219 52.842 23.1245 52.8281 23.0794 53.1155Z" fill="#00B67A"/>
<path d="M42.8804 15.3101C40.8483 14.4594 38.7309 15.93 36.9726 16.7552C34.9077 17.7292 32.527 18.4232 30.5509 16.8294C28.4843 15.1665 27.689 12.3966 25.6497 10.6922C24.7917 9.97811 23.7142 9.45543 22.5921 9.40659C21.451 9.35756 20.4244 9.83704 19.6555 10.6719C17.9013 12.5785 18.0483 15.4369 18.1975 17.8705C18.2194 18.2084 18.2375 18.5576 18.2592 18.9145C18.3533 21.1957 16.7651 23.2102 14.5284 23.6741C14.0704 23.7645 13.6238 23.8588 13.1962 23.9533C10.9323 24.4587 8.45648 25.4249 7.56728 27.8066C6.6662 30.2224 8.35571 32.4546 10.5081 33.4165C11.8472 34.01 13.3443 34.1877 14.782 34.5355C16.4512 34.9312 17.7732 36.2113 18.1881 37.8658C18.1918 37.8734 18.1955 37.881 18.1915 37.8924C18.4943 39.1208 18.4387 40.3913 18.353 41.6388C18.1913 43.9782 17.9666 46.7534 19.6722 48.6481C20.362 49.406 21.2902 49.9918 22.3127 50.089C23.4113 50.1869 24.3998 49.7071 25.1452 48.9213C25.9561 48.0755 26.4396 46.9647 26.8921 45.8878C27.3803 44.7087 27.8234 43.4951 28.4062 42.3549C28.723 41.7395 29.1002 41.1513 29.5415 40.6168C30.2845 39.7286 31.3354 39.1431 32.4792 39.0024C32.5516 38.9956 32.6203 38.981 32.685 38.9779C35.3145 38.7378 37.8609 39.8287 40.4362 40.199C42.7875 40.5368 45.2459 40.2761 46.9603 38.5019C47.6552 37.7877 48.1786 36.8177 48.2725 35.8018C48.3841 34.6077 47.9281 33.4536 47.1526 32.5582C46.291 31.5634 45.1738 30.881 44.072 30.1911C42.9889 29.5204 41.8123 28.7349 41.1734 27.5943C39.7917 25.1184 42.405 23.0115 43.6215 21.1869C44.2706 20.2029 44.7237 19.088 44.6186 17.8767C44.5537 16.7871 43.9286 15.7528 42.8804 15.3101ZM36.5037 19.5735C33.818 20.5757 30.7795 21.2215 28.0357 20.0946C26.7452 19.5622 25.5847 18.7124 24.7207 17.6151C23.8529 16.5102 23.0744 15.0039 23.0523 13.5733C23.0377 12.9774 23.8741 13.0425 24.0198 13.5182C24.2197 14.2031 24.3437 14.8683 24.6506 15.5201C24.9356 16.1071 25.2858 16.6531 25.7206 17.1392C26.5151 18.0347 27.5334 18.7086 28.6582 19.1141C31.1768 20.0113 33.6928 19.1668 36.197 18.6296C36.739 18.5173 37.0316 19.3738 36.5037 19.5735ZM40.6866 17.9106C39.954 17.7669 39.4426 17.8643 38.8203 18.2795C38.6206 18.4141 38.333 18.2899 38.2098 18.1142C38.0682 17.9003 38.1247 17.6656 38.2946 17.489C38.8975 16.8194 40.0883 16.5806 40.8976 16.9603C41.3553 17.162 41.2825 18.0264 40.6866 17.9106Z" fill="#00B67A"/>
<path d="M30.2932 23.2647C30.5494 23.2486 30.5332 22.9074 30.4795 22.65C30.4433 22.5262 30.3371 22.42 30.1684 22.4037C28.7139 22.2784 27.2167 22.4505 25.7958 22.7576C25.086 22.9136 24.3836 23.0997 23.6975 23.3295C23.3538 23.4419 23.0189 23.568 22.6864 23.7041C22.3677 23.8315 22.0153 23.9514 21.7154 24.1325C21.4179 24.2812 21.3054 24.2986 21.3854 24.5336C21.8237 25.8421 22.3058 27.1343 22.6616 28.4741C23.0187 29.8188 23.2358 31.1772 23.4604 32.5444C23.4667 32.5906 23.4704 32.6693 23.4892 32.7018C23.669 33.0818 23.7964 33.2093 24.0976 33.1606C24.5975 33.0782 24.5926 32.5484 24.5665 32.1672C24.5503 31.8686 24.5791 31.5799 24.6542 31.3062C25.0117 30.5265 25.6317 29.8831 26.4616 29.5484C27.7501 29.0301 29.2958 29.2654 30.3278 30.2078C31.3673 31.1591 31.8594 32.6188 31.5566 34.0008C31.2401 35.4341 30.1952 36.6085 28.7779 37.0368C27.2283 37.5089 25.5663 36.9999 24.4994 35.79C24.0996 35.3375 23.4247 35.9947 23.8244 36.4471C23.9744 36.6221 24.1405 36.7771 24.3105 36.9259C25.5286 37.9546 27.0618 38.4586 28.479 38.2215C30.2986 37.9157 31.8697 36.6364 32.4974 34.897C33.1139 33.1764 32.7819 31.1881 31.5901 29.797C30.4482 28.4571 28.6076 27.7431 26.8693 28.0339C25.8033 28.2098 24.7847 28.767 24.1647 29.6653C24.1459 29.6966 24.1259 29.7228 24.1022 29.7553C23.7888 28.2244 23.3131 26.7234 22.6623 25.3087C23.8034 24.6466 25.0169 24.147 26.2917 23.8074C27.6039 23.4691 28.946 23.3569 30.2932 23.2647Z" fill="white"/>
<path d="M472.552 153.023C471.901 151.763 470.248 151.614 469.039 151.295C467.618 150.922 466.156 150.281 465.839 148.678C465.506 147.003 466.258 145.307 465.956 143.623C465.828 142.916 465.512 142.213 464.978 141.725C464.435 141.229 463.73 141.042 463.006 141.136C461.352 141.352 460.244 142.824 459.312 144.087C459.183 144.262 459.047 144.442 458.911 144.627C458.014 145.792 456.398 146.13 455.102 145.435C454.839 145.29 454.58 145.152 454.33 145.022C453.003 144.336 451.382 143.79 449.959 144.598C448.516 145.418 448.427 147.218 449.092 148.582C449.508 149.428 450.173 150.135 450.739 150.9C451.4 151.786 451.523 152.964 451.044 153.952C451.043 153.957 451.042 153.962 451.035 153.966C450.677 154.698 450.124 155.302 449.566 155.882C448.52 156.97 447.262 158.247 447.321 159.887C447.348 160.546 447.564 161.219 448.029 161.689C448.531 162.191 449.217 162.363 449.909 162.283C450.659 162.201 451.357 161.852 452.025 161.508C452.753 161.128 453.474 160.712 454.232 160.39C454.643 160.217 455.072 160.083 455.511 160.001C456.245 159.87 457.005 160.015 457.628 160.418C457.667 160.445 457.707 160.466 457.74 160.491C459.137 161.459 459.943 163.05 461.061 164.297C462.082 165.435 463.403 166.323 464.982 166.155C465.62 166.09 466.28 165.828 466.746 165.365C467.294 164.822 467.546 164.064 467.533 163.301C467.519 162.454 467.25 161.656 466.991 160.86C466.734 160.081 466.477 159.207 466.633 158.38C466.975 156.587 469.135 156.627 470.49 156.23C471.217 156.012 471.901 155.649 472.35 155.008C472.768 154.443 472.887 153.674 472.552 153.023ZM467.643 152.492C465.903 151.877 464.137 150.94 463.248 149.25C462.831 148.454 462.61 147.555 462.637 146.656C462.665 145.752 462.903 144.687 463.484 143.972C463.723 143.672 464.109 144.05 463.984 144.344C463.799 144.765 463.586 145.145 463.468 145.593C463.366 146.001 463.313 146.415 463.327 146.835C463.349 147.605 463.573 148.358 463.961 149.023C464.833 150.507 466.424 151.13 467.882 151.899C468.196 152.068 467.986 152.612 467.643 152.492ZM470.395 153.4C470.093 153.026 469.8 152.863 469.321 152.811C469.167 152.795 469.076 152.614 469.088 152.477C469.107 152.313 469.232 152.22 469.389 152.203C469.963 152.122 470.649 152.496 470.892 153.018C471.034 153.307 470.641 153.703 470.395 153.4Z" fill="#FC6133"/>
</svg>
