<svg width="32" height="32" viewBox="0 0 32 32" fill="none" xmlns="http://www.w3.org/2000/svg">
<path d="M4.37787 17.6523L6.85638 25.1429H25.1423L27.6208 17.6523" stroke="white" stroke-width="2" stroke-miterlimit="10" stroke-linecap="round" stroke-linejoin="round"/>
<path d="M4.37787 14.3477L6.33732 8.42573C6.62279 7.56299 7.59993 6.85706 8.50871 6.85706H23.4899C24.3987 6.85706 25.3758 7.56299 25.6613 8.42573L27.6208 14.3477" stroke="white" stroke-width="2" stroke-miterlimit="10" stroke-linecap="round" stroke-linejoin="round"/>
<path d="M2.72583 16C2.72583 16.9126 3.46561 17.6524 4.37817 17.6524H27.6211C28.5336 17.6524 29.2734 16.9126 29.2734 16V16C29.2734 15.0875 28.5336 14.3477 27.6211 14.3477H4.37817C3.46561 14.3477 2.72583 15.0875 2.72583 16V16Z" stroke="white" stroke-width="2" stroke-miterlimit="10" stroke-linecap="round" stroke-linejoin="round"/>
<path d="M20.8357 14.3474L19.7422 11.0428H12.2576L11.164 14.3477" stroke="white" stroke-width="2" stroke-miterlimit="10" stroke-linecap="round" stroke-linejoin="round"/>
</svg>
