<svg width="32" height="32" viewBox="0 0 32 32" fill="none" xmlns="http://www.w3.org/2000/svg">
<path d="M8.59652 19.1956C8.59652 19.784 8.11956 20.261 7.53117 20.261C6.94278 20.261 6.46582 19.784 6.46582 19.1956C6.46582 18.6072 6.94278 18.1303 7.53117 18.1303C8.11956 18.1303 8.59652 18.6072 8.59652 19.1956Z" fill="white"/>
<path d="M11.7394 16.4794C11.7394 17.0678 11.2624 17.5447 10.6741 17.5447C10.0857 17.5447 9.6087 17.0678 9.6087 16.4794C9.6087 15.891 10.0857 15.414 10.6741 15.414C11.2624 15.414 11.7394 15.891 11.7394 16.4794Z" fill="white"/>
<path d="M12.2182 20.3678C12.2182 20.9561 11.7412 21.4331 11.1528 21.4331C10.5644 21.4331 10.0875 20.9561 10.0875 20.3678C10.0875 19.7794 10.5644 19.3024 11.1528 19.3024C11.7412 19.3024 12.2182 19.7794 12.2182 20.3678Z" fill="white"/>
<path d="M21.5007 13.5118L24.3895 10.623C24.8283 11.1116 25.4648 11.4191 26.1733 11.4191C27.5264 11.4191 28.6177 10.2979 28.5688 8.93389C28.5251 7.71327 27.5488 6.70786 26.33 6.62987C26.2692 6.62598 26.2087 6.62438 26.1489 6.62497C25.6962 6.6295 25.3247 6.25768 25.3208 5.80504C25.3204 5.75241 25.3183 5.69946 25.3143 5.64614C25.2257 4.43702 24.2251 3.47449 23.0135 3.43033C21.6488 3.38053 20.5267 4.47213 20.5267 5.82582C20.5267 6.54789 20.8464 7.19485 21.3514 7.63432L18.4873 10.4984" stroke="white" stroke-width="2" stroke-miterlimit="10" stroke-linejoin="round"/>
<path d="M20.8674 11.3425C20.5234 11.0029 19.5686 9.82071 18.6067 10.3107C16.4219 11.4237 9.93796 10.2242 5.54758 14.5591C2.62744 17.4422 2.67405 22.7244 6.00687 26.015C9.33958 29.3055 14.6485 29.372 17.5686 26.4888C21.4989 22.6082 20.9557 15.9093 21.7253 13.4575C22.0758 12.5451 21.1992 11.67 20.8674 11.3425Z" stroke="white" stroke-width="2" stroke-miterlimit="10" stroke-linecap="round" stroke-linejoin="round"/>
<path d="M8.59652 19.1956C8.59652 19.784 8.11956 20.261 7.53117 20.261C6.94278 20.261 6.46582 19.784 6.46582 19.1956C6.46582 18.6072 6.94278 18.1303 7.53117 18.1303C8.11956 18.1303 8.59652 18.6072 8.59652 19.1956Z" fill="white"/>
<path d="M11.7394 16.4794C11.7394 17.0678 11.2624 17.5447 10.6741 17.5447C10.0857 17.5447 9.6087 17.0678 9.6087 16.4794C9.6087 15.891 10.0857 15.414 10.6741 15.414C11.2624 15.414 11.7394 15.891 11.7394 16.4794Z" fill="white"/>
<path d="M12.2182 20.3678C12.2182 20.9561 11.7412 21.4331 11.1528 21.4331C10.5644 21.4331 10.0875 20.9561 10.0875 20.3678C10.0875 19.7794 10.5644 19.3024 11.1528 19.3024C11.7412 19.3024 12.2182 19.7794 12.2182 20.3678Z" fill="white"/>
</svg>
