<svg width="84" height="16" viewBox="0 0 84 16" fill="none" xmlns="http://www.w3.org/2000/svg">
<rect x="0.457031" y="0.704834" width="14.5903" height="14.5903" rx="2.5" fill="#022F5E"/>
<path fill-rule="evenodd" clip-rule="evenodd" d="M5.0516 11.7491C7.13447 11.4802 8.39729 10.8497 8.84904 10.5131C8.96119 10.4567 9.07105 10.3924 9.1779 10.3202C10.4986 9.42724 10.8591 7.65316 9.98318 6.35769C9.10725 5.06221 7.32657 4.7359 6.0059 5.62885C5.95949 5.66024 5.91426 5.69271 5.87023 5.72621C5.8369 5.74366 5.80462 5.76381 5.77349 5.78676C4.46775 6.74922 3.53554 8.22966 3.17183 8.9651C2.76023 7.13215 3.49305 5.13902 5.16452 4.00887C7.33485 2.54142 10.2659 3.08464 11.7112 5.22217C13.1564 7.35971 12.5687 10.2821 10.3983 11.7496C8.72509 12.8809 6.59971 12.8172 5.0516 11.7491Z" fill="white"/>
<path fill-rule="evenodd" clip-rule="evenodd" d="M6.16055 6.55328C6.19119 6.52996 6.22266 6.50736 6.25496 6.48552C7.17402 5.8641 8.41612 6.09548 9.02926 7.00232C9.64241 7.90915 9.39442 9.14804 8.47536 9.76945C8.401 9.81973 8.32453 9.86443 8.24645 9.90363C7.92972 10.1398 7.0394 10.5828 5.56779 10.7642L6.80874 9.60119L3.38483 10.8703L5.95766 7.99218L4.24238 8.90204C4.45687 8.42997 5.12731 7.30774 6.09322 6.59541C6.11489 6.57943 6.13735 6.56541 6.16055 6.55328Z" fill="white"/>
<path d="M23.9624 12.9656C22.4204 12.9656 21.2157 12.5512 20.3483 11.7224C19.481 10.8936 19.0473 9.72262 19.0473 8.20955C19.0473 7.17835 19.2497 6.26762 19.6545 5.47736C20.0689 4.68709 20.6519 4.07994 21.4036 3.65589C22.1554 3.22221 23.0227 3.00537 24.0057 3.00537C24.8056 3.00537 25.5766 3.14993 26.3187 3.43905L25.9284 5.30389C25.273 5.00513 24.637 4.85575 24.0202 4.85575C23.1432 4.85575 22.4493 5.14487 21.9385 5.72311C21.4277 6.29172 21.1723 7.05307 21.1723 8.00717C21.1723 8.98054 21.4422 9.73708 21.9819 10.2768C22.5216 10.8165 23.2685 11.0863 24.2226 11.0863C24.849 11.0863 25.4562 10.9851 26.044 10.7827L26.3621 12.5608C25.6585 12.8307 24.8586 12.9656 23.9624 12.9656Z" fill="#022F5E"/>
<path d="M31.2487 12.9945C30.497 12.9945 29.832 12.8307 29.2537 12.503C28.6851 12.1753 28.2418 11.7176 27.9238 11.1297C27.6057 10.5322 27.4467 9.84309 27.4467 9.06246C27.4467 8.28183 27.6009 7.59758 27.9093 7.0097C28.2274 6.41218 28.6707 5.94959 29.2393 5.62192C29.8175 5.29425 30.4825 5.13041 31.2342 5.13041C31.9859 5.13041 32.6461 5.29425 33.2147 5.62192C33.7929 5.93995 34.2363 6.39291 34.5446 6.98079C34.8627 7.56867 35.0217 8.2481 35.0217 9.01909C35.0217 9.79972 34.8627 10.4936 34.5446 11.1008C34.2363 11.6983 33.7929 12.1657 33.2147 12.503C32.6461 12.8307 31.9907 12.9945 31.2487 12.9945ZM31.2342 11.2309C31.7546 11.2309 32.169 11.0333 32.4774 10.6382C32.7955 10.2334 32.9545 9.70335 32.9545 9.048C32.9545 8.39266 32.7955 7.87225 32.4774 7.48675C32.169 7.09162 31.7546 6.89405 31.2342 6.89405C30.7138 6.89405 30.2946 7.09162 29.9765 7.48675C29.6681 7.87225 29.5139 8.39266 29.5139 9.048C29.5139 9.70335 29.6681 10.2334 29.9765 10.6382C30.2946 11.0333 30.7138 11.2309 31.2342 11.2309Z" fill="#022F5E"/>
<path d="M36.5326 5.3328H38.5275V6.48928C39.1154 5.58337 39.9105 5.13041 40.9128 5.13041C41.4814 5.13041 41.9632 5.26534 42.3584 5.53518C42.7631 5.79539 43.0571 6.17125 43.2402 6.66276C43.5775 6.1327 43.9534 5.7472 44.3678 5.50627C44.7918 5.2557 45.2737 5.13041 45.8134 5.13041C46.6133 5.13041 47.2349 5.37135 47.6782 5.85322C48.1312 6.32545 48.3576 6.98561 48.3576 7.8337V12.7777H46.3193V8.15173C46.3193 7.76623 46.223 7.46748 46.0302 7.25545C45.8471 7.03379 45.5965 6.92296 45.2785 6.92296C44.8834 6.92296 44.5171 7.0868 44.1798 7.41447C43.8425 7.74214 43.592 8.16137 43.4281 8.67215V12.7777H41.3898V8.15173C41.3898 7.77587 41.2934 7.47711 41.1007 7.25545C40.9079 7.03379 40.6526 6.92296 40.3345 6.92296C39.9779 6.92296 39.6406 7.05789 39.3226 7.32773C39.0142 7.58794 38.7636 7.95898 38.5709 8.44085V12.7777H36.5326V5.3328Z" fill="#022F5E"/>
<path d="M50.1698 5.3328H52.1648V6.48928C52.7527 5.58337 53.5477 5.13041 54.55 5.13041C55.1186 5.13041 55.6005 5.26534 55.9956 5.53518C56.4004 5.79539 56.6943 6.17125 56.8774 6.66276C57.2148 6.1327 57.5906 5.7472 58.005 5.50627C58.4291 5.2557 58.9109 5.13041 59.4506 5.13041C60.2505 5.13041 60.8721 5.37135 61.3155 5.85322C61.7684 6.32545 61.9949 6.98561 61.9949 7.8337V12.7777H59.9566V8.15173C59.9566 7.76623 59.8602 7.46748 59.6675 7.25545C59.4844 7.03379 59.2338 6.92296 58.9158 6.92296C58.5206 6.92296 58.1544 7.0868 57.8171 7.41447C57.4798 7.74214 57.2292 8.16137 57.0654 8.67215V12.7777H55.0271V8.15173C55.0271 7.77587 54.9307 7.47711 54.738 7.25545C54.5452 7.03379 54.2898 6.92296 53.9718 6.92296C53.6152 6.92296 53.2779 7.05789 52.9599 7.32773C52.6515 7.58794 52.4009 7.95898 52.2081 8.44085V12.7777H50.1698V5.3328Z" fill="#022F5E"/>
<path d="M67.3905 12.9945C66.1858 12.9945 65.2366 12.6476 64.5427 11.9537C63.8584 11.2598 63.5163 10.296 63.5163 9.06246C63.5163 8.26256 63.6657 7.56867 63.9644 6.98079C64.2632 6.38327 64.6824 5.9255 65.2221 5.60746C65.7714 5.28943 66.4123 5.13041 67.1448 5.13041C68.2241 5.13041 69.053 5.47736 69.6312 6.17125C70.2094 6.86514 70.4986 7.86743 70.4986 9.17811C70.4986 9.39977 70.4937 9.5636 70.4841 9.66962H65.569C65.6654 10.1804 65.8871 10.5707 66.234 10.8406C66.581 11.1008 67.0484 11.2309 67.6363 11.2309C67.9928 11.2309 68.3639 11.1875 68.7494 11.1008C69.1349 11.0044 69.4722 10.8791 69.7613 10.7249L70.0938 12.3584C69.7083 12.5608 69.2794 12.715 68.8072 12.821C68.3446 12.9367 67.8724 12.9945 67.3905 12.9945ZM68.547 8.13727C68.5181 7.72287 68.3735 7.3952 68.1133 7.15426C67.8531 6.90369 67.5062 6.7784 67.0725 6.7784C66.6581 6.7784 66.3159 6.89887 66.0461 7.1398C65.7859 7.38074 65.622 7.71323 65.5546 8.13727H68.547Z" fill="#022F5E"/>
<path d="M74.7555 12.9945C74.0616 12.9945 73.5219 12.821 73.1364 12.4741C72.7606 12.1175 72.5727 11.6164 72.5727 10.9707V7.08198H71.4162V5.3328H72.5727V3.74263C73.2569 3.62698 73.9315 3.54025 74.5965 3.48242V5.3328H76.4758V7.08198H74.5965V10.5948C74.5965 10.7972 74.6543 10.9514 74.77 11.0574C74.8953 11.1634 75.0687 11.2164 75.2904 11.2164C75.5602 11.2164 75.8686 11.1538 76.2156 11.0285L76.6637 12.5608C76.0469 12.8499 75.4109 12.9945 74.7555 12.9945Z" fill="#022F5E"/>
<path d="M79.9089 12.9945C79.1379 12.9945 78.5259 12.6668 78.073 12.0115C77.62 11.3562 77.3935 10.4647 77.3935 9.33713C77.3935 7.96862 77.7405 6.92778 78.4344 6.21462C79.1283 5.49181 80.1257 5.13041 81.4268 5.13041C82.1592 5.13041 83.0169 5.24606 83.9999 5.47736V12.7777H82.0628L82.1062 11.5923H82.0484C81.7978 12.0452 81.4894 12.3922 81.1232 12.6331C80.7666 12.874 80.3618 12.9945 79.9089 12.9945ZM80.3426 11.2164C80.6413 11.2164 80.9353 11.0574 81.2244 10.7394C81.5135 10.4213 81.7834 9.99729 82.0339 9.46723V7.03861C81.7255 6.95188 81.4171 6.90851 81.1087 6.90851C80.5305 6.90851 80.092 7.10607 79.7932 7.50121C79.5041 7.89634 79.3596 8.4794 79.3596 9.25039C79.3596 9.85754 79.4463 10.3394 79.6198 10.696C79.7932 11.0429 80.0342 11.2164 80.3426 11.2164Z" fill="#022F5E"/>
</svg>
