<svg width="20" height="20" viewBox="0 0 20 20" fill="none" xmlns="http://www.w3.org/2000/svg">
<g id="discount" clip-path="url(#clip0_22928_92344)">
<path id="Vector" d="M18.6698 10.2591C18.5893 10.0944 18.5893 9.90558 18.6698 9.74097L19.4157 8.215C19.831 7.36536 19.502 6.35267 18.6666 5.90943L17.1662 5.11334C17.0043 5.02748 16.8933 4.87467 16.8617 4.69424L16.5682 3.02124C16.4048 2.08977 15.5432 1.46383 14.607 1.59629L12.9252 1.83418C12.7437 1.85981 12.5642 1.80145 12.4325 1.67406L11.2118 0.493134C10.5321 -0.16444 9.46725 -0.164479 8.78757 0.493134L7.56679 1.67418C7.43508 1.8016 7.25558 1.85985 7.0741 1.8343L5.39235 1.59641C4.45584 1.46387 3.59451 2.08988 3.43112 3.02136L3.13768 4.69428C3.106 4.87475 2.99502 5.02752 2.83319 5.11342L1.33281 5.90951C0.497422 6.35271 0.168361 7.36548 0.583671 8.21512L1.32957 9.74105C1.41003 9.9057 1.41003 10.0945 1.32957 10.2591L0.583632 11.7851C0.168322 12.6347 0.497382 13.6474 1.33277 14.0906L2.83315 14.8867C2.99502 14.9726 3.106 15.1254 3.13768 15.3058L3.43112 16.9788C3.57986 17.8268 4.30697 18.4215 5.14263 18.4214C5.22493 18.4214 5.30845 18.4156 5.39239 18.4037L7.07414 18.1658C7.25551 18.1401 7.43511 18.1986 7.56683 18.326L8.78757 19.5069C9.12749 19.8357 9.5635 20.0001 9.99967 20.0001C10.4357 20 10.872 19.8356 11.2118 19.5069L12.4325 18.326C12.5643 18.1986 12.7438 18.1404 12.9252 18.1658L14.607 18.4037C15.5436 18.5362 16.4048 17.9103 16.5682 16.9788L16.8617 15.3059C16.8934 15.1254 17.0044 14.9726 17.1662 14.8867L18.6666 14.0906C19.502 13.6474 19.831 12.6347 19.4157 11.785L18.6698 10.2591Z" fill="#E52E30"/>
<g id="Subtract">
<path fill-rule="evenodd" clip-rule="evenodd" d="M7.69292 4.80933C8.859 4.80933 9.80771 5.75803 9.80771 6.92412C9.80771 8.09021 8.859 9.03891 7.69292 9.03891C6.52683 9.03891 5.57812 8.09021 5.57812 6.92412C5.57812 5.75803 6.52683 4.80933 7.69292 4.80933ZM6.73157 6.92389C6.73157 6.39386 7.16278 5.96265 7.69281 5.96265C8.22285 5.96265 8.65406 6.39389 8.6541 6.92389C8.6541 7.45397 8.22285 7.88517 7.69281 7.88517C7.16278 7.88517 6.73157 7.45393 6.73157 6.92389Z" fill="white"/>
<path d="M6.60136 14.2143C6.48874 14.327 6.34113 14.3833 6.19355 14.3833C6.04597 14.3833 5.89832 14.327 5.78574 14.2143C5.56051 13.9891 5.56051 13.6239 5.78574 13.3987L13.3985 5.78588C13.6237 5.56065 13.989 5.56065 14.2142 5.78588C14.4394 6.01112 14.4394 6.37631 14.2142 6.60154L6.60136 14.2143Z" fill="white"/>
<path fill-rule="evenodd" clip-rule="evenodd" d="M12.307 15.191C11.1409 15.191 10.1922 14.2423 10.1922 13.0762C10.1922 11.9101 11.1409 10.9614 12.307 10.9614C13.473 10.9614 14.4217 11.9101 14.4217 13.0762C14.4217 14.2423 13.473 15.191 12.307 15.191ZM12.3069 12.1147C11.7768 12.1147 11.3456 12.546 11.3456 13.076C11.3456 13.606 11.7768 14.0372 12.3069 14.0372C12.8369 14.0372 13.2681 13.606 13.2681 13.076C13.2681 12.546 12.8369 12.1147 12.3069 12.1147Z" fill="white"/>
</g>
</g>
<defs>
<clipPath id="clip0_22928_92344">
<rect width="20" height="20" fill="white"/>
</clipPath>
</defs>
</svg>
