<svg width="24" height="16" viewBox="0 0 24 16" fill="none" xmlns="http://www.w3.org/2000/svg">
<path d="M0.744141 5.93956V2.97223L5.19518 5.93956H0.744141Z" fill="#103B9B"/>
<path d="M0.77417 3.02811V5.90941H5.09612L0.77417 3.02811Z" fill="#103B9B"/>
<path d="M4.63721 0.614838H9.93987V4.1499L4.63721 0.614838Z" fill="#103B9B"/>
<path d="M9.90964 0.644836H4.73608L9.90964 4.09386V0.644836Z" fill="#103B9B"/>
<path d="M0.744141 10.0601H5.19518L0.744141 13.0275V10.0601Z" fill="#103B9B"/>
<path d="M0.77417 10.0901V12.9714L5.09612 10.0901H0.77417Z" fill="#103B9B"/>
<path d="M14.0603 0.614838H19.363L14.0603 4.1499V0.614838Z" fill="#103B9B"/>
<path d="M19.2636 0.644836H14.0901V4.09386L19.2636 0.644836Z" fill="#103B9B"/>
<path d="M18.8047 5.93956L23.2557 2.97223V5.93956H18.8047Z" fill="#103B9B"/>
<path d="M23.226 5.90941V3.02811L18.9041 5.90941H23.226Z" fill="#103B9B"/>
<path d="M4.63721 15.3846L9.93987 11.8495V15.3846H4.63721Z" fill="#103B9B"/>
<path d="M4.73608 15.3544H9.90964V11.9053L4.73608 15.3544Z" fill="#103B9B"/>
<path d="M18.8047 10.0601H23.2557V13.0275L18.8047 10.0601Z" fill="#103B9B"/>
<path d="M23.226 12.9714V10.0901H18.9041L23.226 12.9714Z" fill="#103B9B"/>
<path d="M14.0603 15.3846V11.8495L19.363 15.3846H14.0603Z" fill="#103B9B"/>
<path d="M14.0901 15.3544H19.2636L14.0901 11.9053V15.3544Z" fill="#103B9B"/>
<path d="M19.2643 0.644836L14.0907 4.09389V0.644836H13.51V6.48999H23.2262V5.90937H18.9042L23.2262 3.02804V0.981017L15.8337 5.90937H14.438H14.0907V5.397V4.46652L19.8227 0.644836H19.2643Z" fill="white"/>
<path d="M4.73606 15.3545L9.90962 11.9055V15.3545H10.4903V9.50943H0.77417V10.0901H5.09612L0.77417 12.9714V15.0183L8.16662 10.0901H9.56234H9.90962V10.6029V11.5333L4.17782 15.3545H4.73606Z" fill="white"/>
<path d="M1.56665 15.3846L9.55343 10.0601H9.9398V10.6189L2.79137 15.3846H1.56665Z" fill="#ED1F34"/>
<path d="M9.56231 10.0901L1.66553 15.3546H2.78207L9.90959 10.6029V10.0901H9.56231Z" fill="#ED1F34"/>
<path d="M7.02371 5.93946L0.744141 1.74297V0.925079L8.26568 5.93946H7.02371Z" fill="#ED1F34"/>
<path d="M0.77417 0.980957V1.72678L7.03283 5.90928H8.16662L0.77417 0.980957Z" fill="#ED1F34"/>
<path d="M15.7344 10.0601H16.9209L23.2559 14.2934V15.0744L15.7344 10.0601Z" fill="#ED1F34"/>
<path d="M23.2259 15.0184V14.3095L16.9118 10.0901H15.8335L23.2259 15.0184Z" fill="#ED1F34"/>
<path d="M14.0603 5.93937V5.38092L21.2088 0.614838H22.4335L14.4467 5.93937H14.0603Z" fill="#ED1F34"/>
<path d="M14.4374 5.90937L22.3342 0.644836H21.2176L14.0901 5.397V5.90937H14.4374Z" fill="#ED1F34"/>
<path d="M9.90962 4.09389L4.73606 0.644836H1.66556L9.56234 5.90937H8.16662H7.03283H5.63945L0.77417 2.65799V3.02804L5.09612 5.90937H0.77417V6.48999H10.4903V0.644836H9.90962V4.09389Z" fill="white"/>
<path d="M14.0907 11.9053L19.2643 15.3544H22.3348L14.438 10.0899H15.8337H16.9121H18.3055L23.2262 13.3782V12.9712L18.9042 10.0899H23.2262V9.50928H22.0649C21.8511 9.50928 21.6778 9.33597 21.6778 9.12219H20.9036C20.9036 9.33597 20.7303 9.50928 20.5165 9.50928H13.51V15.3544H14.0907V11.9053H14.0907Z" fill="white"/>
<path d="M11.2345 15.3845V9.12224C11.2345 8.92535 11.0743 8.76518 10.8774 8.76518H0.744141V7.23419H10.8774C11.0743 7.23419 11.2345 7.07399 11.2345 6.8771V0.614838H12.7654V6.8771C12.7654 7.07399 12.9256 7.23419 13.1225 7.23419H23.2557V8.76518H22.0644C21.8675 8.76518 21.7073 8.92535 21.7073 9.12224V9.15224H20.8731V9.12224C20.8731 8.92535 20.7129 8.76518 20.516 8.76518H13.1225C12.9256 8.76518 12.7654 8.92535 12.7654 9.12224V15.3845H11.2345Z" fill="#ED1F34"/>
<path d="M21.6774 9.12224C21.6774 8.90846 21.8506 8.73518 22.0645 8.73518H23.2257V7.26419H13.1225C12.9087 7.26419 12.7354 7.09088 12.7354 6.8771V0.644836H11.2645V6.8771C11.2645 7.09088 11.0912 7.26419 10.8774 7.26419H0.77417V8.73518H10.8774C11.0912 8.73518 11.2645 8.90846 11.2645 9.12224V15.3545H12.7354V9.12224C12.7354 8.90846 12.9087 8.73518 13.1225 8.73518H20.5161C20.7299 8.73518 20.9032 8.90846 20.9032 9.12224H21.6774Z" fill="#ED1F34"/>
</svg>
