<svg width="179" height="32" viewBox="0 0 179 32" fill="none" xmlns="http://www.w3.org/2000/svg">
<path d="M0.00012207 7.11111C0.00012207 3.18375 3.20855 0 7.16636 0L25.0819 0C29.0397 0 32.2482 3.18375 32.2482 7.11111L32.2482 24.8889C32.2482 28.8162 29.0397 32 25.0819 32L7.16636 32C3.20855 32 0.00012207 28.8162 0.00012207 24.8889L0.00012207 7.11111Z" fill="#FFE033"/>
<path d="M17.7029 7.39052C17.5358 7.36089 17.4374 7.1801 17.466 7.01145C17.4784 6.93793 17.485 6.86241 17.485 6.78536C17.485 6.02917 16.8746 5.41382 16.1245 5.41382C15.3744 5.41382 14.764 6.02917 14.764 6.78536C14.764 6.8624 14.7705 6.9379 14.783 7.0114C14.8115 7.18006 14.7131 7.36089 14.5459 7.3905C10.8393 8.04724 7.89757 10.9658 7.21474 14.7221C7.14223 15.1209 7.45878 15.4718 7.86102 15.4718L24.387 15.4718C24.7892 15.4718 25.1058 15.1209 25.0332 14.7221C24.3502 10.9672 21.4079 8.04735 17.7029 7.39052Z" fill="black"/>
<g opacity="0.6">
<path d="M18.3299 25.1399L25.0437 25.1399L25.0437 18.3004L18.3299 18.3004L18.3299 25.1399ZM19.4489 19.4403L23.9247 19.4403L23.9247 23.9999L19.4489 23.9999L19.4489 19.4403Z" fill="black"/>
<path d="M22.8377 22.8926L20.6318 22.8926L20.6318 20.5477L22.8377 20.5477L22.8377 22.8926Z" fill="black"/>
<path d="M13.9181 25.1399L13.9181 18.3004L7.20435 18.3004L7.20435 25.1399L13.9181 25.1399ZM8.3233 19.4403L12.7991 19.4403L12.7991 23.9999L8.3233 23.9999L8.3233 19.4403Z" fill="black"/>
<path d="M11.6162 22.8926L9.41028 22.8926L9.41028 20.5477L11.6162 20.5477L11.6162 22.8926Z" fill="black"/>
<path d="M16.124 20.5802L14.9731 20.5802L14.9731 18.3004L16.124 18.3004L16.124 20.5802L17.2749 20.5802L17.2749 25.1399L16.124 25.1399L16.124 23.9999L14.9731 23.9999L14.9731 21.7201L16.124 21.7201L16.124 20.5802Z" fill="black"/>
</g>
<path fill-rule="evenodd" clip-rule="evenodd" d="M5.52734 16.9874C5.52734 16.7551 5.71712 16.5668 5.95121 16.5668L26.2969 16.5668C26.531 16.5668 26.7207 16.7551 26.7207 16.9874C26.7207 17.2197 26.531 17.408 26.2969 17.408L5.95121 17.408C5.71712 17.408 5.52734 17.2197 5.52734 16.9874Z" fill="#121C25"/>
<path fill-rule="evenodd" clip-rule="evenodd" d="M2.91138 7.11102C2.91138 4.77915 4.81638 2.88879 7.16633 2.88879L8.95789 2.88879C9.32893 2.88879 9.62972 3.18727 9.62972 3.55546C9.62972 3.92365 9.32893 4.22213 8.95789 4.22213L7.16633 4.22213C5.55847 4.22213 4.25505 5.51553 4.25505 7.11102L4.25505 8.88879C4.25505 9.25698 3.95426 9.55546 3.58321 9.55546C3.21217 9.55546 2.91138 9.25698 2.91138 8.88879L2.91138 7.11102ZM22.6185 3.55546C22.6185 3.18727 22.9193 2.88879 23.2904 2.88879L25.0819 2.88879C27.4319 2.88879 29.3369 4.77915 29.3369 7.11102L29.3369 8.8888C29.3369 9.25699 29.0361 9.55546 28.665 9.55546C28.294 9.55546 27.9932 9.25698 27.9932 8.88879L27.9932 7.11102C27.9932 5.51553 26.6898 4.22213 25.0819 4.22213L23.2904 4.22213C22.9193 4.22213 22.6185 3.92365 22.6185 3.55546ZM3.58321 22.4443C3.95426 22.4443 4.25505 22.7428 4.25505 23.111L4.25505 24.8888C4.25505 26.4843 5.55847 27.7777 7.16633 27.7777L8.95789 27.7777C9.32893 27.7777 9.62972 28.0762 9.62972 28.4443C9.62972 28.8125 9.32893 29.111 8.95789 29.111L7.16633 29.111C4.81638 29.111 2.91138 27.2207 2.91138 24.8888L2.91138 23.111C2.91138 22.7428 3.21217 22.4443 3.58321 22.4443ZM28.665 22.4443C29.0361 22.4443 29.3369 22.7428 29.3369 23.111L29.3369 24.8888C29.3369 27.2207 27.4319 29.111 25.0819 29.111L23.2904 29.111C22.9193 29.111 22.6185 28.8125 22.6185 28.4443C22.6185 28.0762 22.9193 27.7777 23.2904 27.7777L25.0819 27.7777C26.6898 27.7777 27.9932 26.4843 27.9932 24.8888L27.9932 23.111C27.9932 22.7428 28.294 22.4443 28.665 22.4443Z" fill="#121C25"/>
<path d="M53.9278 27.5218C52.8158 27.8596 51.5904 28.0285 50.2515 28.0285C48.0276 28.0285 46.0646 27.5443 44.3626 26.576C42.6607 25.6077 41.3331 24.2453 40.38 22.4889C39.4496 20.7325 38.9844 18.717 38.9844 16.4427C38.9844 14.1458 39.4496 12.1191 40.38 10.3627C41.3104 8.60623 42.6266 7.24386 44.3286 6.27556C46.0306 5.30727 48.0049 4.82312 50.2515 4.82312C52.4754 4.82312 54.4384 5.29601 56.1403 6.24179C57.8423 7.18756 59.1585 8.53868 60.0889 10.2951C61.0193 12.029 61.4846 14.0332 61.4846 16.3076C61.4846 18.019 61.2122 19.6065 60.6676 21.0702C60.1457 22.5114 59.3968 23.7499 58.421 24.7858L61.5867 26.4071L61.0761 31.0347L53.9278 27.5218ZM50.4898 20.6649L53.9958 22.4889C54.7674 21.8584 55.3574 21.0252 55.7659 19.9893C56.1971 18.9535 56.4127 17.7713 56.4127 16.4427C56.4127 14.979 56.1517 13.6954 55.6297 12.592C55.1305 11.4661 54.4043 10.6104 53.4512 10.0249C52.5208 9.4169 51.4542 9.1129 50.2515 9.1129C49.0488 9.1129 47.9708 9.4169 47.0177 10.0249C46.0873 10.6329 45.3611 11.4999 44.8392 12.6258C44.3399 13.7292 44.0903 15.0015 44.0903 16.4427C44.0903 18.627 44.6463 20.3834 45.7583 21.712C46.8702 23.0406 48.3453 23.7162 50.1834 23.7387L50.4898 20.6649Z" fill="#121C25"/>
<path d="M65.2661 5.05957C65.9469 5.03705 67.2177 5.02579 69.0786 5.02579C70.9621 5.02579 72.2443 5.03705 72.9251 5.05957C75.5121 5.14964 77.441 5.78016 78.7118 6.95112C79.9826 8.09957 80.618 9.65334 80.618 11.6125C80.618 13.2788 80.1868 14.6975 79.3245 15.8685C78.4849 17.0169 77.3048 17.7713 75.7844 18.1316C76.2609 18.5144 76.7488 19.0436 77.2481 19.7191C77.7473 20.3722 78.4395 21.3967 79.3245 22.7929C80.2549 24.2566 81.1967 25.8442 82.1498 27.5556H76.4311L72.5847 20.4622C72.1762 19.7191 71.8017 19.2575 71.4613 19.0773C71.1436 18.8747 70.6557 18.7733 69.9976 18.7733V27.5556H65.2661V5.05957ZM72.1081 15.024C73.2654 15.024 74.1732 14.7313 74.8313 14.1458C75.5121 13.5603 75.8525 12.7722 75.8525 11.7813C75.8525 10.8806 75.5575 10.1938 74.9674 9.7209C74.3774 9.24801 73.5151 9.01156 72.3804 9.01156H69.9976V15.024H72.1081Z" fill="#121C25"/>
<path d="M96.2342 11.68L94.8045 27.5556H90.4134L92.5579 5.05957H98.6851L104.472 21.2053L110.088 5.05957H116.215L118.292 27.5556H113.867L112.301 11.7476L106.31 27.792L102.259 28.1636L96.2342 11.68Z" fill="#121C25"/>
<path d="M130.38 28.0622C127.544 28.0622 125.309 27.2516 123.675 25.6302C122.063 24.0089 121.258 21.757 121.258 18.8747C121.258 17.0056 121.61 15.3843 122.313 14.0107C123.017 12.6145 124.004 11.5449 125.275 10.8018C126.568 10.0587 128.077 9.68712 129.802 9.68712C132.343 9.68712 134.295 10.4978 135.657 12.1191C137.018 13.7405 137.699 16.0824 137.699 19.1449C137.699 19.6628 137.688 20.0456 137.665 20.2933H126.091C126.318 21.4868 126.84 22.3988 127.657 23.0293C128.474 23.6373 129.575 23.9413 130.959 23.9413C131.799 23.9413 132.672 23.84 133.58 23.6373C134.488 23.4122 135.282 23.1194 135.963 22.7591L136.746 26.576C135.838 27.0489 134.828 27.4092 133.716 27.6569C132.627 27.9271 131.515 28.0622 130.38 28.0622ZM133.104 16.7129C133.036 15.7446 132.695 14.979 132.082 14.416C131.47 13.8305 130.653 13.5378 129.632 13.5378C128.656 13.5378 127.85 13.8193 127.215 14.3822C126.602 14.9452 126.216 15.7221 126.057 16.7129H133.104Z" fill="#121C25"/>
<path d="M141.289 10.16H145.987V13.1662C146.713 11.9727 147.553 11.0945 148.506 10.5316C149.459 9.9686 150.571 9.68712 151.842 9.68712C153.725 9.68712 155.2 10.2501 156.267 11.376C157.333 12.4794 157.867 14.0219 157.867 16.0036V27.5556H153.067V16.7467C153.067 15.8459 152.84 15.1479 152.386 14.6525C151.932 14.1345 151.32 13.8756 150.548 13.8756C149.64 13.8756 148.778 14.2133 147.961 14.8889C147.144 15.5645 146.52 16.4202 146.089 17.456V27.5556H141.289V10.16Z" fill="#121C25"/>
<path d="M167.953 28.0285C166.092 28.0285 164.628 27.4655 163.562 26.3396C162.495 25.2136 161.962 23.6711 161.962 21.712V10.16H166.761V20.9351C166.761 21.8584 166.988 22.579 167.442 23.0969C167.896 23.5923 168.509 23.84 169.28 23.84C170.052 23.84 170.789 23.5923 171.493 23.0969C172.219 22.6015 172.82 21.9372 173.297 21.104V10.16H178.097V27.5556H173.297V25.2587C172.639 26.1369 171.879 26.8237 171.016 27.3191C170.177 27.792 169.155 28.0285 167.953 28.0285Z" fill="#121C25"/>
</svg>
