<svg width="134" height="24" viewBox="0 0 134 24" fill="none" xmlns="http://www.w3.org/2000/svg">
<path d="M0.00012207 5.33333C0.00012207 2.38781 2.39743 0 5.35467 0H18.741C21.6983 0 24.0956 2.38781 24.0956 5.33333V18.6667C24.0956 21.6122 21.6983 24 18.741 24H5.35467C2.39743 24 0.00012207 21.6122 0.00012207 18.6667V5.33333Z" fill="#FFE033"/>
<path d="M13.2276 5.54295C13.1028 5.52073 13.0292 5.38513 13.0506 5.25865C13.0599 5.20351 13.0648 5.14687 13.0648 5.08908C13.0648 4.52194 12.6087 4.06042 12.0482 4.06042C11.4878 4.06042 11.0317 4.52194 11.0317 5.08908C11.0317 5.14686 11.0366 5.20348 11.0459 5.25861C11.0672 5.38511 10.9937 5.52073 10.8688 5.54294C8.0992 6.03549 5.90115 8.2244 5.39095 11.0416C5.33677 11.3408 5.57329 11.6039 5.87384 11.6039L18.2219 11.6039C18.5225 11.6039 18.759 11.3408 18.7048 11.0416C18.1944 8.22549 15.996 6.03558 13.2276 5.54295Z" fill="black"/>
<g opacity="0.6">
<path d="M13.6961 18.8549L18.7125 18.8549L18.7125 13.7253L13.6961 13.7253L13.6961 18.8549ZM14.5322 14.5803L17.8765 14.5803L17.8765 18L14.5322 18L14.5322 14.5803Z" fill="black"/>
<path d="M17.0643 17.1695L15.416 17.1695L15.416 15.4108L17.0643 15.4108L17.0643 17.1695Z" fill="black"/>
<path d="M10.3996 18.8549L10.3996 13.7253L5.38318 13.7253L5.38318 18.8549L10.3996 18.8549ZM6.21925 14.5803L9.56354 14.5803L9.56354 18L6.21925 18L6.21925 14.5803Z" fill="black"/>
<path d="M8.67969 17.1695L7.03143 17.1695L7.03143 15.4108L8.67969 15.4108L8.67969 17.1695Z" fill="black"/>
<path d="M12.0479 15.4352L11.1879 15.4352L11.1879 13.7253L12.0479 13.7253L12.0479 15.4352L12.9078 15.4352L12.9078 18.8549L12.0479 18.8549L12.0479 18L11.1879 18L11.1879 16.2901L12.0479 16.2901L12.0479 15.4352Z" fill="black"/>
</g>
<path fill-rule="evenodd" clip-rule="evenodd" d="M4.13 12.7405C4.13 12.5663 4.2718 12.425 4.44672 12.425L19.6488 12.425C19.8237 12.425 19.9655 12.5663 19.9655 12.7405C19.9655 12.9147 19.8237 13.056 19.6488 13.056L4.44672 13.056C4.2718 13.056 4.13 12.9147 4.13 12.7405Z" fill="#121C25"/>
<path fill-rule="evenodd" clip-rule="evenodd" d="M2.17542 5.33329C2.17542 3.58439 3.59882 2.16663 5.35468 2.16663L6.69331 2.16663C6.97055 2.16663 7.1953 2.39048 7.1953 2.66663C7.1953 2.94277 6.97055 3.16663 6.69331 3.16663L5.35468 3.16663C4.1533 3.16663 3.17939 4.13668 3.17939 5.33329L3.17939 6.66663C3.17939 6.94277 2.95464 7.16663 2.6774 7.16663C2.40016 7.16663 2.17542 6.94277 2.17542 6.66663L2.17542 5.33329ZM16.9004 2.66663C16.9004 2.39048 17.1252 2.16663 17.4024 2.16663L18.741 2.16663C20.4969 2.16663 21.9203 3.58439 21.9203 5.33329L21.9203 6.66663C21.9203 6.94277 21.6956 7.16663 21.4183 7.16663C21.1411 7.16663 20.9163 6.94277 20.9163 6.66663L20.9163 5.33329C20.9163 4.13668 19.9424 3.16663 18.741 3.16663L17.4024 3.16663C17.1252 3.16663 16.9004 2.94277 16.9004 2.66663ZM2.6774 16.8333C2.95464 16.8333 3.17939 17.0571 3.17939 17.3333L3.17939 18.6666C3.17939 19.8632 4.1533 20.8333 5.35468 20.8333L6.69331 20.8333C6.97055 20.8333 7.1953 21.0571 7.1953 21.3333C7.1953 21.6094 6.97055 21.8333 6.69331 21.8333L5.35468 21.8333C3.59882 21.8333 2.17542 20.4155 2.17542 18.6666L2.17542 17.3333C2.17542 17.0571 2.40016 16.8333 2.6774 16.8333ZM21.4183 16.8333C21.6956 16.8333 21.9203 17.0571 21.9203 17.3333L21.9203 18.6666C21.9203 20.4155 20.4969 21.8333 18.741 21.8333L17.4024 21.8333C17.1252 21.8333 16.9004 21.6094 16.9004 21.3333C16.9004 21.0571 17.1252 20.8333 17.4024 20.8333L18.741 20.8333C19.9424 20.8333 20.9163 19.8632 20.9163 18.6666L20.9163 17.3333C20.9163 17.0571 21.1411 16.8333 21.4183 16.8333Z" fill="#121C25"/>
<path d="M40.2943 20.6413C39.4635 20.8946 38.5479 21.0213 37.5475 21.0213C35.8858 21.0213 34.4191 20.6582 33.1474 19.932C31.8757 19.2058 30.8837 18.184 30.1716 16.8666C29.4764 15.5493 29.1288 14.0378 29.1288 12.332C29.1288 10.6093 29.4764 9.08931 30.1716 7.77198C30.8668 6.45464 31.8502 5.43287 33.1219 4.70664C34.3936 3.98042 35.8688 3.61731 37.5475 3.61731C39.2092 3.61731 40.6759 3.97198 41.9476 4.68131C43.2193 5.39064 44.2027 6.40398 44.8979 7.72131C45.5931 9.02175 45.9407 10.5249 45.9407 12.2306C45.9407 13.5142 45.7372 14.7049 45.3303 15.8026C44.9403 16.8835 44.3808 17.8124 43.6516 18.5893L46.017 19.8053L45.6355 23.276L40.2943 20.6413ZM37.7255 15.4986L40.3452 16.8666C40.9217 16.3938 41.3626 15.7689 41.6678 14.992C41.99 14.2151 42.151 13.3284 42.151 12.332C42.151 11.2342 41.956 10.2715 41.5661 9.44398C41.193 8.59953 40.6504 7.95775 39.9383 7.51864C39.2431 7.06264 38.4461 6.83464 37.5475 6.83464C36.6488 6.83464 35.8434 7.06264 35.1312 7.51864C34.436 7.97464 33.8934 8.62487 33.5034 9.46931C33.1304 10.2969 32.9439 11.2511 32.9439 12.332C32.9439 13.9702 33.3593 15.2875 34.1902 16.284C35.021 17.2804 36.1232 17.7871 37.4966 17.804L37.7255 15.4986Z" fill="white"/>
<path d="M48.7663 3.79464C49.275 3.77775 50.2245 3.76931 51.6149 3.76931C53.0223 3.76931 53.9803 3.77775 54.489 3.79464C56.4219 3.8622 57.8632 4.33509 58.8128 5.21331C59.7623 6.07464 60.2371 7.23998 60.2371 8.70931C60.2371 9.95909 59.9149 11.0231 59.2706 11.9013C58.6432 12.7626 57.7615 13.3284 56.6254 13.5986C56.9815 13.8858 57.3461 14.2826 57.7191 14.7893C58.0921 15.2791 58.6093 16.0475 59.2706 17.0946C59.9658 18.1924 60.6694 19.3831 61.3816 20.6666H57.1087L54.2346 15.3466C53.9294 14.7893 53.6496 14.4431 53.3953 14.308C53.1579 14.156 52.7934 14.08 52.3016 14.08V20.6666H48.7663V3.79464ZM53.8785 11.268C54.7433 11.268 55.4215 11.0484 55.9133 10.6093C56.4219 10.1702 56.6763 9.57909 56.6763 8.83598C56.6763 8.16042 56.4559 7.64531 56.015 7.29064C55.5741 6.93598 54.9298 6.75864 54.082 6.75864H52.3016V11.268H53.8785Z" fill="white"/>
<path d="M71.9053 8.75998L70.8371 20.6666H67.5561L69.1585 3.79464H73.7366L78.0604 15.904L82.257 3.79464H86.8352L88.3866 20.6666H85.0802L83.9102 8.81064L79.4338 20.844L76.4072 21.1226L71.9053 8.75998Z" fill="white"/>
<path d="M97.4191 21.0466C95.2996 21.0466 93.6294 20.4386 92.4086 19.2226C91.2047 18.0066 90.6028 16.3178 90.6028 14.156C90.6028 12.7542 90.8656 11.5382 91.3912 10.508C91.9169 9.46087 92.6545 8.65864 93.604 8.10131C94.5705 7.54398 95.6981 7.26531 96.9867 7.26531C98.8858 7.26531 100.344 7.87331 101.361 9.08931C102.379 10.3053 102.887 12.0618 102.887 14.3586C102.887 14.7471 102.879 15.0342 102.862 15.22H94.2144C94.384 16.1151 94.774 16.7991 95.3844 17.272C95.9948 17.728 96.8172 17.956 97.8515 17.956C98.4789 17.956 99.1317 17.88 99.8099 17.728C100.488 17.5591 101.082 17.3395 101.59 17.0693L102.175 19.932C101.497 20.2866 100.743 20.5569 99.9117 20.7426C99.0978 20.9453 98.2669 21.0466 97.4191 21.0466ZM99.4538 12.5346C99.403 11.8084 99.1486 11.2342 98.6908 10.812C98.233 10.3729 97.6226 10.1533 96.8596 10.1533C96.1305 10.1533 95.5285 10.3644 95.0537 10.7866C94.5959 11.2089 94.3077 11.7915 94.189 12.5346H99.4538Z" fill="white"/>
<path d="M105.57 7.61998H109.08V9.87464C109.623 8.97953 110.25 8.32087 110.962 7.89864C111.674 7.47642 112.505 7.26531 113.455 7.26531C114.862 7.26531 115.964 7.68753 116.761 8.53198C117.558 9.35953 117.957 10.5164 117.957 12.0026V20.6666H114.37V12.56C114.37 11.8844 114.201 11.3609 113.862 10.9893C113.523 10.6009 113.065 10.4066 112.488 10.4066C111.81 10.4066 111.166 10.66 110.555 11.1666C109.945 11.6733 109.479 12.3151 109.156 13.092V20.6666H105.57V7.61998Z" fill="white"/>
<path d="M125.493 21.0213C124.102 21.0213 123.009 20.5991 122.212 19.7546C121.415 18.9102 121.016 17.7533 121.016 16.284V7.61998H124.603V15.7013C124.603 16.3938 124.772 16.9342 125.111 17.3226C125.45 17.6942 125.908 17.88 126.485 17.88C127.061 17.88 127.612 17.6942 128.138 17.3226C128.681 16.9511 129.13 16.4529 129.486 15.828V7.61998H133.072V20.6666H129.486V18.944C128.994 19.6026 128.426 20.1178 127.782 20.4893C127.154 20.844 126.391 21.0213 125.493 21.0213Z" fill="white"/>
</svg>
