<svg width="24" height="16" viewBox="0 0 24 16" fill="none" xmlns="http://www.w3.org/2000/svg">
<path d="M23.2258 5.9613H0.77417V10.0387H23.2258V5.9613Z" fill="#EDBF4A"/>
<path d="M23.2258 0.645172H0.77417V5.18711H23.2258V0.645172ZM4.51192 3.76775C4.72576 3.76775 4.89902 3.94107 4.89902 4.15485C4.89902 4.36863 4.72576 4.54195 4.51192 4.54195C3.61546 4.54195 2.88612 3.8126 2.88612 2.91614C2.88612 2.01968 3.61546 1.29033 4.51192 1.29033C4.72576 1.29033 4.89902 1.46365 4.89902 1.67743C4.89902 1.89121 4.72576 2.06453 4.51192 2.06453C4.04235 2.06453 3.66031 2.44657 3.66031 2.91614C3.66031 3.38571 4.04235 3.76775 4.51192 3.76775Z" fill="#3DB4EA"/>
<path d="M22.0645 15.3549H23.2258V10.8129H0.77417V15.3549H20.5161C20.7299 15.3549 20.7484 15.3549 20.9032 15.3549H21.6774C21.9097 15.3549 21.8507 15.3549 22.0645 15.3549Z" fill="#259245"/>
<path d="M23.2258 10.0387H0.77417V10.8129H23.2258V10.0387Z" fill="#B21727"/>
<path d="M23.2258 5.1871H0.77417V5.9613H23.2258V5.1871Z" fill="#B21727"/>
<path d="M9.41803 3.23892C9.19037 3.23892 9.00513 3.42416 9.00513 3.65183C9.00513 3.87949 9.19037 4.06473 9.41803 4.06473C9.64569 4.06473 9.83093 3.87949 9.83093 3.65183C9.83093 3.42416 9.64569 3.23892 9.41803 3.23892Z" fill="white"/>
<path d="M7.91559 3.23892C7.68792 3.23892 7.50269 3.42416 7.50269 3.65183C7.50269 3.87949 7.68792 4.06473 7.91559 4.06473C8.14325 4.06473 8.32849 3.87949 8.32849 3.65183C8.32849 3.42416 8.1433 3.23892 7.91559 3.23892Z" fill="white"/>
<path d="M8.41803 2.00015C8.19037 2.00015 8.00513 2.18539 8.00513 2.41306C8.00513 2.64073 8.19037 2.82597 8.41803 2.82597C8.64569 2.82597 8.83093 2.64073 8.83093 2.41306C8.83093 2.18539 8.64569 2.00015 8.41803 2.00015Z" fill="white"/>
<path d="M6.91559 2.00015C6.68792 2.00015 6.50269 2.18539 6.50269 2.41306C6.50269 2.64073 6.68792 2.82597 6.91559 2.82597C7.14325 2.82597 7.32849 2.64073 7.32849 2.41306C7.32849 2.18539 7.1433 2.00015 6.91559 2.00015Z" fill="white"/>
<path d="M6.41266 3.23892C6.185 3.23892 5.99976 3.42416 5.99976 3.65183C5.99976 3.87949 6.185 4.06473 6.41266 4.06473C6.64033 4.06473 6.82557 3.87949 6.82557 3.65183C6.82557 3.42416 6.64033 3.23892 6.41266 3.23892Z" fill="white"/>
<path d="M4.51204 2.06454C4.72587 2.06454 4.89913 1.89122 4.89913 1.67744C4.89913 1.46366 4.72587 1.29034 4.51204 1.29034C3.61557 1.29034 2.88623 2.01969 2.88623 2.91615C2.88623 3.81261 3.61557 4.54196 4.51204 4.54196C4.72587 4.54196 4.89913 4.36864 4.89913 4.15486C4.89913 3.94108 4.72587 3.76776 4.51204 3.76776C4.04246 3.76776 3.66042 3.38572 3.66042 2.91615C3.66042 2.44658 4.04246 2.06454 4.51204 2.06454Z" fill="white"/>
</svg>
