<svg width="26" height="26" viewBox="0 0 26 26" fill="none" xmlns="http://www.w3.org/2000/svg">
<g clip-path="url(#clip0_277_11906)">
<path d="M19.75 25H6.25C3.3505 25 1 22.6495 1 19.75V6.25C1 3.3505 3.3505 1 6.25 1H19.75C22.6495 1 25 3.3505 25 6.25V19.75C25 22.6495 22.6495 25 19.75 25Z" fill="#41479B"/>
<path d="M24.9998 19.7495V18.597L21.277 16.1579H24.9998V14.8947H14.8945V25H16.1577V17.3341L24.1701 22.5836C24.4539 22.1418 24.673 21.6545 24.8146 21.1353" fill="#F5F5F5"/>
<path d="M1.35302 21.6458C1.48089 21.9758 1.64092 22.2897 1.82964 22.5836L9.84208 17.3341V25H11.1052V14.8947H1V16.1579H4.72276L1 18.597V19.75C1 19.9518 1.01181 20.1509 1.03398 20.3469" fill="#F5F5F5"/>
<path d="M1 6.42845V7.40303L4.72276 9.84212H1V11.1053H11.1053V1H9.84212V8.66594L1.82964 3.41641C1.51825 3.90123 1.28467 4.44072 1.14597 5.01719" fill="#F5F5F5"/>
<path d="M24.6398 4.33605C24.5132 4.01266 24.3554 3.70483 24.1701 3.41636L16.1577 8.66594V1H14.8945V11.1053H24.9998V9.84212H21.277L24.9998 7.40303V6.25C24.9998 6.04094 24.9872 5.83478 24.9634 5.63209" fill="#F5F5F5"/>
<path d="M14.8947 1H11.1053V11.1053H1V14.8947H11.1053V25H14.8947V14.8947H25V11.1053H14.8947V1Z" fill="#FF4B55"/>
<path d="M7.48746 16.1579L1.03418 20.3469C1.08546 20.7998 1.19421 21.2353 1.35326 21.6458L9.80759 16.1579H7.48746V16.1579Z" fill="#FF4B55"/>
<path d="M17.1465 16.1579L24.8146 21.1354C24.935 20.694 24.9997 20.2296 24.9997 19.75V19.7495L19.4666 16.1579L17.1465 16.1579Z" fill="#FF4B55"/>
<path d="M8.57894 9.84212L1.14597 5.01718C1.05077 5.41262 1 5.82535 1 6.24999V6.42845L6.25881 9.84212H8.57894Z" fill="#FF4B55"/>
<path d="M18.4783 9.84212L24.9639 5.63209C24.9109 5.18003 24.8007 4.7455 24.6404 4.33609L16.1582 9.84212H18.4783Z" fill="#FF4B55"/>
</g>
<rect x="0.5" y="0.5" width="25" height="25" rx="4.5" stroke="#121C25" stroke-opacity="0.06"/>
<defs>
<clipPath id="clip0_277_11906">
<rect x="1" y="1" width="24" height="24" rx="4" fill="white"/>
</clipPath>
</defs>
</svg>
