<svg width="24" height="16" viewBox="0 0 24 16" fill="none" xmlns="http://www.w3.org/2000/svg">
<path d="M23.2258 5.96129H0.77417V10.0387H23.2258V5.96129Z" fill="white"/>
<path d="M23.2258 0.645157H0.77417V5.18709H23.2258V0.645157ZM12 1.27741C12.2276 1.27741 12.4129 1.46265 12.4129 1.69032C12.4129 1.91798 12.2276 2.10322 12 2.10322C11.7723 2.10322 11.5871 1.91798 11.5871 1.69032C11.5871 1.46265 11.7723 1.27741 12 1.27741ZM4.51192 3.76774C4.72576 3.76774 4.89902 3.94105 4.89902 4.15483C4.89902 4.36861 4.72576 4.54193 4.51192 4.54193C3.61546 4.54193 2.88612 3.81259 2.88612 2.91612C2.88612 2.01966 3.61546 1.29032 4.51192 1.29032C4.72576 1.29032 4.89902 1.46363 4.89902 1.67741C4.89902 1.8912 4.72576 2.06451 4.51192 2.06451C4.04235 2.06451 3.66031 2.44655 3.66031 2.91612C3.66031 3.3857 4.04235 3.76774 4.51192 3.76774ZM5.98888 4.55483C5.76122 4.55483 5.57598 4.3696 5.57598 4.14193C5.57598 3.91427 5.76122 3.72903 5.98888 3.72903C6.21654 3.72903 6.40178 3.91427 6.40178 4.14193C6.40178 4.3696 6.21654 4.55483 5.98888 4.55483ZM7.49164 4.55483C7.26398 4.55483 7.07874 4.3696 7.07874 4.14193C7.07874 3.91427 7.26398 3.72903 7.49164 3.72903C7.71931 3.72903 7.90454 3.91427 7.90454 4.14193C7.90454 4.3696 7.71936 4.55483 7.49164 4.55483ZM7.49164 3.31612C7.26398 3.31612 7.07874 3.13089 7.07874 2.90322C7.07874 2.67556 7.26398 2.49032 7.49164 2.49032C7.71931 2.49032 7.90454 2.67556 7.90454 2.90322C7.90454 3.13089 7.71936 3.31612 7.49164 3.31612ZM8.99445 4.55483C8.76679 4.55483 8.58155 4.3696 8.58155 4.14193C8.58155 3.91427 8.76679 3.72903 8.99445 3.72903C9.22212 3.72903 9.40736 3.91427 9.40736 4.14193C9.40736 4.3696 9.22212 4.55483 8.99445 4.55483ZM8.99445 3.31612C8.76679 3.31612 8.58155 3.13089 8.58155 2.90322C8.58155 2.67556 8.76679 2.49032 8.99445 2.49032C9.22212 2.49032 9.40736 2.67556 9.40736 2.90322C9.40736 3.13089 9.22212 3.31612 8.99445 3.31612ZM8.99445 2.10322C8.76679 2.10322 8.58155 1.91798 8.58155 1.69032C8.58155 1.46265 8.76679 1.27741 8.99445 1.27741C9.22212 1.27741 9.40736 1.46265 9.40736 1.69032C9.40736 1.91798 9.22212 2.10322 8.99445 2.10322ZM10.4972 4.55483C10.2696 4.55483 10.0843 4.3696 10.0843 4.14193C10.0843 3.91427 10.2696 3.72903 10.4972 3.72903C10.7249 3.72903 10.9101 3.91427 10.9101 4.14193C10.9101 4.3696 10.7249 4.55483 10.4972 4.55483ZM10.4972 3.31612C10.2696 3.31612 10.0843 3.13089 10.0843 2.90322C10.0843 2.67556 10.2696 2.49032 10.4972 2.49032C10.7249 2.49032 10.9101 2.67556 10.9101 2.90322C10.9101 3.13089 10.7249 3.31612 10.4972 3.31612ZM10.4972 2.10322C10.2696 2.10322 10.0843 1.91798 10.0843 1.69032C10.0843 1.46265 10.2696 1.27741 10.4972 1.27741C10.7249 1.27741 10.9101 1.46265 10.9101 1.69032C10.9101 1.91798 10.7249 2.10322 10.4972 2.10322ZM12 4.55483C11.7723 4.55483 11.5871 4.3696 11.5871 4.14193C11.5871 3.91427 11.7723 3.72903 12 3.72903C12.2276 3.72903 12.4129 3.91427 12.4129 4.14193C12.4129 4.3696 12.2276 4.55483 12 4.55483ZM12 3.31612C11.7723 3.31612 11.5871 3.13089 11.5871 2.90322C11.5871 2.67556 11.7723 2.49032 12 2.49032C12.2276 2.49032 12.4129 2.67556 12.4129 2.90322C12.4129 3.13089 12.2276 3.31612 12 3.31612Z" fill="#3DB4EA"/>
<path d="M22.0645 15.3548H23.2258V10.8129H0.77417V15.3548H20.5161C20.7299 15.3548 20.7484 15.3548 20.9032 15.3548H21.6774C21.9097 15.3548 21.8507 15.3548 22.0645 15.3548Z" fill="#259245"/>
<path d="M23.2258 10.0387H0.77417V10.8129H23.2258V10.0387Z" fill="#B21727"/>
<path d="M23.2258 5.18709H0.77417V5.96128H23.2258V5.18709Z" fill="#B21727"/>
<path d="M8.99445 3.72903C8.76678 3.72903 8.58154 3.91427 8.58154 4.14194C8.58154 4.3696 8.76678 4.55484 8.99445 4.55484C9.22211 4.55484 9.40735 4.3696 9.40735 4.14194C9.40735 3.91427 9.22211 3.72903 8.99445 3.72903Z" fill="white"/>
<path d="M12.0001 3.72903C11.7724 3.72903 11.5872 3.91427 11.5872 4.14194C11.5872 4.3696 11.7724 4.55484 12.0001 4.55484C12.2277 4.55484 12.413 4.3696 12.413 4.14194C12.413 3.91427 12.2277 3.72903 12.0001 3.72903Z" fill="white"/>
<path d="M10.4974 3.72903C10.2697 3.72903 10.0845 3.91427 10.0845 4.14194C10.0845 4.3696 10.2697 4.55484 10.4974 4.55484C10.725 4.55484 10.9103 4.3696 10.9103 4.14194C10.9103 3.91427 10.725 3.72903 10.4974 3.72903Z" fill="white"/>
<path d="M12.0001 2.10323C12.2277 2.10323 12.413 1.91799 12.413 1.69032C12.413 1.46266 12.2277 1.27742 12.0001 1.27742C11.7724 1.27742 11.5872 1.46266 11.5872 1.69032C11.5872 1.91799 11.7724 2.10323 12.0001 2.10323Z" fill="white"/>
<path d="M7.49176 3.72903C7.2641 3.72903 7.07886 3.91427 7.07886 4.14194C7.07886 4.3696 7.2641 4.55484 7.49176 4.55484C7.71942 4.55484 7.90466 4.3696 7.90466 4.14194C7.90466 3.91427 7.71948 3.72903 7.49176 3.72903Z" fill="white"/>
<path d="M8.99445 2.49031C8.76678 2.49031 8.58154 2.67555 8.58154 2.90322C8.58154 3.13088 8.76678 3.31612 8.99445 3.31612C9.22211 3.31612 9.40735 3.13088 9.40735 2.90322C9.40735 2.67555 9.22211 2.49031 8.99445 2.49031Z" fill="white"/>
<path d="M10.4974 2.49031C10.2697 2.49031 10.0845 2.67555 10.0845 2.90322C10.0845 3.13088 10.2697 3.31612 10.4974 3.31612C10.725 3.31612 10.9103 3.13088 10.9103 2.90322C10.9103 2.67555 10.725 2.49031 10.4974 2.49031Z" fill="white"/>
<path d="M8.99445 1.27742C8.76678 1.27742 8.58154 1.46266 8.58154 1.69032C8.58154 1.91799 8.76678 2.10323 8.99445 2.10323C9.22211 2.10323 9.40735 1.91799 9.40735 1.69032C9.40735 1.46266 9.22211 1.27742 8.99445 1.27742Z" fill="white"/>
<path d="M10.4974 1.27742C10.2697 1.27742 10.0845 1.46266 10.0845 1.69032C10.0845 1.91799 10.2697 2.10323 10.4974 2.10323C10.725 2.10323 10.9103 1.91799 10.9103 1.69032C10.9103 1.46266 10.725 1.27742 10.4974 1.27742Z" fill="white"/>
<path d="M7.49176 2.49031C7.2641 2.49031 7.07886 2.67555 7.07886 2.90322C7.07886 3.13088 7.2641 3.31612 7.49176 3.31612C7.71942 3.31612 7.90466 3.13088 7.90466 2.90322C7.90466 2.67555 7.71948 2.49031 7.49176 2.49031Z" fill="white"/>
<path d="M5.98883 3.72903C5.76117 3.72903 5.57593 3.91427 5.57593 4.14194C5.57593 4.3696 5.76117 4.55484 5.98883 4.55484C6.2165 4.55484 6.40174 4.3696 6.40174 4.14194C6.40174 3.91427 6.2165 3.72903 5.98883 3.72903Z" fill="white"/>
<path d="M12.0001 2.49031C11.7724 2.49031 11.5872 2.67555 11.5872 2.90322C11.5872 3.13088 11.7724 3.31612 12.0001 3.31612C12.2277 3.31612 12.413 3.13088 12.413 2.90322C12.413 2.67555 12.2277 2.49031 12.0001 2.49031Z" fill="white"/>
<path d="M4.51204 2.06451C4.72587 2.06451 4.89913 1.89119 4.89913 1.67741C4.89913 1.46363 4.72587 1.29031 4.51204 1.29031C3.61557 1.29031 2.88623 2.01966 2.88623 2.91612C2.88623 3.81258 3.61557 4.54193 4.51204 4.54193C4.72587 4.54193 4.89913 4.36861 4.89913 4.15483C4.89913 3.94105 4.72587 3.76773 4.51204 3.76773C4.04246 3.76773 3.66042 3.38569 3.66042 2.91612C3.66042 2.44655 4.04246 2.06451 4.51204 2.06451Z" fill="white"/>
</svg>
